<?xml version="1.0" encoding="UTF-8" standalone="no"?>
<!DOCTYPE svg PUBLIC "-//W3C//DTD SVG 1.1//EN" "http://www.w3.org/Graphics/SVG/1.1/DTD/svg11.dtd">
<svg version="1.1" xmlns="http://www.w3.org/2000/svg" xmlns:xlink="http://www.w3.org/1999/xlink" preserveAspectRatio="xMidYMid meet" viewBox="0 0 640 640" width="640" height="640"><defs><path d="M506.64 429.97C506.64 534.62 414.49 619.58 300.98 619.58C187.47 619.58 95.31 534.62 95.31 429.97C95.31 325.31 187.47 240.35 300.98 240.35C414.49 240.35 506.64 325.31 506.64 429.97Z" id="db0bIQvDe"></path><path d="M487.62 544.46L60.95 544.46L60.95 117.79L440.99 117.79L508.04 56.84L0 56.84L0 605.41L548.57 605.41L548.57 219.58L487.62 275.66L487.62 544.46Z" id="h19xg9Ghzd"></path><path d="M265.75 335.09L162.13 231.77L121.9 272L268.5 418.59L640 77.26L596.42 34.59L265.75 335.09Z" id="a28ekyWRLi"></path></defs><g><g><g><use xlink:href="#db0bIQvDe" opacity="1" fill="#ffe831" fill-opacity="1"></use></g><g><use xlink:href="#h19xg9Ghzd" opacity="1" fill="#000000" fill-opacity="1"></use><g><use xlink:href="#h19xg9Ghzd" opacity="1" fill-opacity="0" stroke="#000000" stroke-width="1" stroke-opacity="0"></use></g></g><g><use xlink:href="#a28ekyWRLi" opacity="1" fill="#000000" fill-opacity="1"></use><g><use xlink:href="#a28ekyWRLi" opacity="1" fill-opacity="0" stroke="#000000" stroke-width="1" stroke-opacity="0"></use></g></g></g></g></svg>