<?xml version="1.0" encoding="UTF-8" standalone="no"?>
<!DOCTYPE svg PUBLIC "-//W3C//DTD SVG 1.1//EN" "http://www.w3.org/Graphics/SVG/1.1/DTD/svg11.dtd">
<svg version="1.1" xmlns="http://www.w3.org/2000/svg" xmlns:xlink="http://www.w3.org/1999/xlink" preserveAspectRatio="xMidYMid meet" viewBox="0 0 640 640" width="640" height="640"><defs><path d="M565.22 362.37C552.1 345 529.11 338.21 511.62 347.72C511.57 347.75 511.51 347.78 511.45 347.82C510.6 348.31 503.84 352.21 503 352.7C484.01 336.04 456.79 332.94 436.08 345.75C433.29 347.38 419.3 355.53 394.12 370.21C360.63 370.21 342.02 370.21 338.3 370.21C326.16 370.19 314.19 367.25 303.28 361.61C302.52 361.21 296.39 358.03 295.62 357.64C251.32 334.5 198.4 340.04 159.27 371.91C159.1 372.05 158.93 372.19 158.77 372.34C156.92 374.11 142.12 388.24 140.27 390C133.14 396.82 124.65 401.86 115.44 404.76C114.37 401.01 105.82 370.94 104.75 367.18C103.76 363.7 100.72 361.31 97.27 361.31C88.33 361.31 16.75 361.31 7.8 361.31C3.49 361.31 0 365 0 369.55C0 369.88 0.02 370.21 0.06 370.53C3.04 396.76 26.9 606.52 29.88 632.74C30.35 636.88 33.68 640 37.63 640C51.05 640 158.41 640 171.83 640C176.14 640 179.64 636.31 179.64 631.76C179.64 630.96 179.52 630.16 179.31 629.39C178.12 625.22 172.19 604.35 161.51 566.8C194.71 544.29 213.16 531.78 216.85 529.28C224.27 524.87 233.02 523.65 241.27 525.88C241.44 525.93 241.6 525.97 241.77 526C308.78 539.23 346.01 546.58 353.46 548.05C383.74 553.86 414.99 549.13 442.51 534.57C442.84 534.4 443.16 534.2 443.47 533.97C462.79 519.75 617.34 405.97 636.66 391.75C640.01 389.28 640.99 384.5 638.91 380.79C624.68 355.03 593.59 345.93 568.83 360.28C568.11 360.7 565.58 362.16 565.22 362.37ZM518.84 362.33C528.9 356.92 542.52 360.77 551.22 370.47C546.28 373.33 521.57 387.62 477.09 413.35C474.22 414.97 472.63 415.87 472.31 416.05C469.93 408.55 466.33 401.55 461.66 395.37C473.1 388.76 507.41 368.94 518.84 362.33ZM443.72 360.12C443.83 360.05 443.89 360.02 443.9 360.01C457.22 351.73 474.37 352.62 487.86 361.44C484.07 363.63 453.72 381.16 449.93 383.35C442.37 377.38 433.63 373.29 424.36 371.41C426.94 369.9 433.39 366.14 443.72 360.12ZM44.55 623.52L16.6 377.79L91.47 377.79L161.34 623.52L44.55 623.52ZM435.01 520.11C410.65 532.85 383.06 536.97 356.31 531.84C345.17 529.64 256.02 512.04 244.88 509.84C232.72 506.62 219.85 508.49 208.97 515.05C208.84 515.13 208.72 515.2 208.61 515.28C205.15 517.62 187.9 529.32 156.83 550.37C134.68 472.48 122.38 429.2 119.92 420.55C131.36 416.94 141.89 410.68 150.73 402.22C152.56 400.48 167.17 386.54 168.99 384.79C203.41 356.92 249.85 352.12 288.74 372.43C289.5 372.82 295.63 376 296.4 376.4C309.44 383.15 323.77 386.67 338.3 386.7C345.73 386.7 405.17 386.7 412.6 386.7C436.01 386.7 455.52 405.02 459.35 429.03C453.9 428.77 410.27 426.65 404.82 426.39C385.27 425.44 365.67 426.41 346.28 429.28C342.01 429.85 338.98 433.98 339.52 438.49C340.06 443.01 343.96 446.2 348.24 445.64C348.31 445.63 348.38 445.61 348.46 445.6C366.89 442.87 385.51 441.95 404.1 442.85C410.44 443.16 461.14 445.62 467.48 445.92C467.66 445.93 467.81 445.93 467.84 445.93C472.15 445.93 475.65 442.24 475.65 437.69C475.65 436.1 475.58 434.52 475.47 432.96C476.08 432.61 479.09 430.91 484.52 427.84C539.6 395.98 570.21 378.28 576.33 374.74C591.28 366.07 609.94 369.51 621.22 383.02C583.98 410.44 472.25 492.69 435.01 520.11Z" id="d2H21jUcp2"></path><path d="M97.98 612.72C112.17 612.56 123.55 600.28 123.4 585.3C123.25 570.43 111.78 558.46 97.7 558.46C83.44 558.55 71.94 570.82 72 585.88C72.15 600.87 83.78 612.88 97.98 612.72ZM108.35 585.58C108.5 591.63 103.99 596.66 98.26 596.83C92.54 596.99 87.77 592.22 87.61 586.18C87.61 586.08 87.61 585.98 87.61 585.88C87.54 579.92 92.05 575.02 97.7 574.94C103.42 574.77 108.19 579.54 108.35 585.58Z" id="a2uKOTCY8O"></path><path d="M227 211.74C211.05 266.95 240.5 325.36 292.79 342.21C302.22 345.25 312.03 346.78 321.89 346.76C328.99 346.76 385.8 346.76 392.9 346.76C423.85 346.87 453.07 331.67 471.84 305.68C490.5 280.31 496.83 247.18 488.95 216.16C488.61 214.84 488.32 213.78 488.25 213.51C478.26 176.79 455.28 148.29 423.04 132.22C427.95 122.48 425.56 110.42 417.37 103.56C422.13 92.12 427.83 81.15 434.41 70.76C441.36 59.89 447.66 54.63 454.34 49.06C456.94 46.89 459.63 44.65 462.35 42.07C466.69 38.03 468.43 31.71 466.84 25.84C464.86 18.89 458.92 14.81 451.72 15.45C445.44 16.01 436.95 10.71 430.76 6.85C428.03 5.04 425.17 3.42 422.22 2.02C406.95 -4.54 397.11 6.55 392.91 11.28C391.46 12.91 386.39 15.88 383.96 16.89C383.66 17.02 383.35 17.13 383.04 17.23C375.84 19.48 372.08 19.12 365.32 12.64C355.15 2.9 343.21 1.16 333.39 7.97C329.57 10.63 327.71 14.99 325.76 19.62C324.94 21.64 324.02 23.61 323.01 25.53C322.71 26.15 322.33 26.72 321.88 27.22C321.78 27.25 321.67 27.28 321.57 27.29C320.23 27.53 319.95 27.58 317.22 25.44C317.11 25.36 316.25 24.68 316.14 24.59C310.05 19.67 303.41 15.54 296.38 12.29C296.09 12.16 295.77 11.99 295.42 11.81C294.34 11.26 293.01 10.58 291.5 9.96C285.2 7.35 271.36 6.76 264.57 8.82C262.72 9.3 260.98 10.12 259.4 11.25C256.41 13.62 254.25 16.99 253.28 20.8C251.05 29.28 254.22 38.32 261.16 43.21C271.16 50.28 279.84 59.25 286.77 69.66C293.09 79.28 298.04 89.85 301.45 101C290.73 106.65 286.38 120.4 291.74 131.72C292.17 132.64 292.66 133.52 293.21 134.37C275.03 144.02 243.14 163.87 229.05 205.29C228.32 207.42 227.64 209.59 227 211.74ZM311.19 127.97C307.8 127.97 305.06 125.07 305.06 121.49C305.06 117.92 307.8 115.02 311.19 115.02C320.46 115.02 394.58 115.02 403.84 115.02C407.23 115.02 409.97 117.92 409.97 121.49C409.97 125.07 407.23 127.97 403.84 127.97C385.31 127.97 329.72 127.97 311.19 127.97ZM268.27 25.37C268.32 25.17 268.4 24.97 268.48 24.78C268.59 24.74 268.71 24.7 268.86 24.66C272.35 23.6 282.64 23.99 285.79 25.3C286.75 25.7 287.75 26.21 288.64 26.66C289.09 26.89 289.5 27.1 289.87 27.28C295.88 30.03 301.55 33.55 306.75 37.76C306.87 37.85 307.82 38.6 307.93 38.69C312 41.87 316.61 44.87 324.12 43.55C330.97 42.35 334.33 37.74 336.48 33.84C337.78 31.42 338.96 28.92 340 26.35C340.64 24.7 341.4 23.09 342.26 21.55C345.94 19.2 350.05 20.28 354.82 24.85C365.1 34.7 374.55 37.08 387.47 33.04C388.19 32.81 388.94 32.54 389.68 32.23C391.7 31.39 400.09 27.28 404.29 22.56C409.62 16.55 412.1 15.47 416.33 17.29C418.56 18.41 420.73 19.66 422.82 21.05C430 25.53 439.57 31.48 449.59 31.94C447.98 33.36 446.35 34.72 444.66 36.14C437.68 41.95 429.77 48.54 421.46 61.54C414.06 73.24 407.69 85.62 402.41 98.53C400.3 98.53 383.41 98.53 381.3 98.53C381.66 91.69 383.38 81.55 389.71 73.79C392.27 70.67 395.34 68.05 398.77 66.07C402.55 63.86 403.91 58.85 401.82 54.86C399.73 50.88 394.98 49.44 391.21 51.65C391.21 51.65 391.21 51.65 391.21 51.65C386.16 54.58 381.65 58.43 377.88 63.04C368.41 74.65 366.07 89.11 365.67 98.53C364.86 98.53 358.41 98.53 357.6 98.53C354.35 88.07 347.7 70.14 343.58 63.15C341.3 59.29 336.48 58.11 332.82 60.51C329.17 62.92 328.05 68 330.33 71.87C333.06 76.49 337.94 89.26 341.11 98.53C338.71 98.53 319.5 98.53 317.1 98.53C313.19 84.82 307.25 71.85 299.49 60.1C291.49 48.13 281.48 37.8 269.98 29.61C268.62 28.72 267.93 27.02 268.27 25.37ZM309.39 144.35C309.99 144.4 310.58 144.45 311.19 144.45C320.46 144.45 394.58 144.45 403.84 144.45C405.57 144.44 407.3 144.21 408.98 143.77C441.44 157.13 463.65 182.79 473.26 218.07C473.47 218.85 473.67 219.63 473.87 220.4C480.49 246.48 475.16 274.33 459.47 295.65C443.64 317.56 419.01 330.38 392.91 330.29C385.8 330.29 328.99 330.29 321.89 330.29C295.25 330.42 270.17 317.04 254.46 294.32C238.71 272.05 234.05 243.14 241.92 216.62C242.48 214.7 243.09 212.76 243.74 210.86C257.32 170.92 290.06 154.23 305.79 146.21C307.14 145.53 308.33 144.91 309.39 144.35Z" id="dnjNi0HN7"></path><path d="M424.61 237.49C424.61 201.22 396.21 171.71 361.3 171.71C326.39 171.71 297.99 201.22 297.99 237.5C297.99 273.77 326.39 303.27 361.3 303.27C396.21 303.27 424.61 273.76 424.61 237.49ZM409 237.48C409 264.67 387.61 286.79 361.3 286.79C335 286.79 313.6 264.67 313.6 237.49C313.6 210.31 335 188.17 361.3 188.17C387.61 188.17 409 210.29 409 237.48Z" id="awk9uLIDQ"></path><path d="M355.61 251.91C355.13 247.39 351.27 244.13 346.98 244.64C342.7 245.14 339.62 249.22 340.09 253.74C340.09 253.74 340.09 253.74 340.09 253.74C341.06 262.85 347.86 268.58 354.35 271C354.56 275.54 358.21 279.06 362.52 278.84C366.6 278.64 369.84 275.15 369.95 270.84C369.95 270.83 369.95 270.78 369.95 270.77C372.91 269.7 375.6 267.95 377.84 265.65C381.78 261.41 383.8 255.57 383.37 249.65C382.94 238.79 374.26 232.41 371.59 230.71C371.57 230.69 371.44 230.61 371.2 230.46C370.89 230.27 370.72 230.16 370.68 230.14C370.19 229.84 369.95 229.69 369.18 229.28C368.76 229.05 368.32 228.84 367.87 228.66C367.78 228.63 367.07 228.34 366.98 228.3C366.56 228.12 366.12 227.95 365.68 227.81C364.95 227.57 364.2 227.36 363.45 227.2C363.23 227.15 361.43 226.78 361.2 226.73C358.44 226.16 357.43 224.38 357.42 223.03C357.35 221.4 357.85 219.81 358.82 218.55C359.9 217.7 361.26 217.34 362.59 217.55C365.48 217.41 368.08 219.37 368.9 222.29C368.89 222.28 368.88 222.22 368.85 222.12C377.97 219.82 383.03 218.55 384.04 218.3C382.12 210.85 376.85 204.89 369.95 202.36C369.95 202.32 369.95 202.01 369.95 201.97C369.95 197.42 366.46 193.73 362.15 193.73C357.84 193.73 354.34 197.42 354.34 201.97C354.34 202.02 354.34 202.42 354.34 202.47C351.94 203.41 349.76 204.87 347.92 206.75C343.86 211.16 341.66 217.12 341.81 223.26C341.94 232.88 348.69 240.95 358.22 242.91C358.44 242.96 360.2 243.32 360.42 243.37C360.62 243.42 360.86 243.49 361.08 243.56C361.15 243.59 361.21 243.62 361.28 243.65C361.37 243.68 362.11 243.98 362.2 244.02C362.49 244.18 362.61 244.25 362.82 244.38C362.87 244.41 363.25 244.65 363.3 244.67C363.38 244.73 363.45 244.77 363.52 244.81C365.18 245.88 367.69 248.23 367.78 250.34C367.88 252.86 367.1 253.68 366.81 253.99C365.19 255.32 363.18 255.99 361.13 255.86C359.64 255.79 355.83 254.02 355.61 251.91Z" id="agna2cCLr"></path></defs><g><g><g><use xlink:href="#d2H21jUcp2" opacity="1" fill="#ffe831" fill-opacity="1"></use><g><use xlink:href="#d2H21jUcp2" opacity="1" fill-opacity="0" stroke="#000000" stroke-width="1" stroke-opacity="0"></use></g></g><g><use xlink:href="#a2uKOTCY8O" opacity="1" fill="#ffe831" fill-opacity="1"></use><g><use xlink:href="#a2uKOTCY8O" opacity="1" fill-opacity="0" stroke="#000000" stroke-width="1" stroke-opacity="0"></use></g></g><g><use xlink:href="#dnjNi0HN7" opacity="1" fill="#ffe831" fill-opacity="1"></use><g><use xlink:href="#dnjNi0HN7" opacity="1" fill-opacity="0" stroke="#000000" stroke-width="1" stroke-opacity="0"></use></g></g><g><use xlink:href="#awk9uLIDQ" opacity="1" fill="#ffe831" fill-opacity="1"></use><g><use xlink:href="#awk9uLIDQ" opacity="1" fill-opacity="0" stroke="#000000" stroke-width="1" stroke-opacity="0"></use></g></g><g><use xlink:href="#agna2cCLr" opacity="1" fill="#ffe831" fill-opacity="1"></use><g><use xlink:href="#agna2cCLr" opacity="1" fill-opacity="0" stroke="#000000" stroke-width="1" stroke-opacity="0"></use></g></g></g></g></svg>