<?xml version="1.0" encoding="UTF-8" standalone="no"?>
<!DOCTYPE svg PUBLIC "-//W3C//DTD SVG 1.1//EN" "http://www.w3.org/Graphics/SVG/1.1/DTD/svg11.dtd">
<svg version="1.1" xmlns="http://www.w3.org/2000/svg" xmlns:xlink="http://www.w3.org/1999/xlink" preserveAspectRatio="xMidYMid meet" viewBox="0 0 640 640" width="640" height="640"><defs><path d="M559.95 283.57L559.95 171.57L511.95 171.57L511.95 139.57L543.95 139.57L543.95 11.57L399.95 11.57L399.95 75.57C360.67 75.57 338.85 75.57 334.48 75.57C331.17 66.28 322.37 59.57 311.95 59.57C298.72 59.57 287.95 70.34 287.95 83.57C287.95 93.99 294.66 102.79 303.95 106.1C303.95 109.4 303.95 125.89 303.95 155.57L271.95 155.57L271.95 251.57L327.95 251.57L327.95 299.57L311.95 299.57C311.95 312.24 311.95 319.28 311.95 320.69C311.95 324.52 309.5 327.93 305.21 329.71C301.2 331.39 297.01 330.72 294.27 327.99C293.28 326.99 288.33 322.01 279.41 313.04L245.42 347.02C254.39 355.95 259.36 360.91 260.36 361.9C263.06 364.59 263.74 368.88 261.94 373.17C260.33 377.06 256.84 379.57 253.06 379.57C251.58 379.57 244.19 379.57 230.88 379.57C229.92 372.83 229.38 369.08 229.27 368.33C225.52 342.08 214.56 317.42 197.58 297.04C190.47 288.5 186.1 278.1 184.63 267.17C192.49 266.25 199.98 262.85 205.61 257.23C212.28 250.56 215.95 241.69 215.95 232.26C215.95 231.27 215.95 226.29 215.95 217.35L239.95 209.35C239.95 205.89 239.95 203.96 239.95 203.58C239.95 176.54 229.87 153.23 222.35 139.57C224.11 139.57 238.19 139.57 239.95 139.57C248.78 139.57 255.95 132.4 255.95 123.57C255.95 121.97 255.95 109.17 255.95 107.57C255.95 98.75 248.78 91.57 239.95 91.57C239.86 91.57 239.38 91.57 238.51 91.57C237.29 85.46 236.61 82.07 236.47 81.39C228.38 40.93 192.57 11.57 151.31 11.57C106.5 11.57 69.35 45.2 64.89 89.78C64.83 90.43 64.51 93.7 63.95 99.57C63.95 113.97 63.95 121.97 63.95 123.57C63.95 127.34 65.32 130.76 67.5 133.5C65.18 140.14 63.95 147.19 63.95 154.2C63.95 154.53 63.95 157.19 63.95 157.52C63.95 183.92 76.78 208.84 98.26 224.2C99.71 225.23 106.94 230.39 119.95 239.68C119.95 263.24 119.95 276.32 119.95 278.94C112.39 282.21 105.94 287.73 101.53 295.04C97.97 300.92 96.13 308.03 96.05 315.57C96.04 315.57 96.01 315.57 95.95 315.57L95.95 507.57L231.95 507.57L231.95 459.58L244.88 459.58L279.41 494.11C288.33 485.14 293.28 480.16 294.27 479.16C297.02 476.42 301.19 475.75 305.55 477.59C309.5 479.22 311.95 482.63 311.95 486.46C311.95 487.87 311.95 494.9 311.95 507.57L359.95 507.57C359.95 494.9 359.95 487.86 359.95 486.45C359.95 482.62 362.41 479.21 366.7 477.44C370.7 475.75 374.9 476.42 377.63 479.16C378.62 480.15 383.58 485.13 392.5 494.1L426.48 460.12C417.52 451.2 412.54 446.24 411.54 445.25C408.8 442.51 408.14 438.32 409.96 433.97C411.57 430.08 415.06 427.57 418.84 427.57C420.25 427.57 427.29 427.57 439.95 427.57L439.95 411.57C474.44 411.57 493.59 411.57 497.42 411.57C500.74 420.86 509.54 427.57 519.95 427.57C533.18 427.57 543.95 416.8 543.95 403.57C543.95 393.16 537.24 384.36 527.95 381.04C527.95 374.55 527.95 342.05 527.95 283.57L559.95 283.57ZM463.95 267.57L463.95 187.57L541.42 187.57L503.5 231.8L493.61 221.92L482.3 233.23L504.41 255.34L543.95 209.2L543.95 267.57L463.95 267.57ZM415.95 27.57L527.95 27.57L527.95 123.57L415.95 123.57L415.95 27.57ZM319.95 83.57C319.95 87.99 316.36 91.57 311.95 91.57C307.54 91.57 303.95 87.99 303.95 83.57C303.95 79.16 307.54 75.57 311.95 75.57C316.36 75.57 319.95 79.16 319.95 83.57ZM287.95 171.57L344.8 171.57L319.61 199.92L309.61 189.92L298.3 201.23L320.3 223.23L351.95 187.61L351.95 235.57L287.95 235.57L287.95 171.57ZM214.65 379.01C197.89 376.35 184.41 363.4 181.53 346.18C181 343.02 176.76 317.75 176.23 314.59C181.32 315.12 186.43 315.44 191.54 315.5C203.06 331.85 210.6 350.7 213.45 370.6C213.69 372.29 214.53 378.17 214.65 379.01ZM199.95 205.81L199.95 219.57C191.49 219.57 186.78 219.57 185.84 219.57C177.86 219.57 170.68 215.13 167.11 208C165.68 208.71 154.23 214.44 152.8 215.16C159.1 227.75 171.76 235.58 185.84 235.58C187.22 235.58 198.25 235.58 199.63 235.58C198.96 239.48 197.15 243.08 194.3 245.93C190.7 249.52 185.72 251.59 180.64 251.59C178.73 251.59 169.17 251.58 151.95 251.57L151.95 267.57C161.86 267.58 167.36 267.58 168.46 267.58C169.7 278.69 173.42 289.39 179.31 298.88C176.75 298.64 174.21 298.24 171.67 297.88C165.09 284.58 151.5 275.58 135.95 275.57C135.95 268.7 135.95 213.75 135.95 206.88C135.95 202.68 134.25 198.55 131.26 195.57C130.46 194.77 124.06 188.37 123.26 187.57C121.13 185.43 119.95 182.6 119.95 179.57C119.95 175.16 123.54 171.57 127.95 171.57C128.49 171.57 131.15 171.57 135.95 171.57C135.95 161.97 135.95 156.64 135.95 155.57C135.95 146.75 143.13 139.57 151.95 139.57C157.13 139.57 198.55 139.57 203.73 139.57C208.98 147.68 222.11 170.41 223.78 197.87C220.6 198.93 212.66 201.57 199.95 205.81ZM239.95 107.57L239.95 123.57L79.95 123.57L79.93 107.57L239.95 107.57ZM95.95 91.57L80.79 91.57C80.8 91.46 80.81 91.39 80.81 91.38C81.36 85.87 82.59 80.6 84.3 75.57C85.07 75.57 88.96 75.57 95.95 75.57L95.95 91.57ZM159.95 91.57L143.95 91.57L143.95 59.57L159.95 59.57L159.95 91.57ZM222.19 91.57L207.95 91.57L207.95 75.57C214.16 75.57 217.61 75.57 218.3 75.57C219.3 78.48 220.17 81.44 220.78 84.52C220.97 85.46 221.44 87.81 222.19 91.57ZM210.45 59.57C210.2 59.57 208.2 59.57 207.95 59.57C199.13 59.57 191.95 66.75 191.95 75.57C191.95 76.64 191.95 81.97 191.95 91.57L175.95 91.57C175.95 72.37 175.95 61.7 175.95 59.57C175.95 50.75 168.78 43.57 159.95 43.57C158.35 43.57 145.55 43.57 143.95 43.57C135.13 43.57 127.95 50.75 127.95 59.57C127.95 61.7 127.95 72.37 127.95 91.57L111.95 91.57C111.95 81.97 111.95 76.64 111.95 75.57C111.95 66.75 104.78 59.57 95.95 59.57C95.56 59.57 92.42 59.57 92.03 59.57C104.71 40.16 126.57 27.57 151.31 27.57C175.66 27.57 197.63 40.15 210.45 59.57ZM107.57 211.18C90.27 198.83 79.95 178.76 79.95 157.52C79.95 157.19 79.95 154.53 79.95 154.2C79.95 149.25 80.78 144.28 82.34 139.57C86.54 139.57 120.2 139.57 124.41 139.57C121.65 144.3 119.95 149.72 119.95 155.57C119.95 155.71 119.95 156.8 119.95 156.94C110.64 160.24 103.95 169.14 103.95 179.57C103.95 186.86 106.79 193.72 111.95 198.88C112.49 199.42 115.15 202.08 119.95 206.88L119.95 220.03C113.35 215.31 109.22 212.36 107.57 211.18ZM133.18 291.74C133.95 291.64 134.95 291.57 135.94 291.57C148.08 291.57 158.3 300.69 159.78 313.17C160.37 316.74 165.15 345.25 165.74 348.82C170.28 375.92 193.52 395.58 221 395.58C223.86 395.58 238.17 395.58 263.92 395.57L263.92 443.57C229.42 443.58 210.26 443.58 206.42 443.58C163.04 443.58 125.59 411.23 119.3 368.32C118.59 363.46 112.89 324.51 112.18 319.64C111.46 313.56 112.54 307.76 115.22 303.32C119.13 296.84 125.64 292.63 133.18 291.74ZM215.95 491.57L111.95 491.57C111.95 435.97 111.95 405.08 111.95 398.9C128.63 434.88 165.24 459.58 206.42 459.58C207.06 459.58 210.24 459.58 215.95 459.58L215.95 491.57ZM423.95 411.57C420.89 411.57 419.18 411.57 418.84 411.57C408.56 411.57 399.28 417.96 395.06 428.12C390.87 438.09 392.9 449.27 400.25 456.58C400.49 456.82 401.68 458 403.82 460.14L392.52 471.44C390.38 469.3 389.2 468.11 388.96 467.88C381.65 460.52 370.47 458.49 360.22 462.8C350.34 466.9 343.95 476.18 343.95 486.45C343.95 486.79 343.95 488.5 343.95 491.57L327.95 491.57C327.95 488.5 327.95 486.79 327.95 486.45C327.95 476.18 321.56 466.9 311.42 462.68C301.42 458.48 290.25 460.52 282.94 467.87C282.7 468.11 281.52 469.29 279.38 471.44C272.06 464.11 267.99 460.04 267.18 459.23C274.45 457.72 279.93 451.27 279.93 443.56C281.63 443.56 295.21 443.56 296.9 443.56C307.33 453.74 321.34 459.56 335.97 459.56C366.85 459.56 391.97 434.44 391.97 403.56C391.97 372.69 366.85 347.56 335.97 347.56C321.19 347.56 307.15 353.43 296.71 363.72C295.94 363.64 295.16 363.56 294.37 363.56C288.61 363.56 283.22 365.71 278.93 369.48C279.2 362.44 276.73 355.57 271.67 350.56C271.43 350.32 270.24 349.13 268.1 347L279.4 335.69C281.54 337.83 282.72 339.02 282.96 339.26C290.28 346.61 301.46 348.66 311.7 344.34C321.56 340.24 327.95 330.96 327.95 320.69C327.95 320.35 327.95 318.64 327.95 315.57L343.95 315.57C343.95 318.64 343.95 320.35 343.95 320.69C343.95 330.96 350.34 340.24 360.49 344.46C370.48 348.66 381.66 346.63 388.97 339.28C389.21 339.04 390.39 337.85 392.52 335.71L403.82 347.01C401.68 349.14 400.49 350.33 400.26 350.56C392.91 357.87 390.87 369.05 395.18 379.31C399.28 389.18 408.56 395.57 418.84 395.57C419.18 395.57 420.89 395.57 423.95 395.57L423.95 411.57ZM316.88 379.57C315.98 377.77 315.48 376.76 315.38 376.56C314.46 374.72 313.3 373.07 311.99 371.57C318.86 366.43 327.23 363.57 335.95 363.57C358.01 363.57 375.95 381.52 375.95 403.57C375.95 425.63 358.01 443.57 335.95 443.57C333.26 443.57 330.61 443.28 328.02 442.75C346.22 439 359.95 422.86 359.95 403.57C359.95 390.34 349.18 379.57 335.94 379.57C333.4 379.57 327.05 379.57 316.88 379.57ZM306.99 395.57C324.36 395.57 334.01 395.57 335.94 395.57C340.36 395.57 343.95 399.16 343.95 403.57C343.95 416.8 333.18 427.57 319.94 427.57C317.28 427.57 303.93 427.57 279.92 427.57L279.92 390.88C285.39 385.42 288.43 382.38 289.04 381.77C292.47 378.36 298.9 379.4 301.06 383.72C301.85 385.3 303.83 389.25 306.99 395.57ZM511.95 403.57C511.95 399.16 515.54 395.57 519.95 395.57C524.36 395.57 527.95 399.16 527.95 403.57C527.95 407.99 524.36 411.57 519.95 411.57C515.54 411.57 511.95 407.99 511.95 403.57ZM511.95 381.04C505.18 383.46 499.84 388.8 497.42 395.57C493.59 395.57 474.44 395.57 439.95 395.57L439.95 379.57C427.29 379.57 420.25 379.57 418.84 379.57C415.06 379.57 411.57 377.07 409.82 372.84C408.16 368.88 408.83 364.59 411.54 361.89C412.54 360.9 417.52 355.94 426.48 347.02L392.5 313.04C383.58 322.01 378.62 326.99 377.63 327.99C374.89 330.73 370.71 331.4 366.35 329.56C362.4 327.93 359.95 324.52 359.95 320.69C359.95 319.28 359.95 312.24 359.95 299.57L343.95 299.57L343.95 251.57L367.95 251.57L367.95 169.61L389.94 144.88L377.98 134.26L359.02 155.57L319.95 155.57C319.95 125.89 319.95 109.4 319.95 106.1C326.73 103.68 332.06 98.35 334.48 91.57C338.85 91.57 360.67 91.57 399.95 91.57L399.95 139.57L495.95 139.57L495.95 171.57L447.95 171.57L447.95 283.57L511.95 283.57C511.95 335.56 511.95 368.05 511.95 381.04Z" id="a3E2SQXfc"></path><path d="M461.45 81.85L451.56 71.96L440.25 83.28L462.36 105.39L515.98 42.82L503.83 32.42L461.45 81.85Z" id="c3QI4uImZg"></path></defs><g><g><g><use xlink:href="#a3E2SQXfc" opacity="1" fill="#ffe831" fill-opacity="1"></use><g><use xlink:href="#a3E2SQXfc" opacity="1" fill-opacity="0" stroke="#000000" stroke-width="1" stroke-opacity="0"></use></g></g><g><use xlink:href="#c3QI4uImZg" opacity="1" fill="#ffe831" fill-opacity="1"></use><g><use xlink:href="#c3QI4uImZg" opacity="1" fill-opacity="0" stroke="#000000" stroke-width="1" stroke-opacity="0"></use></g></g></g></g></svg>