<?xml version="1.0" encoding="UTF-8" standalone="no"?>
<!DOCTYPE svg PUBLIC "-//W3C//DTD SVG 1.1//EN" "http://www.w3.org/Graphics/SVG/1.1/DTD/svg11.dtd">
<svg version="1.1" xmlns="http://www.w3.org/2000/svg" xmlns:xlink="http://www.w3.org/1999/xlink" preserveAspectRatio="xMidYMid meet" viewBox="0 0 640 640" width="640" height="640"><defs><path d="M640 206.45L578.06 206.45L578.06 165.16L619.35 165.16L619.35 0L433.55 0C433.55 49.55 433.55 77.08 433.55 82.58C382.86 82.58 354.71 82.58 349.07 82.58C344.8 70.59 333.45 61.94 320 61.94C302.93 61.94 289.03 75.83 289.03 92.9C289.03 106.35 297.69 117.7 309.68 121.97C309.68 126.23 309.68 147.51 309.68 185.81C306.92 185.81 293.16 185.81 268.39 185.81L268.39 309.68L340.65 309.68L340.65 371.61C328.26 371.61 321.38 371.61 320 371.61C320 387.96 320 397.05 320 398.86C320 403.81 316.84 408.21 311.3 410.5C306.13 412.67 300.72 411.81 297.19 408.28C295.91 406.99 289.52 400.57 278.01 388.99C273.63 393.38 238.54 428.45 234.15 432.84C245.73 444.36 252.14 450.76 253.43 452.04C256.92 455.51 257.79 461.05 255.47 466.58C253.39 471.6 248.89 474.84 244.01 474.84C242.1 474.84 232.57 474.84 215.39 474.84C214.15 466.14 213.46 461.3 213.32 460.34C208.48 426.46 194.34 394.65 172.43 368.35C163.25 357.33 157.61 343.91 155.72 329.81C165.86 328.62 175.52 324.23 182.79 316.98C191.39 308.37 196.13 296.93 196.13 284.76C196.13 283.48 196.13 277.06 196.13 265.52C199.23 264.49 224 256.23 227.1 255.2C227.1 250.74 227.1 248.25 227.1 247.75C227.1 212.86 214.09 182.79 204.39 165.16C206.66 165.16 224.83 165.16 227.1 165.16C238.49 165.16 247.74 155.91 247.74 144.52C247.74 142.45 247.74 125.94 247.74 123.87C247.74 112.49 238.49 103.23 227.1 103.23C226.98 103.23 226.36 103.23 225.24 103.23C223.66 95.34 222.79 90.97 222.61 90.09C212.17 37.88 165.96 0 112.72 0C54.9 0 6.97 43.39 1.21 100.92C1.14 101.75 0.72 105.97 0 113.55C0 132.13 0 142.45 0 144.52C0 149.38 1.77 153.79 4.58 157.33C1.59 165.9 0 174.99 0 184.04C0 184.46 0 187.9 0 188.32C0 222.39 16.55 254.54 44.27 274.36C46.14 275.69 55.47 282.35 72.26 294.34C72.26 324.74 72.26 341.61 72.26 344.99C62.5 349.21 54.18 356.34 48.49 365.77C43.9 373.35 41.52 382.53 41.42 392.26C41.41 392.26 41.37 392.26 41.29 392.26C41.29 408.77 41.29 491.35 41.29 640L216.77 640L216.77 578.08L233.46 578.08C260.19 604.81 275.04 619.66 278.01 622.63C289.52 611.06 295.91 604.63 297.19 603.34C300.74 599.81 306.12 598.94 311.74 601.32C316.84 603.42 320 607.82 320 612.76C320 614.58 320 623.65 320 640C326.19 640 375.74 640 381.94 640C381.94 623.65 381.94 614.57 381.94 612.75C381.94 607.81 385.11 603.41 390.65 601.12C395.81 598.94 401.23 599.81 404.75 603.34C406.03 604.62 412.43 611.05 423.94 622.62C428.32 618.23 463.4 583.16 467.78 578.77C456.22 567.26 449.79 560.86 448.5 559.59C444.97 556.05 444.12 550.65 446.46 545.03C448.54 540.01 453.05 536.77 457.92 536.77C459.74 536.77 468.83 536.77 485.16 536.77C485.16 534.71 485.16 518.19 485.16 516.13C529.66 516.13 554.37 516.13 559.32 516.13C563.6 528.12 574.95 536.77 588.39 536.77C605.46 536.77 619.35 522.88 619.35 505.81C619.35 492.37 610.7 481.02 598.71 476.74C598.71 468.36 598.71 426.43 598.71 350.97C601.46 350.97 615.23 350.97 640 350.97L640 206.45ZM516.13 227.1L616.09 227.1L567.16 284.17L554.4 271.42L539.81 286.01L568.34 314.54L619.35 255.01L619.35 330.32L516.13 330.32L516.13 227.1ZM598.71 20.65L598.71 144.52L454.19 144.52L454.19 20.65L598.71 20.65ZM320 103.23C314.31 103.23 309.68 98.61 309.68 92.9C309.68 87.21 314.31 82.58 320 82.58C325.69 82.58 330.32 87.21 330.32 92.9C330.32 98.61 325.69 103.23 320 103.23ZM362.39 206.45L329.88 243.03L316.98 230.13L302.39 244.72L330.77 273.11L371.61 227.15L371.61 289.03L289.03 289.03L289.03 206.45L362.39 206.45ZM151.72 431.75C151.03 427.68 145.56 395.07 144.88 390.99C151.45 391.68 158.04 392.09 164.63 392.17C179.5 413.26 189.23 437.59 192.9 463.26C193.21 465.45 194.3 473.03 194.45 474.12C172.83 470.68 155.43 453.97 151.72 431.75ZM175.48 268.39C164.57 268.39 158.49 268.39 157.28 268.39C146.98 268.39 137.72 262.66 133.11 253.46C131.26 254.37 116.49 261.77 114.65 262.7C122.77 278.94 139.11 289.05 157.28 289.05C159.06 289.05 173.29 289.05 175.07 289.05C174.21 294.08 171.87 298.72 168.19 302.4C163.55 307.03 157.12 309.7 150.57 309.7C148.1 309.7 135.77 309.69 113.55 309.68C113.55 311.74 113.55 328.26 113.55 330.32C126.34 330.34 133.43 330.34 134.85 330.34C136.45 344.67 141.25 358.48 148.85 370.72C145.55 370.41 142.27 369.9 138.99 369.43C130.5 352.27 112.97 340.66 92.9 340.65C92.9 331.78 92.9 260.88 92.9 252.01C92.9 246.59 90.71 241.26 86.85 237.42C85.82 236.39 77.56 228.13 76.53 227.1C73.78 224.34 72.26 220.68 72.26 216.77C72.26 211.08 76.89 206.45 82.58 206.45C83.28 206.45 86.71 206.45 92.9 206.45C92.9 194.06 92.9 187.19 92.9 185.81C92.9 174.43 102.17 165.16 113.55 165.16C120.23 165.16 173.68 165.16 180.36 165.16C187.14 175.63 204.08 204.95 206.23 240.39C202.13 241.75 191.88 245.16 175.48 250.63C175.48 254.18 175.48 266.61 175.48 268.39ZM227.1 144.52L20.65 144.52L20.62 123.87L227.1 123.87L227.1 144.52ZM21.73 103.23C21.74 103.08 21.75 102.99 21.75 102.98C22.46 95.87 24.05 89.07 26.26 82.58C27.25 82.58 32.27 82.58 41.29 82.58C41.29 83.96 41.29 90.84 41.29 103.23C29.55 103.23 23.03 103.23 21.73 103.23ZM103.23 103.23L103.23 61.94L123.87 61.94L123.87 103.23L103.23 103.23ZM185.81 103.23C185.81 90.84 185.81 83.96 185.81 82.58C193.82 82.58 198.27 82.58 199.16 82.58C200.45 86.34 201.57 90.15 202.36 94.13C202.61 95.34 203.21 98.37 204.18 103.23C201.73 103.23 195.61 103.23 185.81 103.23ZM185.81 61.94C174.43 61.94 165.16 71.2 165.16 82.58C165.16 83.96 165.16 90.84 165.16 103.23C163.1 103.23 146.58 103.23 144.52 103.23C144.52 78.45 144.52 64.68 144.52 61.94C144.52 50.55 135.26 41.29 123.87 41.29C121.81 41.29 105.29 41.29 103.23 41.29C91.85 41.29 82.58 50.55 82.58 61.94C82.58 64.68 82.58 78.45 82.58 103.23C80.52 103.23 64 103.23 61.94 103.23C61.94 90.84 61.94 83.96 61.94 82.58C61.94 71.2 52.68 61.94 41.29 61.94C40.79 61.94 36.74 61.94 36.23 61.94C52.59 36.89 80.8 20.65 112.72 20.65C144.14 20.65 172.49 36.88 189.03 61.94C188.71 61.94 186.13 61.94 185.81 61.94ZM20.65 188.32C20.65 187.9 20.65 184.46 20.65 184.04C20.65 177.65 21.72 171.24 23.73 165.16C29.15 165.16 72.58 165.16 78.01 165.16C74.45 171.26 72.26 178.26 72.26 185.81C72.26 185.99 72.26 187.39 72.26 187.57C60.25 191.83 51.61 203.32 51.61 216.77C51.61 226.18 55.28 235.03 61.94 241.69C62.63 242.39 66.06 245.82 72.26 252.01C72.26 253.71 72.26 267.28 72.26 268.98C63.74 262.89 58.41 259.08 56.28 257.56C33.96 241.63 20.65 215.73 20.65 188.32ZM92.89 361.29C108.55 361.29 121.74 373.06 123.65 389.16C124.41 393.77 130.58 430.55 131.34 435.16C137.2 470.13 167.19 495.5 202.65 495.5C206.34 495.5 224.8 495.5 258.03 495.48C258.03 501.68 258.03 551.23 258.03 557.42C213.51 557.43 188.79 557.43 183.83 557.43C127.86 557.43 79.54 515.69 71.42 460.32C70.5 454.05 63.15 403.79 62.23 397.51C61.3 389.66 62.7 382.18 66.15 376.45C71.2 368.09 79.6 362.66 89.33 361.51C90.32 361.38 91.61 361.29 92.89 361.29ZM61.94 619.35C61.94 547.61 61.94 507.75 61.94 499.78C83.46 546.21 130.7 578.08 183.83 578.08C184.66 578.08 188.76 578.08 196.13 578.08C196.13 580.83 196.13 594.59 196.13 619.35C115.61 619.35 70.88 619.35 61.94 619.35ZM457.92 516.13C444.66 516.13 432.68 524.37 427.24 537.48C421.83 550.35 424.45 564.77 433.94 574.21C434.25 574.52 435.78 576.04 438.54 578.8C437.08 580.26 425.42 591.92 423.96 593.38C421.2 590.62 419.68 589.08 419.37 588.79C409.94 579.29 395.51 576.67 382.28 582.23C369.54 587.52 361.29 599.5 361.29 612.75C361.29 613.19 361.29 615.39 361.29 619.35C359.23 619.35 342.71 619.35 340.65 619.35C340.65 615.39 340.65 613.19 340.65 612.75C340.65 599.5 332.4 587.52 319.32 582.08C306.41 576.66 292 579.29 282.57 588.77C282.26 589.08 280.74 590.61 277.97 593.38C268.53 583.92 263.28 578.67 262.23 577.63C271.61 575.68 278.68 567.35 278.68 557.41C280.88 557.41 298.4 557.41 300.58 557.41C314.04 570.54 332.12 578.05 350.99 578.05C390.84 578.05 423.25 545.64 423.25 505.79C423.25 465.96 390.84 433.54 350.99 433.54C331.92 433.54 313.81 441.11 300.34 454.39C299.34 454.28 298.34 454.18 297.32 454.18C289.88 454.18 282.93 456.95 277.39 461.82C277.74 452.74 274.55 443.87 268.03 437.41C267.72 437.1 266.18 435.56 263.42 432.81C264.88 431.35 276.54 419.68 278 418.22C280.76 420.98 282.28 422.52 282.59 422.83C292.04 432.31 306.46 434.95 319.68 429.38C332.4 424.09 340.65 412.12 340.65 398.86C340.65 398.43 340.65 396.22 340.65 392.26C342.71 392.26 359.23 392.26 361.29 392.26C361.29 396.22 361.29 398.43 361.29 398.86C361.29 412.12 369.54 424.09 382.63 429.54C395.52 434.95 409.95 432.34 419.38 422.85C419.69 422.54 421.21 421.01 423.96 418.25C425.42 419.7 437.08 431.37 438.54 432.83C435.78 435.57 434.25 437.11 433.95 437.41C424.46 446.84 421.83 461.26 427.39 474.5C432.68 487.24 444.66 495.48 457.92 495.48C458.36 495.48 460.57 495.48 464.52 495.48C464.52 496.86 464.52 503.74 464.52 516.13C460.41 516.13 458.22 516.13 457.92 516.13ZM324.43 470.95C323.24 468.58 321.74 466.45 320.05 464.52C328.92 457.88 339.72 454.19 350.97 454.19C379.43 454.19 402.58 477.35 402.58 505.81C402.58 534.27 379.43 557.42 350.97 557.42C347.5 557.42 344.08 557.05 340.74 556.36C364.22 551.52 381.94 530.7 381.94 505.81C381.94 488.74 368.04 474.84 350.95 474.84C347.68 474.84 339.48 474.84 326.36 474.84C325.2 472.52 324.55 471.21 324.43 470.95ZM350.95 495.48C356.66 495.48 361.29 500.12 361.29 505.81C361.29 522.88 347.39 536.77 330.31 536.77C326.88 536.77 309.65 536.77 278.67 536.77C278.67 532.04 278.67 494.17 278.67 489.43C285.73 482.39 289.65 478.46 290.44 477.68C294.86 473.28 303.16 474.62 305.95 480.19C306.97 482.23 309.52 487.33 313.6 495.48C336.01 495.48 348.46 495.48 350.95 495.48ZM588.39 495.48C594.08 495.48 598.71 500.12 598.71 505.81C598.71 511.51 594.08 516.13 588.39 516.13C582.7 516.13 578.06 511.51 578.06 505.81C578.06 500.12 582.7 495.48 588.39 495.48ZM559.32 495.48C554.37 495.48 529.66 495.48 485.16 495.48C485.16 493.42 485.16 476.9 485.16 474.84C468.83 474.84 459.74 474.84 457.92 474.84C453.05 474.84 448.54 471.61 446.28 466.15C444.14 461.05 445.01 455.51 448.5 452.03C449.79 450.75 456.22 444.35 467.78 432.84C463.4 428.45 428.32 393.38 423.94 388.99C412.43 400.57 406.03 406.99 404.75 408.28C401.21 411.82 395.82 412.68 390.19 410.31C385.1 408.21 381.94 403.81 381.94 398.86C381.94 397.05 381.94 387.96 381.94 371.61C380.56 371.61 373.68 371.61 361.29 371.61L361.29 309.68L392.26 309.68L392.26 203.92L420.63 172.01L405.2 158.31L380.74 185.81C350.49 185.81 333.68 185.81 330.32 185.81C330.32 147.51 330.32 126.23 330.32 121.97C339.07 118.85 345.95 111.97 349.07 103.23C354.71 103.23 382.86 103.23 433.55 103.23C433.55 107.35 433.55 128 433.55 165.16L557.42 165.16L557.42 206.45L495.48 206.45L495.48 350.97C545.03 350.97 572.56 350.97 578.06 350.97C578.06 418.05 578.06 459.97 578.06 476.74C569.33 479.86 562.44 486.75 559.32 495.48Z" id="c7fNox8wx"></path><path d="M640 206.45L578.06 206.45L578.06 165.16L619.35 165.16L619.35 0L433.55 0C433.55 49.55 433.55 77.08 433.55 82.58C382.86 82.58 354.71 82.58 349.07 82.58C344.8 70.59 333.45 61.94 320 61.94C302.93 61.94 289.03 75.83 289.03 92.9C289.03 106.35 297.69 117.7 309.68 121.97C309.68 126.23 309.68 147.51 309.68 185.81C306.92 185.81 293.16 185.81 268.39 185.81L268.39 309.68L340.65 309.68L340.65 371.61C328.26 371.61 321.38 371.61 320 371.61C320 387.96 320 397.05 320 398.86C320 403.81 316.84 408.21 311.3 410.5C306.13 412.67 300.72 411.81 297.19 408.28C295.91 406.99 289.52 400.57 278.01 388.99C273.63 393.38 238.54 428.45 234.15 432.84C245.73 444.36 252.14 450.76 253.43 452.04C256.92 455.51 257.79 461.05 255.47 466.58C253.39 471.6 248.89 474.84 244.01 474.84C242.1 474.84 232.57 474.84 215.39 474.84C214.15 466.14 213.46 461.3 213.32 460.34C208.48 426.46 194.34 394.65 172.43 368.35C163.25 357.33 157.61 343.91 155.72 329.81C165.86 328.62 175.52 324.23 182.79 316.98C191.39 308.37 196.13 296.93 196.13 284.76C196.13 283.48 196.13 277.06 196.13 265.52C199.23 264.49 224 256.23 227.1 255.2C227.1 250.74 227.1 248.25 227.1 247.75C227.1 212.86 214.09 182.79 204.39 165.16C206.66 165.16 224.83 165.16 227.1 165.16C238.49 165.16 247.74 155.91 247.74 144.52C247.74 142.45 247.74 125.94 247.74 123.87C247.74 112.49 238.49 103.23 227.1 103.23C226.98 103.23 226.36 103.23 225.24 103.23C223.66 95.34 222.79 90.97 222.61 90.09C212.17 37.88 165.96 0 112.72 0C54.9 0 6.97 43.39 1.21 100.92C1.14 101.75 0.72 105.97 0 113.55C0 132.13 0 142.45 0 144.52C0 149.38 1.77 153.79 4.58 157.33C1.59 165.9 0 174.99 0 184.04C0 184.46 0 187.9 0 188.32C0 222.39 16.55 254.54 44.27 274.36C46.14 275.69 55.47 282.35 72.26 294.34C72.26 324.74 72.26 341.61 72.26 344.99C62.5 349.21 54.18 356.34 48.49 365.77C43.9 373.35 41.52 382.53 41.42 392.26C41.41 392.26 41.37 392.26 41.29 392.26C41.29 408.77 41.29 491.35 41.29 640L216.77 640L216.77 578.08L233.46 578.08C260.19 604.81 275.04 619.66 278.01 622.63C289.52 611.06 295.91 604.63 297.19 603.34C300.74 599.81 306.12 598.94 311.74 601.32C316.84 603.42 320 607.82 320 612.76C320 614.58 320 623.65 320 640C326.19 640 375.74 640 381.94 640C381.94 623.65 381.94 614.57 381.94 612.75C381.94 607.81 385.11 603.41 390.65 601.12C395.81 598.94 401.23 599.81 404.75 603.34C406.03 604.62 412.43 611.05 423.94 622.62C428.32 618.23 463.4 583.16 467.78 578.77C456.22 567.26 449.79 560.86 448.5 559.59C444.97 556.05 444.12 550.65 446.46 545.03C448.54 540.01 453.05 536.77 457.92 536.77C459.74 536.77 468.83 536.77 485.16 536.77C485.16 534.71 485.16 518.19 485.16 516.13C529.66 516.13 554.37 516.13 559.32 516.13C563.6 528.12 574.95 536.77 588.39 536.77C605.46 536.77 619.35 522.88 619.35 505.81C619.35 492.37 610.7 481.02 598.71 476.74C598.71 468.36 598.71 426.43 598.71 350.97C601.46 350.97 615.23 350.97 640 350.97L640 206.45ZM516.13 227.1L616.09 227.1L567.16 284.17L554.4 271.42L539.81 286.01L568.34 314.54L619.35 255.01L619.35 330.32L516.13 330.32L516.13 227.1ZM598.71 20.65L598.71 144.52L454.19 144.52L454.19 20.65L598.71 20.65ZM320 103.23C314.31 103.23 309.68 98.61 309.68 92.9C309.68 87.21 314.31 82.58 320 82.58C325.69 82.58 330.32 87.21 330.32 92.9C330.32 98.61 325.69 103.23 320 103.23ZM362.39 206.45L329.88 243.03L316.98 230.13L302.39 244.72L330.77 273.11L371.61 227.15L371.61 289.03L289.03 289.03L289.03 206.45L362.39 206.45ZM151.72 431.75C151.03 427.68 145.56 395.07 144.88 390.99C151.45 391.68 158.04 392.09 164.63 392.17C179.5 413.26 189.23 437.59 192.9 463.26C193.21 465.45 194.3 473.03 194.45 474.12C172.83 470.68 155.43 453.97 151.72 431.75ZM175.48 268.39C164.57 268.39 158.49 268.39 157.28 268.39C146.98 268.39 137.72 262.66 133.11 253.46C131.26 254.37 116.49 261.77 114.65 262.7C122.77 278.94 139.11 289.05 157.28 289.05C159.06 289.05 173.29 289.05 175.07 289.05C174.21 294.08 171.87 298.72 168.19 302.4C163.55 307.03 157.12 309.7 150.57 309.7C148.1 309.7 135.77 309.69 113.55 309.68C113.55 311.74 113.55 328.26 113.55 330.32C126.34 330.34 133.43 330.34 134.85 330.34C136.45 344.67 141.25 358.48 148.85 370.72C145.55 370.41 142.27 369.9 138.99 369.43C130.5 352.27 112.97 340.66 92.9 340.65C92.9 331.78 92.9 260.88 92.9 252.01C92.9 246.59 90.71 241.26 86.85 237.42C85.82 236.39 77.56 228.13 76.53 227.1C73.78 224.34 72.26 220.68 72.26 216.77C72.26 211.08 76.89 206.45 82.58 206.45C83.28 206.45 86.71 206.45 92.9 206.45C92.9 194.06 92.9 187.19 92.9 185.81C92.9 174.43 102.17 165.16 113.55 165.16C120.23 165.16 173.68 165.16 180.36 165.16C187.14 175.63 204.08 204.95 206.23 240.39C202.13 241.75 191.88 245.16 175.48 250.63C175.48 254.18 175.48 266.61 175.48 268.39ZM227.1 144.52L20.65 144.52L20.62 123.87L227.1 123.87L227.1 144.52ZM21.73 103.23C21.74 103.08 21.75 102.99 21.75 102.98C22.46 95.87 24.05 89.07 26.26 82.58C27.25 82.58 32.27 82.58 41.29 82.58C41.29 83.96 41.29 90.84 41.29 103.23C29.55 103.23 23.03 103.23 21.73 103.23ZM103.23 103.23L103.23 61.94L123.87 61.94L123.87 103.23L103.23 103.23ZM185.81 103.23C185.81 90.84 185.81 83.96 185.81 82.58C193.82 82.58 198.27 82.58 199.16 82.58C200.45 86.34 201.57 90.15 202.36 94.13C202.61 95.34 203.21 98.37 204.18 103.23C201.73 103.23 195.61 103.23 185.81 103.23ZM185.81 61.94C174.43 61.94 165.16 71.2 165.16 82.58C165.16 83.96 165.16 90.84 165.16 103.23C163.1 103.23 146.58 103.23 144.52 103.23C144.52 78.45 144.52 64.68 144.52 61.94C144.52 50.55 135.26 41.29 123.87 41.29C121.81 41.29 105.29 41.29 103.23 41.29C91.85 41.29 82.58 50.55 82.58 61.94C82.58 64.68 82.58 78.45 82.58 103.23C80.52 103.23 64 103.23 61.94 103.23C61.94 90.84 61.94 83.96 61.94 82.58C61.94 71.2 52.68 61.94 41.29 61.94C40.79 61.94 36.74 61.94 36.23 61.94C52.59 36.89 80.8 20.65 112.72 20.65C144.14 20.65 172.49 36.88 189.03 61.94C188.71 61.94 186.13 61.94 185.81 61.94ZM20.65 188.32C20.65 187.9 20.65 184.46 20.65 184.04C20.65 177.65 21.72 171.24 23.73 165.16C29.15 165.16 72.58 165.16 78.01 165.16C74.45 171.26 72.26 178.26 72.26 185.81C72.26 185.99 72.26 187.39 72.26 187.57C60.25 191.83 51.61 203.32 51.61 216.77C51.61 226.18 55.28 235.03 61.94 241.69C62.63 242.39 66.06 245.82 72.26 252.01C72.26 253.71 72.26 267.28 72.26 268.98C63.74 262.89 58.41 259.08 56.28 257.56C33.96 241.63 20.65 215.73 20.65 188.32ZM92.89 361.29C108.55 361.29 121.74 373.06 123.65 389.16C124.41 393.77 130.58 430.55 131.34 435.16C137.2 470.13 167.19 495.5 202.65 495.5C206.34 495.5 224.8 495.5 258.03 495.48C258.03 501.68 258.03 551.23 258.03 557.42C213.51 557.43 188.79 557.43 183.83 557.43C127.86 557.43 79.54 515.69 71.42 460.32C70.5 454.05 63.15 403.79 62.23 397.51C61.3 389.66 62.7 382.18 66.15 376.45C71.2 368.09 79.6 362.66 89.33 361.51C90.32 361.38 91.61 361.29 92.89 361.29ZM61.94 619.35C61.94 547.61 61.94 507.75 61.94 499.78C83.46 546.21 130.7 578.08 183.83 578.08C184.66 578.08 188.76 578.08 196.13 578.08C196.13 580.83 196.13 594.59 196.13 619.35C115.61 619.35 70.88 619.35 61.94 619.35ZM457.92 516.13C444.66 516.13 432.68 524.37 427.24 537.48C421.83 550.35 424.45 564.77 433.94 574.21C434.25 574.52 435.78 576.04 438.54 578.8C437.08 580.26 425.42 591.92 423.96 593.38C421.2 590.62 419.68 589.08 419.37 588.79C409.94 579.29 395.51 576.67 382.28 582.23C369.54 587.52 361.29 599.5 361.29 612.75C361.29 613.19 361.29 615.39 361.29 619.35C359.23 619.35 342.71 619.35 340.65 619.35C340.65 615.39 340.65 613.19 340.65 612.75C340.65 599.5 332.4 587.52 319.32 582.08C306.41 576.66 292 579.29 282.57 588.77C282.26 589.08 280.74 590.61 277.97 593.38C268.53 583.92 263.28 578.67 262.23 577.63C271.61 575.68 278.68 567.35 278.68 557.41C280.88 557.41 298.4 557.41 300.58 557.41C314.04 570.54 332.12 578.05 350.99 578.05C390.84 578.05 423.25 545.64 423.25 505.79C423.25 465.96 390.84 433.54 350.99 433.54C331.92 433.54 313.81 441.11 300.34 454.39C299.34 454.28 298.34 454.18 297.32 454.18C289.88 454.18 282.93 456.95 277.39 461.82C277.74 452.74 274.55 443.87 268.03 437.41C267.72 437.1 266.18 435.56 263.42 432.81C264.88 431.35 276.54 419.68 278 418.22C280.76 420.98 282.28 422.52 282.59 422.83C292.04 432.31 306.46 434.95 319.68 429.38C332.4 424.09 340.65 412.12 340.65 398.86C340.65 398.43 340.65 396.22 340.65 392.26C342.71 392.26 359.23 392.26 361.29 392.26C361.29 396.22 361.29 398.43 361.29 398.86C361.29 412.12 369.54 424.09 382.63 429.54C395.52 434.95 409.95 432.34 419.38 422.85C419.69 422.54 421.21 421.01 423.96 418.25C425.42 419.7 437.08 431.37 438.54 432.83C435.78 435.57 434.25 437.11 433.95 437.41C424.46 446.84 421.83 461.26 427.39 474.5C432.68 487.24 444.66 495.48 457.92 495.48C458.36 495.48 460.57 495.48 464.52 495.48C464.52 496.86 464.52 503.74 464.52 516.13C460.41 516.13 458.22 516.13 457.92 516.13ZM324.43 470.95C323.24 468.58 321.74 466.45 320.05 464.52C328.92 457.88 339.72 454.19 350.97 454.19C379.43 454.19 402.58 477.35 402.58 505.81C402.58 534.27 379.43 557.42 350.97 557.42C347.5 557.42 344.08 557.05 340.74 556.36C364.22 551.52 381.94 530.7 381.94 505.81C381.94 488.74 368.04 474.84 350.95 474.84C347.68 474.84 339.48 474.84 326.36 474.84C325.2 472.52 324.55 471.21 324.43 470.95ZM350.95 495.48C356.66 495.48 361.29 500.12 361.29 505.81C361.29 522.88 347.39 536.77 330.31 536.77C326.88 536.77 309.65 536.77 278.67 536.77C278.67 532.04 278.67 494.17 278.67 489.43C285.73 482.39 289.65 478.46 290.44 477.68C294.86 473.28 303.16 474.62 305.95 480.19C306.97 482.23 309.52 487.33 313.6 495.48C336.01 495.48 348.46 495.48 350.95 495.48ZM588.39 495.48C594.08 495.48 598.71 500.12 598.71 505.81C598.71 511.51 594.08 516.13 588.39 516.13C582.7 516.13 578.06 511.51 578.06 505.81C578.06 500.12 582.7 495.48 588.39 495.48ZM559.32 495.48C554.37 495.48 529.66 495.48 485.16 495.48C485.16 493.42 485.16 476.9 485.16 474.84C468.83 474.84 459.74 474.84 457.92 474.84C453.05 474.84 448.54 471.61 446.28 466.15C444.14 461.05 445.01 455.51 448.5 452.03C449.79 450.75 456.22 444.35 467.78 432.84C463.4 428.45 428.32 393.38 423.94 388.99C412.43 400.57 406.03 406.99 404.75 408.28C401.21 411.82 395.82 412.68 390.19 410.31C385.1 408.21 381.94 403.81 381.94 398.86C381.94 397.05 381.94 387.96 381.94 371.61C380.56 371.61 373.68 371.61 361.29 371.61L361.29 309.68L392.26 309.68L392.26 203.92L420.63 172.01L405.2 158.31L380.74 185.81C350.49 185.81 333.68 185.81 330.32 185.81C330.32 147.51 330.32 126.23 330.32 121.97C339.07 118.85 345.95 111.97 349.07 103.23C354.71 103.23 382.86 103.23 433.55 103.23C433.55 107.35 433.55 128 433.55 165.16L557.42 165.16L557.42 206.45L495.48 206.45L495.48 350.97C545.03 350.97 572.56 350.97 578.06 350.97C578.06 418.05 578.06 459.97 578.06 476.74C569.33 479.86 562.44 486.75 559.32 495.48Z" id="ga2ZwENDL"></path><path d="M500.14 77.92L485.55 92.53L514.08 121.06L583.26 40.32L567.59 26.9L512.9 90.68L500.14 77.92Z" id="bMlb5rUa"></path><path d="M500.14 77.92L485.55 92.53L514.08 121.06L583.26 40.32L567.59 26.9L512.9 90.68L500.14 77.92Z" id="a51gMy5EIr"></path></defs><g><g><g><use xlink:href="#c7fNox8wx" opacity="1" fill="#ffe831" fill-opacity="1"></use><g><use xlink:href="#c7fNox8wx" opacity="1" fill-opacity="0" stroke="#000000" stroke-width="1" stroke-opacity="0"></use></g></g><g><use xlink:href="#ga2ZwENDL" opacity="1" fill="#000000" fill-opacity="0"></use><g><use xlink:href="#ga2ZwENDL" opacity="1" fill-opacity="0" stroke="#000000" stroke-width="1" stroke-opacity="0"></use></g></g><g><use xlink:href="#bMlb5rUa" opacity="1" fill="#ffe831" fill-opacity="1"></use><g><use xlink:href="#bMlb5rUa" opacity="1" fill-opacity="0" stroke="#000000" stroke-width="1" stroke-opacity="0"></use></g></g><g><use xlink:href="#a51gMy5EIr" opacity="1" fill="#000000" fill-opacity="0"></use><g><use xlink:href="#a51gMy5EIr" opacity="1" fill-opacity="0" stroke="#000000" stroke-width="1" stroke-opacity="0"></use></g></g></g></g></svg>