<?xml version="1.0" encoding="UTF-8" standalone="no"?>
<!DOCTYPE svg PUBLIC "-//W3C//DTD SVG 1.1//EN" "http://www.w3.org/Graphics/SVG/1.1/DTD/svg11.dtd">
<svg version="1.1" xmlns="http://www.w3.org/2000/svg" xmlns:xlink="http://www.w3.org/1999/xlink" preserveAspectRatio="xMidYMid meet" viewBox="0 0 640 640" width="640" height="640"><defs><path d="M567.74 433.55C590.52 433.55 609.03 415.03 609.03 392.26C609.03 377.05 600.67 363.87 588.39 356.71C588.39 352 588.39 314.37 588.39 309.68C588.39 264.14 551.34 227.1 505.81 227.1C499.61 227.1 450.06 227.1 443.87 227.1C398.34 227.1 361.29 264.14 361.29 309.68C361.29 314.37 361.29 352 361.29 356.71C349.01 363.87 340.65 377.05 340.65 392.26C340.65 415.03 359.16 433.55 381.94 433.55C382.48 433.55 386.81 433.55 387.35 433.55C393.21 450.05 403.56 464.43 416.99 475.16C373.85 477.52 337.1 503.97 320 541.37C302.89 503.99 266.14 477.52 223.01 475.16C236.44 464.44 246.79 450.05 252.65 433.55C253.19 433.55 257.52 433.55 258.06 433.55C280.84 433.55 299.35 415.03 299.35 392.26C299.35 377.05 290.99 363.87 278.71 356.71C278.71 352 278.71 314.37 278.71 309.68C278.71 264.14 241.66 227.1 196.13 227.1C189.94 227.1 140.39 227.1 134.19 227.1C88.66 227.1 51.61 264.14 51.61 309.68C51.61 314.37 51.61 352 51.61 356.71C39.33 363.87 30.97 377.05 30.97 392.26C30.97 415.03 49.48 433.55 72.26 433.55C72.8 433.55 77.14 433.55 77.68 433.55C83.54 450.05 93.88 464.43 107.32 475.16C47.61 478.43 0 527.87 0 588.39C0 592.52 0 625.55 0 629.68C0 635.38 4.62 640 10.32 640C30.97 640 134.19 640 320 640C505.81 640 609.03 640 629.68 640C635.38 640 640 635.38 640 629.68C640 625.55 640 592.52 640 588.39C640 527.87 592.39 478.43 532.68 475.16C546.12 464.44 556.46 450.05 562.32 433.55C562.86 433.55 567.2 433.55 567.74 433.55ZM461.01 536.01C442.15 554.87 431.67 565.35 429.57 567.45C420.98 524.5 416.21 500.65 415.25 495.87C417.88 495.66 420.53 495.48 423.23 495.48C423.94 495.48 425.73 495.48 428.58 495.48C432.9 500.89 443.71 514.4 461.01 536.01ZM474.84 520.25L455.03 495.48L494.65 495.48L474.84 520.25ZM526.45 495.48C529.15 495.48 531.79 495.66 534.43 495.88C533.47 500.66 528.7 524.52 520.1 567.46C518.01 565.36 507.53 554.89 488.67 536.03L521.1 495.48C524.43 495.48 526.21 495.48 526.45 495.48ZM567.74 402.58C567.74 399.48 567.74 374.71 567.74 371.61C579.12 371.61 588.39 380.88 588.39 392.26C588.39 403.64 579.12 412.9 567.74 412.9C567.63 412.9 567.2 412.9 567.14 412.9C567.51 409.51 567.74 406.06 567.74 402.58ZM443.87 247.74C450.06 247.74 499.61 247.74 505.81 247.74C539.96 247.74 567.74 275.52 567.74 309.68C567.74 312.43 567.74 326.19 567.74 350.97C566.71 350.97 558.45 350.97 557.42 350.97C538.84 350.97 528.52 350.97 526.45 350.97C515.07 350.97 505.81 341.7 505.81 330.32C505.81 328.26 505.81 317.94 505.81 299.35C505.81 298.67 505.81 295.23 505.81 289.03C493.42 289.03 486.54 289.03 485.16 289.03C485.16 295.23 485.16 298.67 485.16 299.35C485.16 327.82 462.01 350.97 433.55 350.97C430.8 350.97 417.03 350.97 392.26 350.97C391.23 350.97 382.97 350.97 381.94 350.97C381.94 328.94 381.94 315.19 381.94 309.68C381.94 275.52 409.72 247.74 443.87 247.74ZM361.29 392.26C361.29 380.88 370.55 371.61 381.94 371.61C381.94 374.71 381.94 399.48 381.94 402.58C381.94 406.06 382.17 409.51 382.54 412.9C382.43 412.9 382.05 412.9 381.94 412.9C370.55 412.9 361.29 403.64 361.29 392.26ZM433.55 371.61C455.47 371.61 475.12 361.75 488.39 346.28C494.63 361.15 509.34 371.61 526.45 371.61C527.83 371.61 534.71 371.61 547.1 371.61C547.1 390.19 547.1 400.52 547.1 402.58C547.1 442.41 514.67 474.84 474.84 474.84C435.01 474.84 402.58 442.41 402.58 402.58C402.58 398.45 402.58 388.13 402.58 371.61C421.16 371.61 431.48 371.61 433.55 371.61ZM151.33 536.01C132.47 554.87 121.99 565.35 119.9 567.45C111.3 524.5 106.53 500.65 105.57 495.87C108.21 495.66 110.85 495.48 113.55 495.48C114.26 495.48 116.05 495.48 118.9 495.48C123.23 500.89 134.04 514.4 151.33 536.01ZM165.16 520.25L145.35 495.48L184.97 495.48L165.16 520.25ZM216.77 495.48C219.47 495.48 222.12 495.66 224.75 495.88C223.79 500.66 219.02 524.52 210.43 567.46C208.33 565.36 197.85 554.89 178.99 536.03L211.42 495.48C214.75 495.48 216.53 495.48 216.77 495.48ZM258.06 402.58C258.06 399.48 258.06 374.71 258.06 371.61C269.45 371.61 278.71 380.88 278.71 392.26C278.71 403.64 269.45 412.9 258.06 412.9C257.95 412.9 257.52 412.9 257.46 412.9C257.83 409.51 258.06 406.06 258.06 402.58ZM134.19 247.74C140.39 247.74 189.94 247.74 196.13 247.74C230.28 247.74 258.06 275.52 258.06 309.68C258.06 312.43 258.06 326.19 258.06 350.97C257.03 350.97 248.77 350.97 247.74 350.97C229.16 350.97 218.84 350.97 216.77 350.97C205.39 350.97 196.13 341.7 196.13 330.32C196.13 328.26 196.13 317.94 196.13 299.35C196.13 298.67 196.13 295.23 196.13 289.03C183.74 289.03 176.86 289.03 175.48 289.03C175.48 295.23 175.48 298.67 175.48 299.35C175.48 327.82 152.34 350.97 123.87 350.97C121.12 350.97 107.35 350.97 82.58 350.97C81.55 350.97 73.29 350.97 72.26 350.97C72.26 328.94 72.26 315.19 72.26 309.68C72.26 275.52 100.04 247.74 134.19 247.74ZM51.61 392.26C51.61 380.88 60.88 371.61 72.26 371.61C72.26 374.71 72.26 399.48 72.26 402.58C72.26 406.06 72.49 409.51 72.86 412.9C72.75 412.9 72.37 412.9 72.26 412.9C60.88 412.9 51.61 403.64 51.61 392.26ZM123.87 371.61C145.79 371.61 165.45 361.75 178.71 346.28C184.95 361.15 199.66 371.61 216.77 371.61C218.15 371.61 225.03 371.61 237.42 371.61C237.42 390.19 237.42 400.52 237.42 402.58C237.42 442.41 204.99 474.84 165.16 474.84C125.33 474.84 92.9 442.41 92.9 402.58C92.9 398.45 92.9 388.13 92.9 371.61C111.48 371.61 121.81 371.61 123.87 371.61ZM85.33 499.9C87.14 508.95 101.63 581.37 103.43 590.43C104.18 594.14 106.92 597.17 110.55 598.27C111.55 598.57 112.54 598.71 113.55 598.71C116.26 598.71 118.89 597.65 120.85 595.69C123.81 592.74 138.57 577.96 165.16 551.37C191.75 577.96 206.52 592.74 209.47 595.69C211.43 597.65 214.06 598.71 216.77 598.71C217.78 598.71 218.77 598.57 219.77 598.27C223.41 597.17 226.14 594.14 226.89 590.41C228.7 581.35 243.19 508.94 244.99 499.9C282.46 511.87 309.68 546.99 309.68 588.39C309.68 590.45 309.68 600.77 309.68 619.35C280.77 619.35 49.55 619.35 20.65 619.35C20.65 602.84 20.65 592.52 20.65 588.39C20.65 546.99 47.86 511.87 85.33 499.9ZM330.32 619.35C330.32 600.77 330.32 590.45 330.32 588.39C330.32 546.99 357.54 511.87 395.01 499.9C396.81 508.95 411.3 581.37 413.11 590.43C413.86 594.14 416.59 597.17 420.23 598.27C421.23 598.57 422.22 598.71 423.23 598.71C425.94 598.71 428.57 597.65 430.53 595.69C433.48 592.74 448.25 577.96 474.84 551.37C501.43 577.96 516.19 592.74 519.15 595.69C521.11 597.65 523.74 598.71 526.45 598.71C527.46 598.71 528.45 598.57 529.45 598.27C533.08 597.17 535.82 594.14 536.57 590.41C538.37 581.35 552.86 508.94 554.67 499.9C592.14 511.87 619.35 546.99 619.35 588.39C619.35 592.52 619.35 602.84 619.35 619.35C561.55 619.35 359.23 619.35 330.32 619.35Z" id="b2niWKdDGn"></path><path d="M567.74 433.55C590.52 433.55 609.03 415.03 609.03 392.26C609.03 377.05 600.67 363.87 588.39 356.71C588.39 352 588.39 314.37 588.39 309.68C588.39 264.14 551.34 227.1 505.81 227.1C499.61 227.1 450.06 227.1 443.87 227.1C398.34 227.1 361.29 264.14 361.29 309.68C361.29 314.37 361.29 352 361.29 356.71C349.01 363.87 340.65 377.05 340.65 392.26C340.65 415.03 359.16 433.55 381.94 433.55C382.48 433.55 386.81 433.55 387.35 433.55C393.21 450.05 403.56 464.43 416.99 475.16C373.85 477.52 337.1 503.97 320 541.37C302.89 503.99 266.14 477.52 223.01 475.16C236.44 464.44 246.79 450.05 252.65 433.55C253.19 433.55 257.52 433.55 258.06 433.55C280.84 433.55 299.35 415.03 299.35 392.26C299.35 377.05 290.99 363.87 278.71 356.71C278.71 352 278.71 314.37 278.71 309.68C278.71 264.14 241.66 227.1 196.13 227.1C189.94 227.1 140.39 227.1 134.19 227.1C88.66 227.1 51.61 264.14 51.61 309.68C51.61 314.37 51.61 352 51.61 356.71C39.33 363.87 30.97 377.05 30.97 392.26C30.97 415.03 49.48 433.55 72.26 433.55C72.8 433.55 77.14 433.55 77.68 433.55C83.54 450.05 93.88 464.43 107.32 475.16C47.61 478.43 0 527.87 0 588.39C0 592.52 0 625.55 0 629.68C0 635.38 4.62 640 10.32 640C30.97 640 134.19 640 320 640C505.81 640 609.03 640 629.68 640C635.38 640 640 635.38 640 629.68C640 625.55 640 592.52 640 588.39C640 527.87 592.39 478.43 532.68 475.16C546.12 464.44 556.46 450.05 562.32 433.55C562.86 433.55 567.2 433.55 567.74 433.55ZM461.01 536.01C442.15 554.87 431.67 565.35 429.57 567.45C420.98 524.5 416.21 500.65 415.25 495.87C417.88 495.66 420.53 495.48 423.23 495.48C423.94 495.48 425.73 495.48 428.58 495.48C432.9 500.89 443.71 514.4 461.01 536.01ZM474.84 520.25L455.03 495.48L494.65 495.48L474.84 520.25ZM526.45 495.48C529.15 495.48 531.79 495.66 534.43 495.88C533.47 500.66 528.7 524.52 520.1 567.46C518.01 565.36 507.53 554.89 488.67 536.03L521.1 495.48C524.43 495.48 526.21 495.48 526.45 495.48ZM567.74 402.58C567.74 399.48 567.74 374.71 567.74 371.61C579.12 371.61 588.39 380.88 588.39 392.26C588.39 403.64 579.12 412.9 567.74 412.9C567.63 412.9 567.2 412.9 567.14 412.9C567.51 409.51 567.74 406.06 567.74 402.58ZM443.87 247.74C450.06 247.74 499.61 247.74 505.81 247.74C539.96 247.74 567.74 275.52 567.74 309.68C567.74 312.43 567.74 326.19 567.74 350.97C566.71 350.97 558.45 350.97 557.42 350.97C538.84 350.97 528.52 350.97 526.45 350.97C515.07 350.97 505.81 341.7 505.81 330.32C505.81 328.26 505.81 317.94 505.81 299.35C505.81 298.67 505.81 295.23 505.81 289.03C493.42 289.03 486.54 289.03 485.16 289.03C485.16 295.23 485.16 298.67 485.16 299.35C485.16 327.82 462.01 350.97 433.55 350.97C430.8 350.97 417.03 350.97 392.26 350.97C391.23 350.97 382.97 350.97 381.94 350.97C381.94 328.94 381.94 315.19 381.94 309.68C381.94 275.52 409.72 247.74 443.87 247.74ZM361.29 392.26C361.29 380.88 370.55 371.61 381.94 371.61C381.94 374.71 381.94 399.48 381.94 402.58C381.94 406.06 382.17 409.51 382.54 412.9C382.43 412.9 382.05 412.9 381.94 412.9C370.55 412.9 361.29 403.64 361.29 392.26ZM433.55 371.61C455.47 371.61 475.12 361.75 488.39 346.28C494.63 361.15 509.34 371.61 526.45 371.61C527.83 371.61 534.71 371.61 547.1 371.61C547.1 390.19 547.1 400.52 547.1 402.58C547.1 442.41 514.67 474.84 474.84 474.84C435.01 474.84 402.58 442.41 402.58 402.58C402.58 398.45 402.58 388.13 402.58 371.61C421.16 371.61 431.48 371.61 433.55 371.61ZM151.33 536.01C132.47 554.87 121.99 565.35 119.9 567.45C111.3 524.5 106.53 500.65 105.57 495.87C108.21 495.66 110.85 495.48 113.55 495.48C114.26 495.48 116.05 495.48 118.9 495.48C123.23 500.89 134.04 514.4 151.33 536.01ZM165.16 520.25L145.35 495.48L184.97 495.48L165.16 520.25ZM216.77 495.48C219.47 495.48 222.12 495.66 224.75 495.88C223.79 500.66 219.02 524.52 210.43 567.46C208.33 565.36 197.85 554.89 178.99 536.03L211.42 495.48C214.75 495.48 216.53 495.48 216.77 495.48ZM258.06 402.58C258.06 399.48 258.06 374.71 258.06 371.61C269.45 371.61 278.71 380.88 278.71 392.26C278.71 403.64 269.45 412.9 258.06 412.9C257.95 412.9 257.52 412.9 257.46 412.9C257.83 409.51 258.06 406.06 258.06 402.58ZM134.19 247.74C140.39 247.74 189.94 247.74 196.13 247.74C230.28 247.74 258.06 275.52 258.06 309.68C258.06 312.43 258.06 326.19 258.06 350.97C257.03 350.97 248.77 350.97 247.74 350.97C229.16 350.97 218.84 350.97 216.77 350.97C205.39 350.97 196.13 341.7 196.13 330.32C196.13 328.26 196.13 317.94 196.13 299.35C196.13 298.67 196.13 295.23 196.13 289.03C183.74 289.03 176.86 289.03 175.48 289.03C175.48 295.23 175.48 298.67 175.48 299.35C175.48 327.82 152.34 350.97 123.87 350.97C121.12 350.97 107.35 350.97 82.58 350.97C81.55 350.97 73.29 350.97 72.26 350.97C72.26 328.94 72.26 315.19 72.26 309.68C72.26 275.52 100.04 247.74 134.19 247.74ZM51.61 392.26C51.61 380.88 60.88 371.61 72.26 371.61C72.26 374.71 72.26 399.48 72.26 402.58C72.26 406.06 72.49 409.51 72.86 412.9C72.75 412.9 72.37 412.9 72.26 412.9C60.88 412.9 51.61 403.64 51.61 392.26ZM123.87 371.61C145.79 371.61 165.45 361.75 178.71 346.28C184.95 361.15 199.66 371.61 216.77 371.61C218.15 371.61 225.03 371.61 237.42 371.61C237.42 390.19 237.42 400.52 237.42 402.58C237.42 442.41 204.99 474.84 165.16 474.84C125.33 474.84 92.9 442.41 92.9 402.58C92.9 398.45 92.9 388.13 92.9 371.61C111.48 371.61 121.81 371.61 123.87 371.61ZM85.33 499.9C87.14 508.95 101.63 581.37 103.43 590.43C104.18 594.14 106.92 597.17 110.55 598.27C111.55 598.57 112.54 598.71 113.55 598.71C116.26 598.71 118.89 597.65 120.85 595.69C123.81 592.74 138.57 577.96 165.16 551.37C191.75 577.96 206.52 592.74 209.47 595.69C211.43 597.65 214.06 598.71 216.77 598.71C217.78 598.71 218.77 598.57 219.77 598.27C223.41 597.17 226.14 594.14 226.89 590.41C228.7 581.35 243.19 508.94 244.99 499.9C282.46 511.87 309.68 546.99 309.68 588.39C309.68 590.45 309.68 600.77 309.68 619.35C280.77 619.35 49.55 619.35 20.65 619.35C20.65 602.84 20.65 592.52 20.65 588.39C20.65 546.99 47.86 511.87 85.33 499.9ZM330.32 619.35C330.32 600.77 330.32 590.45 330.32 588.39C330.32 546.99 357.54 511.87 395.01 499.9C396.81 508.95 411.3 581.37 413.11 590.43C413.86 594.14 416.59 597.17 420.23 598.27C421.23 598.57 422.22 598.71 423.23 598.71C425.94 598.71 428.57 597.65 430.53 595.69C433.48 592.74 448.25 577.96 474.84 551.37C501.43 577.96 516.19 592.74 519.15 595.69C521.11 597.65 523.74 598.71 526.45 598.71C527.46 598.71 528.45 598.57 529.45 598.27C533.08 597.17 535.82 594.14 536.57 590.41C538.37 581.35 552.86 508.94 554.67 499.9C592.14 511.87 619.35 546.99 619.35 588.39C619.35 592.52 619.35 602.84 619.35 619.35C561.55 619.35 359.23 619.35 330.32 619.35Z" id="fmX0Gn6Ok"></path><path d="M20.65 154.84L20.65 175.48C33.03 175.48 39.91 175.48 41.29 175.48C41.29 187.87 41.29 194.75 41.29 196.13C41.29 201.83 45.91 206.45 51.61 206.45C52.99 206.45 59.87 206.45 72.26 206.45C72.26 207.83 72.26 214.71 72.26 227.1L92.9 227.1C92.9 214.71 92.9 207.83 92.9 206.45C105.29 206.45 112.17 206.45 113.55 206.45C119.25 206.45 123.87 201.83 123.87 196.13C123.87 194.75 123.87 187.87 123.87 175.48C125.25 175.48 132.13 175.48 144.52 175.48L144.52 154.84C132.13 154.84 125.25 154.84 123.87 154.84C123.87 154.35 123.87 154.06 123.87 154.01C149.15 139.35 165.16 112.01 165.16 82.58C165.16 37.05 128.12 0 82.58 0C37.05 0 0 37.05 0 82.58C0 112.01 16.01 139.35 41.29 154.01C41.29 154.13 41.29 154.4 41.29 154.84C38.54 154.84 31.66 154.84 20.65 154.84ZM61.94 185.81L61.94 175.48L103.23 175.48L103.23 185.81L61.94 185.81ZM109.11 138.46C105.52 140.18 103.23 143.82 103.23 147.79C103.23 148.26 103.23 150.61 103.23 154.84C99.1 154.84 66.06 154.84 61.94 154.84C61.94 150.61 61.94 148.26 61.94 147.79C61.94 143.81 59.64 140.18 56.05 138.46C34.54 128.25 20.65 106.3 20.65 82.58C20.65 48.43 48.43 20.65 82.58 20.65C116.74 20.65 144.52 48.43 144.52 82.58C144.52 106.3 130.62 128.25 109.11 138.46Z" id="b2oS607CW2"></path><path d="M20.65 154.84L20.65 175.48C33.03 175.48 39.91 175.48 41.29 175.48C41.29 187.87 41.29 194.75 41.29 196.13C41.29 201.83 45.91 206.45 51.61 206.45C52.99 206.45 59.87 206.45 72.26 206.45C72.26 207.83 72.26 214.71 72.26 227.1L92.9 227.1C92.9 214.71 92.9 207.83 92.9 206.45C105.29 206.45 112.17 206.45 113.55 206.45C119.25 206.45 123.87 201.83 123.87 196.13C123.87 194.75 123.87 187.87 123.87 175.48C125.25 175.48 132.13 175.48 144.52 175.48L144.52 154.84C132.13 154.84 125.25 154.84 123.87 154.84C123.87 154.35 123.87 154.06 123.87 154.01C149.15 139.35 165.16 112.01 165.16 82.58C165.16 37.05 128.12 0 82.58 0C37.05 0 0 37.05 0 82.58C0 112.01 16.01 139.35 41.29 154.01C41.29 154.13 41.29 154.4 41.29 154.84C38.54 154.84 31.66 154.84 20.65 154.84ZM61.94 185.81L61.94 175.48L103.23 175.48L103.23 185.81L61.94 185.81ZM109.11 138.46C105.52 140.18 103.23 143.82 103.23 147.79C103.23 148.26 103.23 150.61 103.23 154.84C99.1 154.84 66.06 154.84 61.94 154.84C61.94 150.61 61.94 148.26 61.94 147.79C61.94 143.81 59.64 140.18 56.05 138.46C34.54 128.25 20.65 106.3 20.65 82.58C20.65 48.43 48.43 20.65 82.58 20.65C116.74 20.65 144.52 48.43 144.52 82.58C144.52 106.3 130.62 128.25 109.11 138.46Z" id="e1aEr4YYKz"></path><path d="M72.26 134.19L72.26 103.23L92.9 103.23L92.9 134.19L113.55 134.19L113.55 103.23L134.19 103.23L134.19 82.58L113.55 82.58L113.55 61.94L92.9 61.94L92.9 82.58L72.26 82.58L72.26 61.94L51.61 61.94L51.61 82.58L30.97 82.58L30.97 103.23L51.61 103.23L51.61 134.19L72.26 134.19Z" id="a3TSfxzRT"></path><path d="M72.26 134.19L72.26 103.23L92.9 103.23L92.9 134.19L113.55 134.19L113.55 103.23L134.19 103.23L134.19 82.58L113.55 82.58L113.55 61.94L92.9 61.94L92.9 82.58L72.26 82.58L72.26 61.94L51.61 61.94L51.61 82.58L30.97 82.58L30.97 103.23L51.61 103.23L51.61 134.19L72.26 134.19Z" id="io7ShiDpV"></path><path d="M495.48 154.84L495.48 175.48C507.87 175.48 514.75 175.48 516.13 175.48C516.13 187.87 516.13 194.75 516.13 196.13C516.13 201.83 520.75 206.45 526.45 206.45C527.83 206.45 534.71 206.45 547.1 206.45C547.1 207.83 547.1 214.71 547.1 227.1L567.74 227.1C567.74 214.71 567.74 207.83 567.74 206.45C580.13 206.45 587.01 206.45 588.39 206.45C594.09 206.45 598.71 201.83 598.71 196.13C598.71 194.75 598.71 187.87 598.71 175.48C600.09 175.48 606.97 175.48 619.35 175.48L619.35 154.84C606.97 154.84 600.09 154.84 598.71 154.84C598.71 154.35 598.71 154.06 598.71 154.01C623.99 139.35 640 112.01 640 82.58C640 37.05 602.95 0 557.42 0C511.88 0 474.84 37.05 474.84 82.58C474.84 112.01 490.85 139.35 516.13 154.01C516.13 154.13 516.13 154.4 516.13 154.84C513.38 154.84 506.49 154.84 495.48 154.84ZM536.77 185.81L536.77 175.48L578.06 175.48L578.06 185.81L536.77 185.81ZM583.95 138.46C580.36 140.18 578.06 143.82 578.06 147.79C578.06 148.26 578.06 150.61 578.06 154.84C573.94 154.84 540.9 154.84 536.77 154.84C536.77 150.61 536.77 148.26 536.77 147.79C536.77 143.81 534.48 140.18 530.89 138.46C509.38 128.25 495.48 106.3 495.48 82.58C495.48 48.43 523.26 20.65 557.42 20.65C591.57 20.65 619.35 48.43 619.35 82.58C619.35 106.3 605.46 128.25 583.95 138.46Z" id="b7uNauzUgu"></path><path d="M495.48 154.84L495.48 175.48C507.87 175.48 514.75 175.48 516.13 175.48C516.13 187.87 516.13 194.75 516.13 196.13C516.13 201.83 520.75 206.45 526.45 206.45C527.83 206.45 534.71 206.45 547.1 206.45C547.1 207.83 547.1 214.71 547.1 227.1L567.74 227.1C567.74 214.71 567.74 207.83 567.74 206.45C580.13 206.45 587.01 206.45 588.39 206.45C594.09 206.45 598.71 201.83 598.71 196.13C598.71 194.75 598.71 187.87 598.71 175.48C600.09 175.48 606.97 175.48 619.35 175.48L619.35 154.84C606.97 154.84 600.09 154.84 598.71 154.84C598.71 154.35 598.71 154.06 598.71 154.01C623.99 139.35 640 112.01 640 82.58C640 37.05 602.95 0 557.42 0C511.88 0 474.84 37.05 474.84 82.58C474.84 112.01 490.85 139.35 516.13 154.01C516.13 154.13 516.13 154.4 516.13 154.84C513.38 154.84 506.49 154.84 495.48 154.84ZM536.77 185.81L536.77 175.48L578.06 175.48L578.06 185.81L536.77 185.81ZM583.95 138.46C580.36 140.18 578.06 143.82 578.06 147.79C578.06 148.26 578.06 150.61 578.06 154.84C573.94 154.84 540.9 154.84 536.77 154.84C536.77 150.61 536.77 148.26 536.77 147.79C536.77 143.81 534.48 140.18 530.89 138.46C509.38 128.25 495.48 106.3 495.48 82.58C495.48 48.43 523.26 20.65 557.42 20.65C591.57 20.65 619.35 48.43 619.35 82.58C619.35 106.3 605.46 128.25 583.95 138.46Z" id="jnnwCx4Mi"></path><path d="M547.1 134.19L547.1 103.23L567.74 103.23L567.74 134.19L588.39 134.19L588.39 103.23L609.03 103.23L609.03 82.58L588.39 82.58L588.39 61.94L567.74 61.94L567.74 82.58L547.1 82.58L547.1 61.94L526.45 61.94L526.45 82.58L505.81 82.58L505.81 103.23L526.45 103.23L526.45 134.19L547.1 134.19Z" id="narF7UmzY"></path><path d="M547.1 134.19L547.1 103.23L567.74 103.23L567.74 134.19L588.39 134.19L588.39 103.23L609.03 103.23L609.03 82.58L588.39 82.58L588.39 61.94L567.74 61.94L567.74 82.58L547.1 82.58L547.1 61.94L526.45 61.94L526.45 82.58L505.81 82.58L505.81 103.23L526.45 103.23L526.45 134.19L547.1 134.19Z" id="c3uZgx1R3"></path><path d="M350.97 82.58C350.97 78.22 350.43 73.88 349.34 69.69C347.34 70.21 331.34 74.31 329.34 74.83C329.99 77.34 330.32 79.96 330.32 82.58C330.32 99.65 316.43 113.55 299.35 113.55C293.16 113.55 243.61 113.55 237.42 113.55C220.35 113.55 206.45 99.65 206.45 82.58C206.45 65.51 220.35 51.61 237.42 51.61C240.86 51.61 258.06 51.61 289.03 51.61C289.03 49.55 289.03 33.03 289.03 30.97C258.06 30.97 240.86 30.97 237.42 30.97C208.95 30.97 185.81 54.12 185.81 82.58C185.81 111.05 208.95 134.19 237.42 134.19C249.81 134.19 293.16 134.19 299.35 134.19C327.82 134.19 350.97 111.05 350.97 82.58Z" id="g6oelpFTji"></path><path d="M350.97 82.58C350.97 78.22 350.43 73.88 349.34 69.69C347.34 70.21 331.34 74.31 329.34 74.83C329.99 77.34 330.32 79.96 330.32 82.58C330.32 99.65 316.43 113.55 299.35 113.55C293.16 113.55 243.61 113.55 237.42 113.55C220.35 113.55 206.45 99.65 206.45 82.58C206.45 65.51 220.35 51.61 237.42 51.61C240.86 51.61 258.06 51.61 289.03 51.61C289.03 49.55 289.03 33.03 289.03 30.97C258.06 30.97 240.86 30.97 237.42 30.97C208.95 30.97 185.81 54.12 185.81 82.58C185.81 111.05 208.95 134.19 237.42 134.19C249.81 134.19 293.16 134.19 299.35 134.19C327.82 134.19 350.97 111.05 350.97 82.58Z" id="clQbLVD7k"></path><path d="M309.68 82.58C309.68 65.51 323.57 51.61 340.65 51.61C346.84 51.61 396.39 51.61 402.58 51.61C419.65 51.61 433.55 65.51 433.55 82.58C433.55 99.65 419.65 113.55 402.58 113.55C399.14 113.55 381.94 113.55 350.97 113.55C350.97 115.61 350.97 132.13 350.97 134.19C381.94 134.19 399.14 134.19 402.58 134.19C431.05 134.19 454.19 111.05 454.19 82.58C454.19 54.12 431.05 30.97 402.58 30.97C396.39 30.97 346.84 30.97 340.65 30.97C312.18 30.97 289.03 54.12 289.03 82.58C289.03 86.94 289.57 91.28 290.66 95.47C294.66 94.45 308.66 90.85 310.66 90.34C310.01 87.82 309.68 85.2 309.68 82.58Z" id="a90k4WqY1"></path><path d="M309.68 82.58C309.68 65.51 323.57 51.61 340.65 51.61C346.84 51.61 396.39 51.61 402.58 51.61C419.65 51.61 433.55 65.51 433.55 82.58C433.55 99.65 419.65 113.55 402.58 113.55C399.14 113.55 381.94 113.55 350.97 113.55C350.97 115.61 350.97 132.13 350.97 134.19C381.94 134.19 399.14 134.19 402.58 134.19C431.05 134.19 454.19 111.05 454.19 82.58C454.19 54.12 431.05 30.97 402.58 30.97C396.39 30.97 346.84 30.97 340.65 30.97C312.18 30.97 289.03 54.12 289.03 82.58C289.03 86.94 289.57 91.28 290.66 95.47C294.66 94.45 308.66 90.85 310.66 90.34C310.01 87.82 309.68 85.2 309.68 82.58Z" id="a18Q3stTck"></path></defs><g><g><g><use xlink:href="#b2niWKdDGn" opacity="1" fill="#ffe831" fill-opacity="1"></use><g><use xlink:href="#b2niWKdDGn" opacity="1" fill-opacity="0" stroke="#000000" stroke-width="1" stroke-opacity="0"></use></g></g><g><use xlink:href="#fmX0Gn6Ok" opacity="1" fill="#000000" fill-opacity="0"></use><g><use xlink:href="#fmX0Gn6Ok" opacity="1" fill-opacity="0" stroke="#000000" stroke-width="1" stroke-opacity="0"></use></g></g><g><use xlink:href="#b2oS607CW2" opacity="1" fill="#ffe831" fill-opacity="1"></use><g><use xlink:href="#b2oS607CW2" opacity="1" fill-opacity="0" stroke="#000000" stroke-width="1" stroke-opacity="0"></use></g></g><g><use xlink:href="#e1aEr4YYKz" opacity="1" fill="#000000" fill-opacity="0"></use><g><use xlink:href="#e1aEr4YYKz" opacity="1" fill-opacity="0" stroke="#000000" stroke-width="1" stroke-opacity="0"></use></g></g><g><use xlink:href="#a3TSfxzRT" opacity="1" fill="#ffe831" fill-opacity="1"></use><g><use xlink:href="#a3TSfxzRT" opacity="1" fill-opacity="0" stroke="#000000" stroke-width="1" stroke-opacity="0"></use></g></g><g><use xlink:href="#io7ShiDpV" opacity="1" fill="#000000" fill-opacity="0"></use><g><use xlink:href="#io7ShiDpV" opacity="1" fill-opacity="0" stroke="#000000" stroke-width="1" stroke-opacity="0"></use></g></g><g><use xlink:href="#b7uNauzUgu" opacity="1" fill="#ffe831" fill-opacity="1"></use><g><use xlink:href="#b7uNauzUgu" opacity="1" fill-opacity="0" stroke="#000000" stroke-width="1" stroke-opacity="0"></use></g></g><g><use xlink:href="#jnnwCx4Mi" opacity="1" fill="#000000" fill-opacity="0"></use><g><use xlink:href="#jnnwCx4Mi" opacity="1" fill-opacity="0" stroke="#000000" stroke-width="1" stroke-opacity="0"></use></g></g><g><use xlink:href="#narF7UmzY" opacity="1" fill="#ffe831" fill-opacity="1"></use><g><use xlink:href="#narF7UmzY" opacity="1" fill-opacity="0" stroke="#000000" stroke-width="1" stroke-opacity="0"></use></g></g><g><use xlink:href="#c3uZgx1R3" opacity="1" fill="#000000" fill-opacity="0"></use><g><use xlink:href="#c3uZgx1R3" opacity="1" fill-opacity="0" stroke="#000000" stroke-width="1" stroke-opacity="0"></use></g></g><g><use xlink:href="#g6oelpFTji" opacity="1" fill="#ffe831" fill-opacity="1"></use><g><use xlink:href="#g6oelpFTji" opacity="1" fill-opacity="0" stroke="#000000" stroke-width="1" stroke-opacity="0"></use></g></g><g><use xlink:href="#clQbLVD7k" opacity="1" fill="#000000" fill-opacity="0"></use><g><use xlink:href="#clQbLVD7k" opacity="1" fill-opacity="0" stroke="#000000" stroke-width="1" stroke-opacity="0"></use></g></g><g><use xlink:href="#a90k4WqY1" opacity="1" fill="#ffe831" fill-opacity="1"></use><g><use xlink:href="#a90k4WqY1" opacity="1" fill-opacity="0" stroke="#000000" stroke-width="1" stroke-opacity="0"></use></g></g><g><use xlink:href="#a18Q3stTck" opacity="1" fill="#000000" fill-opacity="0"></use><g><use xlink:href="#a18Q3stTck" opacity="1" fill-opacity="0" stroke="#000000" stroke-width="1" stroke-opacity="0"></use></g></g></g></g></svg>