<?xml version="1.0" encoding="UTF-8" standalone="no"?>
<!DOCTYPE svg PUBLIC "-//W3C//DTD SVG 1.1//EN" "http://www.w3.org/Graphics/SVG/1.1/DTD/svg11.dtd">
<svg version="1.1" xmlns="http://www.w3.org/2000/svg" xmlns:xlink="http://www.w3.org/1999/xlink" preserveAspectRatio="xMidYMid meet" viewBox="0 0 640 640" width="640" height="640"><defs><path d="M443.8 344C444.22 344 447.58 344 448 344C465.65 344 480 329.65 480 312C480 300.21 473.52 290 464 284.45C464 280.8 464 251.64 464 248C464 212.71 435.29 184 400 184C395.2 184 356.8 184 352 184C316.71 184 288 212.71 288 248C288 251.64 288 280.8 288 284.45C278.48 290 272 300.21 272 312C272 329.65 286.35 344 304 344C304.42 344 307.78 344 308.2 344C312.74 356.79 320.76 367.93 331.17 376.25C297.73 378.08 269.25 398.58 256 427.56C242.74 398.59 214.26 378.08 180.83 376.25C191.24 367.94 199.26 356.79 203.8 344C204.22 344 207.58 344 208 344C225.65 344 240 329.65 240 312C240 300.21 233.52 290 224 284.45C224 280.8 224 251.64 224 248C224 212.71 195.29 184 160 184C155.2 184 116.8 184 112 184C76.71 184 48 212.71 48 248C48 251.64 48 280.8 48 284.45C38.48 290 32 300.21 32 312C32 329.65 46.35 344 64 344C64.42 344 67.78 344 68.2 344C72.74 356.79 80.76 367.93 91.17 376.25C44.9 378.78 8 417.1 8 464C8 467.2 8 492.8 8 496C8 500.42 11.58 504 16 504C32 504 112 504 256 504C400 504 480 504 496 504C500.42 504 504 500.42 504 496C504 492.8 504 467.2 504 464C504 417.1 467.1 378.78 420.83 376.25C431.24 367.94 439.26 356.79 443.8 344ZM340.15 392L365.28 423.41L340.92 447.77C334.26 414.49 330.56 396 329.82 392.3C331.86 392.14 333.91 392 336 392C336.55 392 337.94 392 340.15 392ZM391.35 392L376 411.19L360.65 392L391.35 392ZM411.85 392C414.34 392 415.72 392 416 392C418.09 392 420.14 392.14 422.18 392.31C421.44 396.01 417.74 414.5 411.08 447.78L386.72 423.42L411.85 392ZM447.53 328C447.82 325.37 448 322.7 448 320C448 317.6 448 298.4 448 296C456.82 296 464 303.18 464 312C464 320.82 456.82 328 448 328C447.91 328 447.58 328 447.53 328ZM304 248C304 221.53 325.53 200 352 200C356.8 200 395.2 200 400 200C426.47 200 448 221.53 448 248C448 250.13 448 260.8 448 280L440 280C425.6 280 417.6 280 416 280C407.18 280 400 272.82 400 264C400 262.4 400 254.4 400 240L400 232L384 232C384 236.8 384 239.47 384 240C384 262.06 366.06 280 344 280C341.87 280 331.2 280 312 280L304 280C304 262.93 304 252.27 304 248ZM304 328C295.18 328 288 320.82 288 312C288 303.18 295.18 296 304 296C304 298.4 304 317.6 304 320C304 322.7 304.18 325.37 304.47 328C304.38 328 304.09 328 304 328ZM320 296C334.4 296 342.4 296 344 296C360.99 296 376.22 288.36 386.5 276.37C391.34 287.89 402.74 296 416 296C417.07 296 422.4 296 432 296C432 310.4 432 318.4 432 320C432 350.87 406.87 376 376 376C345.13 376 320 350.87 320 320C320 316.8 320 308.8 320 296ZM100.15 392L125.28 423.41L100.92 447.77C94.26 414.49 90.56 396 89.82 392.3C91.86 392.14 93.91 392 96 392C96.55 392 97.94 392 100.15 392ZM151.35 392L136 411.19L120.65 392L151.35 392ZM171.85 392C174.34 392 175.72 392 176 392C178.09 392 180.14 392.14 182.18 392.31C181.44 396.01 177.74 414.5 171.08 447.78L146.72 423.42L171.85 392ZM207.53 328C207.82 325.37 208 322.7 208 320C208 317.6 208 298.4 208 296C216.82 296 224 303.18 224 312C224 320.82 216.82 328 208 328C207.91 328 207.58 328 207.53 328ZM64 248C64 221.53 85.53 200 112 200C116.8 200 155.2 200 160 200C186.47 200 208 221.53 208 248C208 250.13 208 260.8 208 280L200 280C185.6 280 177.6 280 176 280C167.18 280 160 272.82 160 264C160 262.4 160 254.4 160 240L160 232L144 232C144 236.8 144 239.47 144 240C144 262.06 126.06 280 104 280C101.87 280 91.2 280 72 280L64 280C64 262.93 64 252.27 64 248ZM64 328C55.18 328 48 320.82 48 312C48 303.18 55.18 296 64 296C64 298.4 64 317.6 64 320C64 322.7 64.18 325.37 64.47 328C64.38 328 64.09 328 64 328ZM80 296C94.4 296 102.4 296 104 296C120.99 296 136.22 288.36 146.5 276.37C151.34 287.89 162.74 296 176 296C177.07 296 182.4 296 192 296C192 310.4 192 318.4 192 320C192 350.87 166.87 376 136 376C105.13 376 80 350.87 80 320C80 316.8 80 308.8 80 296ZM24 464C24 431.92 45.09 404.7 74.13 395.42C75.53 402.44 86.76 458.56 88.16 465.58C88.74 468.46 90.86 470.81 93.68 471.66C94.45 471.89 95.22 472 96 472C98.1 472 100.14 471.18 101.66 469.66C103.95 467.37 115.39 455.92 136 435.31C156.61 455.92 168.05 467.37 170.34 469.66C171.86 471.18 173.9 472 176 472C176.78 472 177.55 471.89 178.32 471.66C181.14 470.81 183.26 468.46 183.84 465.57C185.24 458.55 196.47 402.43 197.87 395.42C226.91 404.7 248 431.92 248 464C248 465.6 248 473.6 248 488L24 488C24 475.2 24 467.2 24 464ZM488 488L264 488C264 473.6 264 465.6 264 464C264 431.92 285.09 404.7 314.13 395.42C315.53 402.44 326.76 458.56 328.16 465.58C328.74 468.46 330.86 470.81 333.68 471.66C334.45 471.89 335.22 472 336 472C338.1 472 340.14 471.18 341.66 469.66C343.95 467.37 355.39 455.92 376 435.31C396.61 455.92 408.05 467.37 410.34 469.66C411.86 471.18 413.9 472 416 472C416.78 472 417.55 471.89 418.32 471.66C421.14 470.81 423.26 468.46 423.84 465.57C425.24 458.55 436.47 402.43 437.87 395.42C466.91 404.7 488 431.92 488 464C488 467.2 488 475.2 488 488Z" id="aJokzbQ0m"></path><path d="M40 128L24 128L24 144L40 144C40 153.6 40 158.93 40 160C40 164.42 43.58 168 48 168C49.07 168 54.4 168 64 168L64 184L80 184L80 168C89.6 168 94.93 168 96 168C100.42 168 104 164.42 104 160C104 158.93 104 153.6 104 144L120 144L120 128L104 128C104 127.62 104 127.4 104 127.36C123.59 116 136 94.81 136 72C136 36.71 107.29 8 72 8C36.71 8 8 36.71 8 72C8 94.81 20.41 116 40 127.36C40 127.45 40 127.66 40 128ZM88 152L56 152L56 144L88 144L88 152ZM120 72C120 90.38 109.23 107.39 92.56 115.31C89.78 116.64 88 119.46 88 122.54C88 122.9 88 124.72 88 128L56 128C56 124.72 56 122.9 56 122.54C56 119.45 54.22 116.64 51.44 115.31C34.77 107.39 24 90.38 24 72C24 45.53 45.53 24 72 24C98.47 24 120 45.53 120 72Z" id="ahsLon14L"></path><path d="M48 112L64 112L64 88L80 88L80 112L96 112L96 88L112 88L112 72L96 72L96 56L80 56L80 72L64 72L64 56L48 56L48 72L32 72L32 88L48 88L48 112Z" id="byBJkP3hH"></path><path d="M408 128L392 128L392 144L408 144C408 153.6 408 158.93 408 160C408 164.42 411.58 168 416 168C417.07 168 422.4 168 432 168L432 184L448 184L448 168C457.6 168 462.93 168 464 168C468.42 168 472 164.42 472 160C472 158.93 472 153.6 472 144L488 144L488 128L472 128C472 127.62 472 127.4 472 127.36C491.59 116 504 94.81 504 72C504 36.71 475.29 8 440 8C404.71 8 376 36.71 376 72C376 94.81 388.41 116 408 127.36C408 127.45 408 127.66 408 128ZM456 152L424 152L424 144L456 144L456 152ZM488 72C488 90.38 477.23 107.39 460.56 115.31C457.78 116.64 456 119.46 456 122.54C456 122.9 456 124.72 456 128L424 128C424 124.72 424 122.9 424 122.54C424 119.45 422.22 116.64 419.44 115.31C402.77 107.39 392 90.38 392 72C392 45.53 413.53 24 440 24C466.47 24 488 45.53 488 72Z" id="e15w8UufQr"></path><path d="M416 112L432 112L432 88L448 88L448 112L464 112L464 88L480 88L480 72L464 72L464 56L448 56L448 72L432 72L432 56L416 56L416 72L400 72L400 88L416 88L416 112Z" id="d4vtsbYsZe"></path><path d="M240 112C262.06 112 280 94.06 280 72C280 68.62 279.58 65.26 278.74 62.01C277.19 62.41 264.79 65.59 263.24 65.99C263.74 67.94 264 69.97 264 72C264 85.23 253.23 96 240 96C235.2 96 196.8 96 192 96C178.77 96 168 85.23 168 72C168 58.77 178.77 48 192 48C194.67 48 208 48 232 48L232 32C208 32 194.67 32 192 32C169.94 32 152 49.94 152 72C152 94.06 169.94 112 192 112C201.6 112 235.2 112 240 112Z" id="a1s1MdZ6N"></path><path d="M248.76 78.01C248.26 76.06 248 74.03 248 72C248 58.77 258.77 48 272 48C276.8 48 315.2 48 320 48C333.23 48 344 58.77 344 72C344 85.23 333.23 96 320 96C317.33 96 304 96 280 96L280 112C304 112 317.33 112 320 112C342.06 112 360 94.06 360 72C360 49.94 342.06 32 320 32C315.2 32 276.8 32 272 32C249.94 32 232 49.94 232 72C232 75.38 232.42 78.74 233.26 81.99C236.36 81.2 247.21 78.41 248.76 78.01Z" id="aAx2eZhD3"></path></defs><g><g><g><use xlink:href="#aJokzbQ0m" opacity="1" fill="#ffe831" fill-opacity="1"></use><g><use xlink:href="#aJokzbQ0m" opacity="1" fill-opacity="0" stroke="#000000" stroke-width="1" stroke-opacity="0"></use></g></g><g><use xlink:href="#ahsLon14L" opacity="1" fill="#ffe831" fill-opacity="1"></use><g><use xlink:href="#ahsLon14L" opacity="1" fill-opacity="0" stroke="#000000" stroke-width="1" stroke-opacity="0"></use></g></g><g><use xlink:href="#byBJkP3hH" opacity="1" fill="#ffe831" fill-opacity="1"></use><g><use xlink:href="#byBJkP3hH" opacity="1" fill-opacity="0" stroke="#000000" stroke-width="1" stroke-opacity="0"></use></g></g><g><use xlink:href="#e15w8UufQr" opacity="1" fill="#ffe831" fill-opacity="1"></use><g><use xlink:href="#e15w8UufQr" opacity="1" fill-opacity="0" stroke="#000000" stroke-width="1" stroke-opacity="0"></use></g></g><g><use xlink:href="#d4vtsbYsZe" opacity="1" fill="#ffe831" fill-opacity="1"></use><g><use xlink:href="#d4vtsbYsZe" opacity="1" fill-opacity="0" stroke="#000000" stroke-width="1" stroke-opacity="0"></use></g></g><g><use xlink:href="#a1s1MdZ6N" opacity="1" fill="#ffe831" fill-opacity="1"></use><g><use xlink:href="#a1s1MdZ6N" opacity="1" fill-opacity="0" stroke="#000000" stroke-width="1" stroke-opacity="0"></use></g></g><g><use xlink:href="#aAx2eZhD3" opacity="1" fill="#ffe831" fill-opacity="1"></use><g><use xlink:href="#aAx2eZhD3" opacity="1" fill-opacity="0" stroke="#000000" stroke-width="1" stroke-opacity="0"></use></g></g></g></g></svg>