<?xml version="1.0" encoding="UTF-8" standalone="no"?>
<!DOCTYPE svg PUBLIC "-//W3C//DTD SVG 1.1//EN" "http://www.w3.org/Graphics/SVG/1.1/DTD/svg11.dtd">
<svg version="1.1" xmlns="http://www.w3.org/2000/svg" xmlns:xlink="http://www.w3.org/1999/xlink" preserveAspectRatio="xMidYMid meet" viewBox="0 0 640 640" width="640" height="640"><defs><path d="M565.33 384C559.44 384 554.67 388.78 554.67 394.67C551.47 394.67 525.87 394.67 522.67 394.67C516.78 394.67 512 399.44 512 405.33C512 405.46 512 406.1 512 407.25L468.79 415.89C403.28 409.56 366.88 406.04 359.61 405.33C356.97 405.08 354.34 405.81 352.22 407.39C350.74 408.5 343.3 414.04 329.92 424.02C314.72 413.88 306.28 408.25 304.59 407.13C302.57 405.76 300.14 405.13 297.71 405.33C289.98 406.04 251.32 409.55 181.74 415.88L128 406.97C128 405.99 128 405.44 128 405.33C128 399.44 123.22 394.67 117.33 394.67C114.13 394.67 88.53 394.67 85.33 394.67C85.33 388.78 80.56 384 74.67 384C68.27 384 17.07 384 10.67 384C4.78 384 0 388.78 0 394.67C0 413.87 0 567.47 0 586.67C0 592.56 4.78 597.33 10.67 597.33C17.07 597.33 68.27 597.33 74.67 597.33C80.56 597.33 85.33 592.56 85.33 586.67C88.53 586.67 114.13 586.67 117.33 586.67C123.22 586.67 128 581.89 128 576C130.71 576 144.25 576 168.62 576C263.47 613.95 316.16 635.03 326.7 639.24C328.86 640.1 331.23 640.23 333.47 639.63C345.21 636.43 439.07 610.83 450.81 607.63C456.41 606.16 459.77 600.42 458.3 594.81C458.27 594.71 458.24 594.6 458.21 594.5C463.65 592.97 507.17 580.75 512.61 579.22C513.97 583.64 518.05 586.66 522.67 586.67C525.87 586.67 551.47 586.67 554.67 586.67C554.67 592.56 559.44 597.33 565.33 597.33C571.73 597.33 622.93 597.33 629.33 597.33C635.22 597.33 640 592.56 640 586.67C640 567.47 640 413.87 640 394.67C640 388.78 635.22 384 629.33 384C616.53 384 571.73 384 565.33 384ZM21.33 576L21.33 405.33L64 405.33L64 576L21.33 576ZM85.33 565.33L85.33 416L106.67 416L106.67 565.33L85.33 565.33ZM174.63 555.42C173.37 554.92 172.03 554.67 170.67 554.67C167.82 554.67 153.6 554.67 128 554.67L128 428.59C158.94 433.75 176.14 436.61 179.57 437.18C180.47 437.33 181.39 437.37 182.29 437.29C189.87 436.6 227.73 433.16 295.88 426.97L311.74 437.54C294.46 450.38 284.86 457.52 282.94 458.94C266.13 470.03 261.47 492.64 272.56 509.46C279.32 519.73 290.8 525.9 303.09 525.87C310.54 525.85 317.82 523.63 324 519.47C324.41 519.16 326.48 517.6 330.21 514.79L425.23 592.53L331.31 618.1C237.3 580.49 185.08 559.6 174.63 555.42ZM440.32 577.33L347.73 501.53L365 488.53L352.2 471.47C327.88 489.79 314.37 499.97 311.67 502.01C304.68 506.67 295.24 504.79 290.57 497.8C288.61 494.87 287.74 491.36 288.09 487.85C288.59 483.13 291.22 478.9 295.23 476.37C299.66 473.08 321.8 456.63 361.65 427.01C425.62 433.2 461.16 436.64 468.27 437.33C469.31 437.43 470.36 437.37 471.38 437.16C474.08 436.62 487.59 433.92 511.91 429.06L511.91 557.25L440.32 577.33ZM533.33 565.33L533.33 416L554.67 416L554.67 565.33L533.33 565.33ZM576 576L576 405.33L618.67 405.33L618.67 576L576 576Z" id="csGVySgOH"></path><path d="M164.26 587.52C164.26 587.52 164.26 587.52 164.26 587.52C209.06 606.73 233.95 617.4 238.93 619.53C238.93 619.53 238.93 619.53 238.93 619.53C233.88 631.3 231.08 637.83 230.52 639.14C230.52 639.14 230.52 639.14 230.52 639.14C185.72 619.93 160.83 609.26 155.86 607.12C155.86 607.12 155.86 607.12 155.86 607.12C160.9 595.36 163.7 588.82 164.26 587.52Z" id="a55t0j3Inl"></path><path d="M149.33 149.33C149.33 110.93 149.33 89.6 149.33 85.33C149.33 79.44 144.56 74.67 138.67 74.67C136.53 74.67 125.87 74.67 106.67 74.67C106.67 49.07 106.67 34.84 106.67 32C106.67 26.11 101.89 21.33 96 21.33C95.29 21.33 91.73 21.33 85.33 21.33L85.33 0L64 0L64 21.33C57.6 21.33 54.04 21.33 53.33 21.33C47.44 21.33 42.67 26.11 42.67 32C42.67 34.84 42.67 49.07 42.67 74.67C23.47 74.67 12.8 74.67 10.67 74.67C4.78 74.67 0 79.44 0 85.33C0 112 0 325.33 0 352C0 357.89 4.78 362.67 10.67 362.67C34.13 362.67 221.87 362.67 245.33 362.67C251.22 362.67 256 357.89 256 352C256 332.8 256 179.2 256 160C256 154.11 251.22 149.33 245.33 149.33C232.53 149.33 200.53 149.33 149.33 149.33ZM85.33 42.67L85.33 74.67L64 74.67L64 42.67L85.33 42.67ZM21.33 341.33L21.33 96L128 96L128 341.33L21.33 341.33ZM213.33 192L213.33 213.33L234.67 213.33L234.67 234.67L213.33 234.67L213.33 256L234.67 256L234.67 341.33L149.33 341.33L149.33 170.67L234.67 170.67L234.67 192L213.33 192Z" id="a2Oy45pla"></path><path d="M64 160C64 160 64 160 64 160C64 172.8 64 179.91 64 181.33C64 181.33 64 181.33 64 181.33C51.2 181.33 44.09 181.33 42.67 181.33C42.67 181.33 42.67 181.33 42.67 181.33C42.67 168.53 42.67 161.42 42.67 160C42.67 160 42.67 160 42.67 160C55.47 160 62.58 160 64 160Z" id="c4fEoncznZ"></path><path d="M106.67 160C106.67 160 106.67 160 106.67 160C106.67 172.8 106.67 179.91 106.67 181.33C106.67 181.33 106.67 181.33 106.67 181.33C93.87 181.33 86.76 181.33 85.33 181.33C85.33 181.33 85.33 181.33 85.33 181.33C85.33 168.53 85.33 161.42 85.33 160C85.33 160 85.33 160 85.33 160C98.13 160 105.24 160 106.67 160Z" id="a9pjlND124"></path><path d="M64 202.67C64 202.67 64 202.67 64 202.67C64 215.47 64 222.58 64 224C64 224 64 224 64 224C51.2 224 44.09 224 42.67 224C42.67 224 42.67 224 42.67 224C42.67 211.2 42.67 204.09 42.67 202.67C42.67 202.67 42.67 202.67 42.67 202.67C55.47 202.67 62.58 202.67 64 202.67Z" id="co0VZ9DWw"></path><path d="M106.67 202.67C106.67 202.67 106.67 202.67 106.67 202.67C106.67 215.47 106.67 222.58 106.67 224C106.67 224 106.67 224 106.67 224C93.87 224 86.76 224 85.33 224C85.33 224 85.33 224 85.33 224C85.33 211.2 85.33 204.09 85.33 202.67C85.33 202.67 85.33 202.67 85.33 202.67C98.13 202.67 105.24 202.67 106.67 202.67Z" id="c2Ifkeo2yK"></path><path d="M64 245.33C64 245.33 64 245.33 64 245.33C64 258.13 64 265.24 64 266.67C64 266.67 64 266.67 64 266.67C51.2 266.67 44.09 266.67 42.67 266.67C42.67 266.67 42.67 266.67 42.67 266.67C42.67 253.87 42.67 246.76 42.67 245.33C42.67 245.33 42.67 245.33 42.67 245.33C55.47 245.33 62.58 245.33 64 245.33Z" id="asuyR9AX3"></path><path d="M192 192C192 192 192 192 192 192C192 204.8 192 211.91 192 213.33C192 213.33 192 213.33 192 213.33C179.2 213.33 172.09 213.33 170.67 213.33C170.67 213.33 170.67 213.33 170.67 213.33C170.67 200.53 170.67 193.42 170.67 192C170.67 192 170.67 192 170.67 192C183.47 192 190.58 192 192 192Z" id="d3qWOMfLL"></path><path d="M192 234.67C192 234.67 192 234.67 192 234.67C192 247.47 192 254.58 192 256C192 256 192 256 192 256C179.2 256 172.09 256 170.67 256C170.67 256 170.67 256 170.67 256C170.67 243.2 170.67 236.09 170.67 234.67C170.67 234.67 170.67 234.67 170.67 234.67C183.47 234.67 190.58 234.67 192 234.67Z" id="a6J1rIKKF"></path><path d="M64 117.33C64 117.33 64 117.33 64 117.33C64 130.13 64 137.24 64 138.67C64 138.67 64 138.67 64 138.67C51.2 138.67 44.09 138.67 42.67 138.67C42.67 138.67 42.67 138.67 42.67 138.67C42.67 125.87 42.67 118.76 42.67 117.33C42.67 117.33 42.67 117.33 42.67 117.33C55.47 117.33 62.58 117.33 64 117.33Z" id="fr3LRk8Pp"></path><path d="M106.67 117.33C106.67 117.33 106.67 117.33 106.67 117.33C106.67 130.13 106.67 137.24 106.67 138.67C106.67 138.67 106.67 138.67 106.67 138.67C93.87 138.67 86.76 138.67 85.33 138.67C85.33 138.67 85.33 138.67 85.33 138.67C85.33 125.87 85.33 118.76 85.33 117.33C85.33 117.33 85.33 117.33 85.33 117.33C98.13 117.33 105.24 117.33 106.67 117.33Z" id="bmb5gVIwh"></path><path d="M458.67 16C458.67 24.84 451.5 32 442.67 32C422.05 32 405.33 48.71 405.33 69.33C405.33 70.4 405.33 75.73 405.33 85.33L426.67 85.33C426.67 75.73 426.67 70.4 426.67 69.33C426.67 60.5 433.83 53.33 442.67 53.33C463.29 53.33 480 36.62 480 16C480 14.93 480 9.6 480 0L458.67 0C458.67 9.6 458.67 14.93 458.67 16Z" id="f1zR9MutR9"></path><path d="M561.61 173.24C557.14 169.4 550.41 169.92 546.57 174.39C544.91 176.32 544 178.79 544 181.33C544 182.83 544 190.34 544 203.85C522.57 185.48 510.66 175.28 508.28 173.24C503.81 169.4 497.07 169.92 493.24 174.39C491.58 176.32 490.67 178.79 490.67 181.33C490.67 184.89 490.67 202.67 490.67 234.67L469.33 234.67L469.33 128L480 128L480 106.67C475.38 106.67 472.81 106.67 472.3 106.67C476.08 100.09 483.08 96.02 490.67 96C520.11 95.97 543.97 72.11 544 42.67C544 41.24 544 34.13 544 21.33L522.67 21.33C522.67 34.13 522.67 41.24 522.67 42.67C522.67 60.34 508.34 74.67 490.67 74.67C471.27 74.74 454.36 87.89 449.51 106.67C445.86 106.67 427.58 106.67 394.67 106.67L394.67 128L405.33 128L405.33 234.67C398.93 234.67 395.38 234.67 394.67 234.67C388.78 234.67 384 239.44 384 245.33C384 256 384 341.33 384 352C384 357.89 388.78 362.67 394.67 362.67C418.13 362.67 605.87 362.67 629.33 362.67C635.22 362.67 640 357.89 640 352C640 341.33 640 256 640 245.33C640 242.22 638.64 239.26 636.28 237.24C621.34 224.44 569.08 179.64 561.61 173.24ZM448 128L448 234.67L426.67 234.67L426.67 128L448 128ZM405.33 341.33L405.33 256C462.93 256 494.93 256 501.33 256C507.22 256 512 251.22 512 245.33C512 242.61 512 229.01 512 204.52C533.43 222.9 545.34 233.11 547.72 235.15C552.19 238.98 558.93 238.47 562.76 233.99C564.42 232.06 565.33 229.6 565.33 227.05C565.33 225.55 565.33 218.04 565.33 204.52L618.67 250.24L618.67 341.33L405.33 341.33Z" id="c1DiLK7jOu"></path><path d="M554.67 298.67C554.67 298.67 554.67 298.67 554.67 298.67C554.67 311.47 554.67 318.58 554.67 320C554.67 320 554.67 320 554.67 320C541.87 320 534.76 320 533.33 320C533.33 320 533.33 320 533.33 320C533.33 307.2 533.33 300.09 533.33 298.67C533.33 298.67 533.33 298.67 533.33 298.67C546.13 298.67 553.24 298.67 554.67 298.67Z" id="dsNFzfpki"></path><path d="M597.33 298.67C597.33 298.67 597.33 298.67 597.33 298.67C597.33 311.47 597.33 318.58 597.33 320C597.33 320 597.33 320 597.33 320C584.53 320 577.42 320 576 320C576 320 576 320 576 320C576 307.2 576 300.09 576 298.67C576 298.67 576 298.67 576 298.67C588.8 298.67 595.91 298.67 597.33 298.67Z" id="d1m2Pke8Tj"></path><path d="M554.67 256C554.67 256 554.67 256 554.67 256C554.67 268.8 554.67 275.91 554.67 277.33C554.67 277.33 554.67 277.33 554.67 277.33C541.87 277.33 534.76 277.33 533.33 277.33C533.33 277.33 533.33 277.33 533.33 277.33C533.33 264.53 533.33 257.42 533.33 256C533.33 256 533.33 256 533.33 256C546.13 256 553.24 256 554.67 256Z" id="b1gH3I5dzE"></path><path d="M597.33 256C597.33 256 597.33 256 597.33 256C597.33 268.8 597.33 275.91 597.33 277.33C597.33 277.33 597.33 277.33 597.33 277.33C584.53 277.33 577.42 277.33 576 277.33C576 277.33 576 277.33 576 277.33C576 264.53 576 257.42 576 256C576 256 576 256 576 256C588.8 256 595.91 256 597.33 256Z" id="d10JLdEkX"></path><path d="M448 277.33C448 277.33 448 277.33 448 277.33C448 290.13 448 297.24 448 298.67C448 298.67 448 298.67 448 298.67C435.2 298.67 428.09 298.67 426.67 298.67C426.67 298.67 426.67 298.67 426.67 298.67C426.67 285.87 426.67 278.76 426.67 277.33C426.67 277.33 426.67 277.33 426.67 277.33C439.47 277.33 446.58 277.33 448 277.33Z" id="adnyeR9yU"></path><path d="M490.67 277.33C490.67 277.33 490.67 277.33 490.67 277.33C490.67 290.13 490.67 297.24 490.67 298.67C490.67 298.67 490.67 298.67 490.67 298.67C477.87 298.67 470.76 298.67 469.33 298.67C469.33 298.67 469.33 298.67 469.33 298.67C469.33 285.87 469.33 278.76 469.33 277.33C469.33 277.33 469.33 277.33 469.33 277.33C482.13 277.33 489.24 277.33 490.67 277.33Z" id="drfh84LEs"></path><path d="M330.67 245.33L309.33 245.33L309.33 266.67L288 266.67L288 288L309.33 288L309.33 309.33L330.67 309.33L330.67 288L352 288L352 266.67L330.67 266.67L330.67 245.33Z" id="a3dXRVWwsF"></path></defs><g><g><g><use xlink:href="#csGVySgOH" opacity="1" fill="#ffe831" fill-opacity="1"></use><g><use xlink:href="#csGVySgOH" opacity="1" fill-opacity="0" stroke="#000000" stroke-width="1" stroke-opacity="0"></use></g></g><g><use xlink:href="#a55t0j3Inl" opacity="1" fill="#ffe831" fill-opacity="1"></use><g><use xlink:href="#a55t0j3Inl" opacity="1" fill-opacity="0" stroke="#000000" stroke-width="1" stroke-opacity="0"></use></g></g><g><use xlink:href="#a2Oy45pla" opacity="1" fill="#ffe831" fill-opacity="1"></use><g><use xlink:href="#a2Oy45pla" opacity="1" fill-opacity="0" stroke="#000000" stroke-width="1" stroke-opacity="0"></use></g></g><g><use xlink:href="#c4fEoncznZ" opacity="1" fill="#ffe831" fill-opacity="1"></use><g><use xlink:href="#c4fEoncznZ" opacity="1" fill-opacity="0" stroke="#000000" stroke-width="1" stroke-opacity="0"></use></g></g><g><use xlink:href="#a9pjlND124" opacity="1" fill="#ffe831" fill-opacity="1"></use><g><use xlink:href="#a9pjlND124" opacity="1" fill-opacity="0" stroke="#000000" stroke-width="1" stroke-opacity="0"></use></g></g><g><use xlink:href="#co0VZ9DWw" opacity="1" fill="#ffe831" fill-opacity="1"></use><g><use xlink:href="#co0VZ9DWw" opacity="1" fill-opacity="0" stroke="#000000" stroke-width="1" stroke-opacity="0"></use></g></g><g><use xlink:href="#c2Ifkeo2yK" opacity="1" fill="#ffe831" fill-opacity="1"></use><g><use xlink:href="#c2Ifkeo2yK" opacity="1" fill-opacity="0" stroke="#000000" stroke-width="1" stroke-opacity="0"></use></g></g><g><use xlink:href="#asuyR9AX3" opacity="1" fill="#ffe831" fill-opacity="1"></use><g><use xlink:href="#asuyR9AX3" opacity="1" fill-opacity="0" stroke="#000000" stroke-width="1" stroke-opacity="0"></use></g></g><g><use xlink:href="#d3qWOMfLL" opacity="1" fill="#ffe831" fill-opacity="1"></use><g><use xlink:href="#d3qWOMfLL" opacity="1" fill-opacity="0" stroke="#000000" stroke-width="1" stroke-opacity="0"></use></g></g><g><use xlink:href="#a6J1rIKKF" opacity="1" fill="#ffe831" fill-opacity="1"></use><g><use xlink:href="#a6J1rIKKF" opacity="1" fill-opacity="0" stroke="#000000" stroke-width="1" stroke-opacity="0"></use></g></g><g><use xlink:href="#fr3LRk8Pp" opacity="1" fill="#ffe831" fill-opacity="1"></use><g><use xlink:href="#fr3LRk8Pp" opacity="1" fill-opacity="0" stroke="#000000" stroke-width="1" stroke-opacity="0"></use></g></g><g><use xlink:href="#bmb5gVIwh" opacity="1" fill="#ffe831" fill-opacity="1"></use><g><use xlink:href="#bmb5gVIwh" opacity="1" fill-opacity="0" stroke="#000000" stroke-width="1" stroke-opacity="0"></use></g></g><g><use xlink:href="#f1zR9MutR9" opacity="1" fill="#ffe831" fill-opacity="1"></use><g><use xlink:href="#f1zR9MutR9" opacity="1" fill-opacity="0" stroke="#000000" stroke-width="1" stroke-opacity="0"></use></g></g><g><use xlink:href="#c1DiLK7jOu" opacity="1" fill="#ffe831" fill-opacity="1"></use><g><use xlink:href="#c1DiLK7jOu" opacity="1" fill-opacity="0" stroke="#000000" stroke-width="1" stroke-opacity="0"></use></g></g><g><use xlink:href="#dsNFzfpki" opacity="1" fill="#ffe831" fill-opacity="1"></use><g><use xlink:href="#dsNFzfpki" opacity="1" fill-opacity="0" stroke="#000000" stroke-width="1" stroke-opacity="0"></use></g></g><g><use xlink:href="#d1m2Pke8Tj" opacity="1" fill="#ffe831" fill-opacity="1"></use><g><use xlink:href="#d1m2Pke8Tj" opacity="1" fill-opacity="0" stroke="#000000" stroke-width="1" stroke-opacity="0"></use></g></g><g><use xlink:href="#b1gH3I5dzE" opacity="1" fill="#ffe831" fill-opacity="1"></use><g><use xlink:href="#b1gH3I5dzE" opacity="1" fill-opacity="0" stroke="#000000" stroke-width="1" stroke-opacity="0"></use></g></g><g><use xlink:href="#d10JLdEkX" opacity="1" fill="#ffe831" fill-opacity="1"></use><g><use xlink:href="#d10JLdEkX" opacity="1" fill-opacity="0" stroke="#000000" stroke-width="1" stroke-opacity="0"></use></g></g><g><use xlink:href="#adnyeR9yU" opacity="1" fill="#ffe831" fill-opacity="1"></use><g><use xlink:href="#adnyeR9yU" opacity="1" fill-opacity="0" stroke="#000000" stroke-width="1" stroke-opacity="0"></use></g></g><g><use xlink:href="#drfh84LEs" opacity="1" fill="#ffe831" fill-opacity="1"></use><g><use xlink:href="#drfh84LEs" opacity="1" fill-opacity="0" stroke="#000000" stroke-width="1" stroke-opacity="0"></use></g></g><g><use xlink:href="#a3dXRVWwsF" opacity="1" fill="#ffe831" fill-opacity="1"></use><g><use xlink:href="#a3dXRVWwsF" opacity="1" fill-opacity="0" stroke="#000000" stroke-width="1" stroke-opacity="0"></use></g></g></g></g></svg>