<?xml version="1.0" encoding="UTF-8" standalone="no"?>
<!DOCTYPE svg PUBLIC "-//W3C//DTD SVG 1.1//EN" "http://www.w3.org/Graphics/SVG/1.1/DTD/svg11.dtd">
<svg version="1.1" xmlns="http://www.w3.org/2000/svg" xmlns:xlink="http://www.w3.org/1999/xlink" preserveAspectRatio="xMidYMid meet" viewBox="0 0 640 640" width="640" height="640"><defs><path d="M494.24 277.37C494.2 277.39 494.15 277.41 494.11 277.44C493.46 277.79 488.26 280.64 487.61 280.99C473.01 268.86 452.09 266.61 436.17 275.93C434.02 277.12 423.26 283.06 403.91 293.75C378.16 293.75 363.86 293.75 361 293.75C351.67 293.73 342.46 291.59 334.08 287.48C333.49 287.19 328.78 284.88 328.19 284.59C294.13 267.74 253.45 271.78 223.37 294.98C223.23 295.08 223.11 295.19 222.98 295.3C221.56 296.58 210.19 306.87 208.76 308.15C203.28 313.12 196.76 316.79 189.67 318.9C188.85 316.17 182.28 294.28 181.46 291.54C180.69 289 178.36 287.27 175.71 287.27C168.83 287.27 113.81 287.27 106.93 287.27C103.62 287.27 100.93 289.95 100.93 293.27C100.93 293.51 100.94 293.74 100.97 293.98C103.27 313.07 121.61 465.81 123.9 484.91C124.26 487.92 126.82 490.19 129.86 490.19C140.17 490.19 222.71 490.19 233.02 490.19C236.34 490.19 239.02 487.5 239.02 484.19C239.02 483.61 238.94 483.02 238.77 482.47C237.86 479.43 233.3 464.24 225.09 436.89C250.61 420.5 264.79 411.39 267.63 409.57C273.34 406.36 280.06 405.47 286.41 407.1C286.53 407.13 286.66 407.16 286.79 407.18C338.31 416.82 366.93 422.17 372.65 423.24C395.93 427.47 419.95 424.02 441.11 413.42C441.36 413.3 441.61 413.15 441.85 412.99C456.7 402.63 575.51 319.78 590.36 309.43C592.94 307.63 593.69 304.15 592.09 301.45C581.15 282.69 557.25 276.07 538.22 286.52C537.66 286.82 535.72 287.88 535.44 288.04C525.36 275.39 507.68 270.45 494.24 277.37ZM524.68 293.93C520.88 296.01 501.88 306.42 467.69 325.15C465.49 326.34 464.26 326.99 464.02 327.12C462.19 321.66 459.42 316.57 455.83 312.06C464.62 307.25 491 292.82 499.79 288.01C507.52 284.07 517.99 286.87 524.68 293.93ZM442.18 286.32C452.42 280.29 465.6 280.93 475.97 287.36C473.06 288.95 449.73 301.72 446.81 303.31C441 298.96 434.28 295.99 427.15 294.61C429.14 293.52 434.1 290.78 442.04 286.4C442.12 286.35 442.17 286.32 442.18 286.32ZM113.69 299.27L171.25 299.27L224.96 478.19L135.18 478.19L113.69 299.27ZM374.84 411.44C366.28 409.84 297.75 397.02 289.18 395.42C279.83 393.07 269.94 394.43 261.57 399.21C261.48 399.26 261.39 399.32 261.3 399.38C258.64 401.08 245.38 409.6 221.5 424.93C204.47 368.21 195.01 336.7 193.12 330.4C201.91 327.77 210 323.21 216.81 317.05C218.21 315.79 229.44 305.63 230.84 304.36C257.3 284.07 293 280.58 322.9 295.36C323.48 295.65 328.2 297.96 328.79 298.25C338.81 303.17 349.83 305.73 360.99 305.75C366.71 305.75 412.4 305.75 418.11 305.75C436.11 305.75 451.11 319.09 454.06 336.57C449.86 336.38 416.33 334.84 412.14 334.65C397.1 333.96 382.04 334.67 367.14 336.76C363.85 337.17 361.52 340.17 361.93 343.46C362.35 346.75 365.35 349.08 368.64 348.66C368.69 348.66 368.75 348.65 368.8 348.64C382.97 346.65 397.29 345.98 411.58 346.64C416.46 346.86 455.43 348.65 460.31 348.87C460.44 348.88 460.55 348.88 460.58 348.88C463.9 348.88 466.58 346.19 466.58 342.88C466.58 341.72 466.53 340.57 466.45 339.43C466.91 339.18 469.23 337.94 473.4 335.71C515.75 312.51 539.27 299.62 543.98 297.04C555.48 290.73 569.82 293.24 578.49 303.08C549.86 323.04 463.97 382.93 435.34 402.89C416.62 412.17 395.4 415.17 374.84 411.44Z" id="dk9JO97qF"></path><path d="M494.24 277.37C494.2 277.39 494.15 277.41 494.11 277.44C493.46 277.79 488.26 280.64 487.61 280.99C473.01 268.86 452.09 266.61 436.17 275.93C434.02 277.12 423.26 283.06 403.91 293.75C378.16 293.75 363.86 293.75 361 293.75C351.67 293.73 342.46 291.59 334.08 287.48C333.49 287.19 328.78 284.88 328.19 284.59C294.13 267.74 253.45 271.78 223.37 294.98C223.23 295.08 223.11 295.19 222.98 295.3C221.56 296.58 210.19 306.87 208.76 308.15C203.28 313.12 196.76 316.79 189.67 318.9C188.85 316.17 182.28 294.28 181.46 291.54C180.69 289 178.36 287.27 175.71 287.27C168.83 287.27 113.81 287.27 106.93 287.27C103.62 287.27 100.93 289.95 100.93 293.27C100.93 293.51 100.94 293.74 100.97 293.98C103.27 313.07 121.61 465.81 123.9 484.91C124.26 487.92 126.82 490.19 129.86 490.19C140.17 490.19 222.71 490.19 233.02 490.19C236.34 490.19 239.02 487.5 239.02 484.19C239.02 483.61 238.94 483.02 238.77 482.47C237.86 479.43 233.3 464.24 225.09 436.89C250.61 420.5 264.79 411.39 267.63 409.57C273.34 406.36 280.06 405.47 286.41 407.1C286.53 407.13 286.66 407.16 286.79 407.18C338.31 416.82 366.93 422.17 372.65 423.24C395.93 427.47 419.95 424.02 441.11 413.42C441.36 413.3 441.61 413.15 441.85 412.99C456.7 402.63 575.51 319.78 590.36 309.43C592.94 307.63 593.69 304.15 592.09 301.45C581.15 282.69 557.25 276.07 538.22 286.52C537.66 286.82 535.72 287.88 535.44 288.04C525.36 275.39 507.68 270.45 494.24 277.37ZM524.68 293.93C520.88 296.01 501.88 306.42 467.69 325.15C465.49 326.34 464.26 326.99 464.02 327.12C462.19 321.66 459.42 316.57 455.83 312.06C464.62 307.25 491 292.82 499.79 288.01C507.52 284.07 517.99 286.87 524.68 293.93ZM442.18 286.32C452.42 280.29 465.6 280.93 475.97 287.36C473.06 288.95 449.73 301.72 446.81 303.31C441 298.96 434.28 295.99 427.15 294.61C429.14 293.52 434.1 290.78 442.04 286.4C442.12 286.35 442.17 286.32 442.18 286.32ZM113.69 299.27L171.25 299.27L224.96 478.19L135.18 478.19L113.69 299.27ZM374.84 411.44C366.28 409.84 297.75 397.02 289.18 395.42C279.83 393.07 269.94 394.43 261.57 399.21C261.48 399.26 261.39 399.32 261.3 399.38C258.64 401.08 245.38 409.6 221.5 424.93C204.47 368.21 195.01 336.7 193.12 330.4C201.91 327.77 210 323.21 216.81 317.05C218.21 315.79 229.44 305.63 230.84 304.36C257.3 284.07 293 280.58 322.9 295.36C323.48 295.65 328.2 297.96 328.79 298.25C338.81 303.17 349.83 305.73 360.99 305.75C366.71 305.75 412.4 305.75 418.11 305.75C436.11 305.75 451.11 319.09 454.06 336.57C449.86 336.38 416.33 334.84 412.14 334.65C397.1 333.96 382.04 334.67 367.14 336.76C363.85 337.17 361.52 340.17 361.93 343.46C362.35 346.75 365.35 349.08 368.64 348.66C368.69 348.66 368.75 348.65 368.8 348.64C382.97 346.65 397.29 345.98 411.58 346.64C416.46 346.86 455.43 348.65 460.31 348.87C460.44 348.88 460.55 348.88 460.58 348.88C463.9 348.88 466.58 346.19 466.58 342.88C466.58 341.72 466.53 340.57 466.45 339.43C466.91 339.18 469.23 337.94 473.4 335.71C515.75 312.51 539.27 299.62 543.98 297.04C555.48 290.73 569.82 293.24 578.49 303.08C549.86 323.04 463.97 382.93 435.34 402.89C416.62 412.17 395.4 415.17 374.84 411.44Z" id="a1uSaNoDis"></path><path d="M188.08 449.17C187.96 438.34 179.15 429.62 168.33 429.62C157.36 429.7 148.52 438.63 148.57 449.59C148.69 460.5 157.63 469.25 168.54 469.14C179.45 469.02 188.2 460.08 188.08 449.17ZM168.76 457.56C164.36 457.68 160.69 454.21 160.57 449.81C160.57 449.74 160.57 449.67 160.57 449.59C160.52 445.25 163.99 441.69 168.33 441.62C172.73 441.5 176.39 444.98 176.51 449.38C176.63 453.78 173.16 457.44 168.76 457.56Z" id="eH5CRXq9X"></path><path d="M188.08 449.17C188.02 443.7 185.74 438.77 182.11 435.23C178.55 431.76 173.68 429.62 168.33 429.62C157.36 429.7 148.52 438.63 148.57 449.59C148.69 460.5 157.63 469.25 168.54 469.14C179.45 469.02 188.2 460.08 188.08 449.17ZM168.76 457.56C164.36 457.68 160.69 454.21 160.57 449.81C160.57 449.74 160.57 449.67 160.57 449.59C160.52 445.25 163.99 441.69 168.33 441.62C172.73 441.5 176.39 444.98 176.51 449.38C176.63 453.78 173.16 457.44 168.76 457.56Z" id="a413xeeY0"></path><path d="M314.11 273.36C321.36 275.57 328.9 276.69 336.48 276.67C341.94 276.67 385.61 276.67 391.07 276.67C414.87 276.75 437.33 265.68 451.76 246.76C466.1 228.29 470.97 204.16 464.91 181.57C464.65 180.61 464.43 179.84 464.37 179.65C456.69 152.91 439.03 132.16 414.24 120.46C418.01 113.36 416.18 104.58 409.88 99.58C413.54 91.26 417.93 83.27 422.98 75.71C428.32 67.78 433.17 63.96 438.3 59.9C440.3 58.32 442.37 56.69 444.46 54.81C447.79 51.87 449.14 47.27 447.91 42.99C446.38 37.93 441.82 34.97 436.29 35.42C431.46 35.83 424.94 31.98 420.18 29.17C418.07 27.85 415.88 26.67 413.61 25.65C401.87 20.87 394.3 28.95 391.07 32.39C389.97 33.58 386.06 35.74 384.2 36.48C383.96 36.57 383.73 36.65 383.49 36.72C377.95 38.36 375.06 38.1 369.86 33.38C362.05 26.29 352.87 25.02 345.32 29.98C342.38 31.92 340.96 35.1 339.45 38.46C338.83 39.93 338.12 41.37 337.34 42.77C337.11 43.22 336.82 43.63 336.47 44C336.39 44.02 336.32 44.04 336.24 44.05C335.21 44.22 334.99 44.26 332.89 42.71C332.81 42.64 332.15 42.15 332.06 42.09C327.38 38.5 322.28 35.49 316.87 33.13C316.65 33.03 316.4 32.91 316.13 32.78C315.3 32.38 314.28 31.88 313.12 31.43C308.28 29.53 297.63 29.1 292.42 30.6C291 30.95 289.65 31.55 288.45 32.37C286.14 34.1 284.48 36.55 283.74 39.33C282.02 45.5 284.46 52.08 289.79 55.64C297.49 60.79 304.16 67.32 309.48 74.9C314.34 81.91 318.15 89.6 320.77 97.72C312.53 101.83 309.19 111.85 313.3 120.09C313.63 120.76 314.01 121.4 314.43 122.02C300.46 129.04 275.94 143.5 265.11 173.66C264.55 175.21 264.02 176.79 263.54 178.36C251.27 218.56 273.91 261.09 314.11 273.36ZM323.54 112.64C323.54 110.04 325.65 107.93 328.26 107.93C335.38 107.93 392.36 107.93 399.48 107.93C402.08 107.93 404.19 110.04 404.19 112.64C404.19 115.25 402.08 117.36 399.48 117.36C385.24 117.36 342.5 117.36 328.26 117.36C325.65 117.36 323.54 115.25 323.54 112.64ZM295.43 42.22C295.51 42.2 295.6 42.17 295.71 42.14C298.4 41.37 306.31 41.65 308.73 42.6C309.47 42.89 310.24 43.26 310.92 43.59C311.26 43.76 311.58 43.91 311.87 44.04C316.49 46.04 320.85 48.61 324.84 51.67C324.93 51.74 325.66 52.28 325.75 52.35C328.88 54.67 332.42 56.85 338.19 55.89C343.47 55.02 346.04 51.66 347.7 48.82C348.7 47.05 349.6 45.23 350.4 43.37C350.9 42.16 351.48 40.99 352.14 39.87C354.97 38.16 358.13 38.95 361.8 42.28C369.7 49.44 376.97 51.18 386.9 48.24C387.45 48.07 388.02 47.87 388.6 47.65C390.15 47.03 396.6 44.05 399.83 40.6C403.92 36.23 405.83 35.44 409.08 36.77C410.8 37.58 412.46 38.5 414.07 39.5C419.59 42.77 426.95 47.1 434.65 47.44C433.42 48.47 432.16 49.46 430.86 50.49C425.49 54.73 419.42 59.53 413.03 68.99C407.34 77.51 402.44 86.52 398.38 95.93C396.76 95.93 383.77 95.93 382.15 95.93C382.43 90.94 383.75 83.56 388.62 77.91C390.59 75.64 392.95 73.73 395.59 72.29C398.49 70.68 399.53 67.03 397.93 64.13C396.32 61.23 392.67 60.18 389.77 61.78C389.77 61.78 389.77 61.78 389.77 61.78C385.89 63.92 382.42 66.73 379.52 70.08C372.24 78.54 370.44 89.07 370.14 95.92C369.52 95.92 364.56 95.92 363.94 95.92C361.44 88.31 356.33 75.25 353.15 70.16C351.4 67.35 347.7 66.49 344.89 68.24C342.07 69.99 341.22 73.69 342.97 76.51C345.07 79.87 348.82 89.18 351.26 95.92C349.41 95.92 334.64 95.92 332.8 95.92C329.8 85.94 325.23 76.49 319.26 67.94C313.11 59.22 305.42 51.7 296.57 45.74C295.53 45.09 295 43.86 295.26 42.66C295.3 42.51 295.36 42.36 295.43 42.22ZM328.26 129.36C335.38 129.36 392.36 129.36 399.48 129.36C400.81 129.35 402.14 129.19 403.43 128.87C428.38 138.6 445.46 157.28 452.84 182.97C453.01 183.53 453.16 184.1 453.31 184.67C458.4 203.65 454.31 223.93 442.25 239.45C430.08 255.41 411.14 264.74 391.08 264.68C385.62 264.68 341.94 264.68 336.48 264.68C316 264.77 296.72 255.03 284.64 238.49C272.54 222.27 268.95 201.22 275.01 181.91C275.44 180.51 275.91 179.1 276.41 177.72C286.85 148.64 312.01 136.48 324.1 130.64C325.14 130.14 326.06 129.7 326.88 129.29C327.33 129.32 327.79 129.36 328.26 129.36Z" id="a337cQnk1v"></path><path d="M306.06 270.07C313.31 272.28 320.85 273.4 328.43 273.38C333.89 273.38 377.56 273.38 383.02 273.38C406.82 273.46 429.28 262.39 443.71 243.47C458.05 225 462.92 200.87 456.86 178.28C456.6 177.32 456.38 176.55 456.32 176.36C448.64 149.62 430.98 128.87 406.19 117.17C409.96 110.07 408.13 101.29 401.83 96.29C405.49 87.97 409.88 79.98 414.93 72.42C420.27 64.49 425.12 60.67 430.25 56.61C432.25 55.03 434.32 53.4 436.41 51.52C439.74 48.58 441.09 43.98 439.86 39.7C438.33 34.64 433.77 31.68 428.24 32.13C423.41 32.54 416.89 28.69 412.13 25.88C410.02 24.56 407.83 23.38 405.56 22.36C393.82 17.58 386.25 25.66 383.02 29.1C381.92 30.29 378.01 32.45 376.15 33.19C375.91 33.28 375.68 33.36 375.44 33.43C369.9 35.07 367.01 34.81 361.81 30.09C354 23 344.82 21.73 337.27 26.69C334.33 28.63 332.91 31.81 331.4 35.17C330.78 36.64 330.07 38.08 329.29 39.48C329.06 39.93 328.77 40.34 328.42 40.71C328.34 40.73 328.27 40.75 328.19 40.76C327.16 40.93 326.94 40.97 324.84 39.42C324.76 39.35 324.1 38.86 324.01 38.8C319.33 35.21 314.23 32.2 308.82 29.84C308.6 29.74 308.35 29.62 308.08 29.49C307.25 29.09 306.23 28.59 305.07 28.14C300.23 26.24 289.58 25.81 284.37 27.31C282.95 27.66 281.6 28.26 280.4 29.08C278.09 30.81 276.43 33.26 275.69 36.04C273.97 42.21 276.41 48.79 281.74 52.35C289.44 57.5 296.11 64.03 301.43 71.61C306.29 78.62 310.1 86.31 312.72 94.43C304.48 98.54 301.14 108.56 305.25 116.8C305.58 117.47 305.96 118.11 306.38 118.73C292.41 125.75 267.89 140.21 257.06 170.37C256.5 171.92 255.97 173.5 255.49 175.07C243.22 215.27 265.86 257.8 306.06 270.07ZM315.49 109.35C315.49 106.75 317.6 104.64 320.21 104.64C327.33 104.64 384.31 104.64 391.43 104.64C394.03 104.64 396.14 106.75 396.14 109.35C396.14 111.96 394.03 114.07 391.43 114.07C377.19 114.07 334.45 114.07 320.21 114.07C317.6 114.07 315.49 111.96 315.49 109.35ZM287.38 38.93C287.46 38.91 287.55 38.88 287.66 38.85C290.35 38.08 298.26 38.36 300.68 39.31C301.42 39.6 302.19 39.97 302.87 40.3C303.21 40.47 303.53 40.62 303.82 40.75C308.44 42.75 312.8 45.32 316.79 48.38C316.88 48.45 317.61 48.99 317.7 49.06C320.83 51.38 324.37 53.56 330.14 52.6C335.42 51.73 337.99 48.37 339.65 45.53C340.65 43.76 341.55 41.94 342.35 40.08C342.85 38.87 343.43 37.7 344.09 36.58C346.92 34.87 350.08 35.66 353.75 38.99C361.65 46.15 368.92 47.89 378.85 44.95C379.4 44.78 379.97 44.58 380.55 44.36C382.1 43.74 388.55 40.76 391.78 37.31C395.87 32.94 397.78 32.15 401.03 33.48C402.75 34.29 404.41 35.21 406.02 36.21C411.54 39.48 418.9 43.81 426.6 44.15C425.37 45.18 424.11 46.17 422.81 47.2C417.44 51.44 411.37 56.24 404.98 65.7C399.29 74.22 394.39 83.23 390.33 92.64C388.71 92.64 375.72 92.64 374.1 92.64C374.38 87.65 375.7 80.27 380.57 74.62C382.54 72.35 384.9 70.44 387.54 69C390.44 67.39 391.48 63.74 389.88 60.84C388.27 57.94 384.62 56.89 381.72 58.49C381.72 58.49 381.72 58.49 381.72 58.49C377.84 60.63 374.37 63.44 371.47 66.79C364.19 75.25 362.39 85.78 362.09 92.63C361.47 92.63 356.51 92.63 355.89 92.63C353.39 85.02 348.28 71.96 345.1 66.87C343.35 64.06 339.65 63.2 336.84 64.95C334.02 66.7 333.17 70.4 334.92 73.22C337.02 76.58 340.77 85.89 343.21 92.63C341.36 92.63 326.59 92.63 324.75 92.63C321.75 82.65 317.18 73.2 311.21 64.65C305.06 55.93 297.37 48.41 288.52 42.45C287.48 41.8 286.95 40.57 287.21 39.37C287.25 39.22 287.31 39.07 287.38 38.93ZM320.21 126.07C327.33 126.07 384.31 126.07 391.43 126.07C392.76 126.06 394.09 125.9 395.38 125.58C420.33 135.31 437.41 153.99 444.79 179.68C444.96 180.24 445.11 180.81 445.26 181.38C450.35 200.36 446.26 220.64 434.2 236.16C422.03 252.12 403.09 261.45 383.03 261.39C377.57 261.39 333.89 261.39 328.43 261.39C307.95 261.48 288.67 251.74 276.59 235.2C264.49 218.98 260.9 197.93 266.96 178.62C267.39 177.22 267.86 175.81 268.36 174.43C278.8 145.35 303.96 133.19 316.05 127.35C317.09 126.85 318.01 126.41 318.83 126C319.28 126.03 319.74 126.07 320.21 126.07Z" id="a1uLTkCZBE"></path><path d="M363.83 147.14C336.99 147.14 315.16 168.64 315.16 195.05C315.16 221.46 336.99 242.95 363.83 242.95C390.67 242.95 412.5 221.46 412.5 195.05C412.5 168.64 390.67 147.14 363.83 147.14ZM363.83 230.95C343.61 230.95 327.16 214.84 327.16 195.05C327.16 175.25 343.61 159.14 363.83 159.14C384.05 159.14 400.5 175.24 400.5 195.04C400.5 214.84 384.05 230.95 363.83 230.95Z" id="f5Aio7Hyej"></path><path d="M300.83 153.95C273.99 153.95 252.16 175.45 252.16 201.86C252.16 228.27 273.99 249.76 300.83 249.76C327.67 249.76 349.5 228.27 349.5 201.86C349.5 175.45 327.67 153.95 300.83 153.95ZM300.83 237.76C280.61 237.76 264.16 221.65 264.16 201.86C264.16 182.06 280.61 165.95 300.83 165.95C321.05 165.95 337.5 182.05 337.5 201.85C337.5 221.65 321.05 237.76 300.83 237.76Z" id="asX5KuE8r"></path><path d="M352.25 201.12C348.96 201.49 346.59 204.46 346.96 207.75C346.96 207.75 346.96 207.75 346.96 207.75C347.7 214.38 352.93 218.55 357.92 220.31C358.07 223.62 360.88 226.18 364.19 226.03C367.33 225.88 369.82 223.34 369.91 220.2C369.91 220.2 369.91 220.15 369.91 220.15C372.18 219.37 374.26 218.1 375.97 216.42C379.01 213.33 380.56 209.08 380.23 204.77C379.9 196.86 373.22 192.22 371.17 190.98C371.15 190.97 371.05 190.9 370.87 190.79C370.63 190.66 370.5 190.58 370.47 190.56C370.09 190.34 369.91 190.24 369.32 189.94C368.99 189.77 368.65 189.62 368.31 189.49C368.24 189.46 367.7 189.25 367.63 189.23C367.3 189.09 366.97 188.97 366.63 188.87C366.06 188.69 365.49 188.54 364.91 188.42C364.74 188.39 363.36 188.12 363.18 188.08C361.06 187.67 360.28 186.37 360.27 185.38C360.22 184.2 360.61 183.04 361.35 182.13C362.18 181.51 363.22 181.24 364.25 181.39C366.47 181.29 368.47 182.72 369.1 184.85C369.1 184.84 369.09 184.8 369.07 184.72C376.07 183.05 379.96 182.12 380.74 181.94C379.27 176.52 375.21 172.18 369.91 170.34C369.91 170.31 369.91 170.08 369.91 170.05C369.91 166.74 367.22 164.05 363.91 164.05C360.6 164.05 357.91 166.74 357.91 170.05C357.91 170.09 357.91 170.38 357.91 170.41C356.07 171.1 354.39 172.16 352.97 173.53C349.85 176.75 348.16 181.08 348.27 185.56C348.37 192.56 353.56 198.44 360.89 199.86C361.06 199.9 362.42 200.16 362.58 200.19C362.74 200.23 362.92 200.29 363.09 200.34C363.14 200.36 363.19 200.38 363.24 200.4C363.31 200.43 363.88 200.64 363.95 200.67C364.18 200.79 364.26 200.84 364.43 200.93C364.47 200.95 364.76 201.13 364.8 201.15C364.85 201.18 364.91 201.22 364.96 201.25C366.24 202.02 368.17 203.74 368.24 205.27C368.31 207.11 367.72 207.71 367.49 207.93C366.25 208.9 364.7 209.39 363.13 209.29C361.98 209.24 359.05 207.95 358.88 206.42C358.51 203.12 355.55 200.75 352.25 201.12Z" id="dKGkJEizq"></path></defs><g><g><g><use xlink:href="#dk9JO97qF" opacity="1" fill="#404951" fill-opacity="1"></use><g><use xlink:href="#dk9JO97qF" opacity="1" fill-opacity="0" stroke="#000000" stroke-width="1" stroke-opacity="0"></use></g></g><g><use xlink:href="#a1uSaNoDis" opacity="1" fill="#000000" fill-opacity="0"></use><g><use xlink:href="#a1uSaNoDis" opacity="1" fill-opacity="0" stroke="#000000" stroke-width="1" stroke-opacity="0"></use></g></g><g><use xlink:href="#eH5CRXq9X" opacity="1" fill="#ffe831" fill-opacity="1"></use><g><use xlink:href="#eH5CRXq9X" opacity="1" fill-opacity="0" stroke="#000000" stroke-width="1" stroke-opacity="0"></use></g></g><g><use xlink:href="#a413xeeY0" opacity="1" fill="#000000" fill-opacity="0"></use><g><use xlink:href="#a413xeeY0" opacity="1" fill-opacity="0" stroke="#000000" stroke-width="1" stroke-opacity="0"></use></g></g><g><use xlink:href="#a337cQnk1v" opacity="1" fill="#404951" fill-opacity="1"></use><g><use xlink:href="#a337cQnk1v" opacity="1" fill-opacity="0" stroke="#000000" stroke-width="1" stroke-opacity="0"></use></g></g><g><use xlink:href="#a1uLTkCZBE" opacity="1" fill="#404951" fill-opacity="0"></use><g><use xlink:href="#a1uLTkCZBE" opacity="1" fill-opacity="0" stroke="#000000" stroke-width="1" stroke-opacity="0"></use></g></g><g><use xlink:href="#f5Aio7Hyej" opacity="1" fill="#404951" fill-opacity="1"></use><g><use xlink:href="#f5Aio7Hyej" opacity="1" fill-opacity="0" stroke="#000000" stroke-width="1" stroke-opacity="0"></use></g></g><g><use xlink:href="#asX5KuE8r" opacity="1" fill="#000000" fill-opacity="0"></use><g><use xlink:href="#asX5KuE8r" opacity="1" fill-opacity="0" stroke="#000000" stroke-width="1" stroke-opacity="0"></use></g></g><g><use xlink:href="#dKGkJEizq" opacity="1" fill="#404951" fill-opacity="1"></use><g><use xlink:href="#dKGkJEizq" opacity="1" fill-opacity="0" stroke="#000000" stroke-width="1" stroke-opacity="0"></use></g></g></g></g></svg>