<?xml version="1.0" encoding="UTF-8" standalone="no"?>
<!DOCTYPE svg PUBLIC "-//W3C//DTD SVG 1.1//EN" "http://www.w3.org/Graphics/SVG/1.1/DTD/svg11.dtd">
<svg version="1.1" xmlns="http://www.w3.org/2000/svg" xmlns:xlink="http://www.w3.org/1999/xlink" preserveAspectRatio="xMidYMid meet" viewBox="0 0 640 640" width="640" height="640"><defs><path d="M161.59 408.58C149.8 408.58 140.25 399.03 140.25 387.25C138.12 387.25 121.05 387.25 118.92 387.25C118.92 410.8 138.01 429.9 161.59 429.9C185.15 429.9 204.25 410.8 204.25 387.25C199.99 387.25 185.05 387.25 182.92 387.25C182.92 399.03 173.36 408.58 161.59 408.58Z" id="a1fyGwkxCr"></path><path d="M161.59 408.58C149.8 408.58 140.25 399.03 140.25 387.25C138.12 387.25 121.05 387.25 118.92 387.25C118.92 410.8 138.01 429.9 161.59 429.9C185.15 429.9 204.25 410.8 204.25 387.25C199.99 387.25 185.05 387.25 182.92 387.25C182.92 399.03 173.36 408.58 161.59 408.58Z" id="ayouo47QY"></path><path d="M411.67 239.03C378.49 239.03 360.07 239.03 356.37 239.03C353.15 230 346.04 222.88 337 219.66C337 214.55 337 189.03 337 143.06C334.87 143.06 317.8 143.06 315.67 143.06C315.67 189.03 315.67 214.55 315.67 219.66C299.04 225.51 290.29 243.73 296.13 260.35C301.99 276.99 320.2 285.73 336.84 279.88C345.97 276.68 353.16 269.5 356.37 260.35C363.75 260.35 382.19 260.35 411.67 260.35C411.67 256.09 411.67 241.16 411.67 239.03ZM337 249.69C337 255.58 332.23 260.35 326.33 260.35C320.45 260.35 315.67 255.58 315.67 249.69C315.67 243.8 320.45 239.03 326.33 239.03C332.23 239.03 337 243.8 337 249.69Z" id="moKDFMo3B"></path><path d="M411.67 239.03C378.49 239.03 360.07 239.03 356.37 239.03C353.15 230 346.04 222.88 337 219.66C337 214.55 337 189.03 337 143.06C334.87 143.06 317.8 143.06 315.67 143.06C315.67 189.03 315.67 214.55 315.67 219.66C299.04 225.51 290.29 243.73 296.13 260.35C301.99 276.99 320.2 285.73 336.84 279.88C345.97 276.68 353.16 269.5 356.37 260.35C363.75 260.35 382.19 260.35 411.67 260.35C411.67 256.09 411.67 241.16 411.67 239.03ZM337 249.69C337 255.58 332.23 260.35 326.33 260.35C320.45 260.35 315.67 255.58 315.67 249.69C315.67 243.8 320.45 239.03 326.33 239.03C332.23 239.03 337 243.8 337 249.69Z" id="a8ZHM3okJ"></path><path d="M337 93.43C337 106.23 337 113.33 337 114.76C337 114.76 337 114.76 337 114.76C324.2 114.76 317.09 114.76 315.67 114.76C315.67 114.76 315.67 114.76 315.67 114.76C315.67 101.96 315.67 94.84 315.67 93.43C315.67 93.43 315.67 93.43 315.67 93.43C328.47 93.43 335.59 93.43 337 93.43C337 93.43 337 93.43 337 93.43Z" id="c1ZBsQxoMv"></path><path d="M337 93.43C337 106.23 337 113.33 337 114.76C337 114.76 337 114.76 337 114.76C324.2 114.76 317.09 114.76 315.67 114.76C315.67 114.76 315.67 114.76 315.67 114.76C315.67 101.96 315.67 94.84 315.67 93.43C315.67 93.43 315.67 93.43 315.67 93.43C328.47 93.43 335.59 93.43 337 93.43C337 93.43 337 93.43 337 93.43Z" id="hxvZWSJ15"></path><path d="M435.11 134.31C444.16 143.36 449.19 148.39 450.19 149.4C450.19 149.4 450.19 149.4 450.19 149.4C441.15 158.45 436.11 163.48 435.11 164.48C435.11 164.48 435.11 164.48 435.11 164.48C426.05 155.43 421.03 150.4 420.03 149.4C420.03 149.4 420.03 149.4 420.03 149.4C429.07 140.35 434.11 135.32 435.11 134.31C435.11 134.31 435.11 134.31 435.11 134.31Z" id="bgtzEYHt6"></path><path d="M435.11 134.31C444.16 143.36 449.19 148.39 450.19 149.4C450.19 149.4 450.19 149.4 450.19 149.4C441.15 158.45 436.11 163.48 435.11 164.48C435.11 164.48 435.11 164.48 435.11 164.48C426.05 155.43 421.03 150.4 420.03 149.4C420.03 149.4 420.03 149.4 420.03 149.4C429.07 140.35 434.11 135.32 435.11 134.31C435.11 134.31 435.11 134.31 435.11 134.31Z" id="a1gI96k6"></path><path d="M476.83 241.13C476.83 253.93 476.83 261.03 476.83 262.46C476.83 262.46 476.83 262.46 476.83 262.46C464.03 262.46 456.92 262.46 455.49 262.46C455.49 262.46 455.49 262.46 455.49 262.46C455.49 249.66 455.49 242.55 455.49 241.13C455.49 241.13 455.49 241.13 455.49 241.13C468.29 241.13 475.4 241.13 476.83 241.13C476.83 241.13 476.83 241.13 476.83 241.13Z" id="a5LAUD2ZwK"></path><path d="M476.83 241.13C476.83 253.93 476.83 261.03 476.83 262.46C476.83 262.46 476.83 262.46 476.83 262.46C464.03 262.46 456.92 262.46 455.49 262.46C455.49 262.46 455.49 262.46 455.49 262.46C455.49 249.66 455.49 242.55 455.49 241.13C455.49 241.13 455.49 241.13 455.49 241.13C468.29 241.13 475.4 241.13 476.83 241.13C476.83 241.13 476.83 241.13 476.83 241.13Z" id="bilRpICEx"></path><path d="M425.6 342.28C434.65 351.33 439.68 356.35 440.68 357.35C440.68 357.35 440.68 357.35 440.68 357.35C431.63 366.4 426.6 371.43 425.6 372.44C425.6 372.44 425.6 372.44 425.6 372.44C416.55 363.39 411.52 358.36 410.51 357.35C410.51 357.35 410.51 357.35 410.51 357.35C419.56 348.3 424.59 343.28 425.6 342.28C425.6 342.28 425.6 342.28 425.6 342.28Z" id="c36i4SoRPW"></path><path d="M425.6 342.28C434.65 351.33 439.68 356.35 440.68 357.35C440.68 357.35 440.68 357.35 440.68 357.35C431.63 366.4 426.6 371.43 425.6 372.44C425.6 372.44 425.6 372.44 425.6 372.44C416.55 363.39 411.52 358.36 410.51 357.35C410.51 357.35 410.51 357.35 410.51 357.35C419.56 348.3 424.59 343.28 425.6 342.28C425.6 342.28 425.6 342.28 425.6 342.28Z" id="ibx7UgViV"></path><path d="M337 376.59C337 389.38 337 396.49 337 397.91C337 397.91 337 397.91 337 397.91C324.2 397.91 317.09 397.91 315.67 397.91C315.67 397.91 315.67 397.91 315.67 397.91C315.67 385.12 315.67 378.01 315.67 376.59C315.67 376.59 315.67 376.59 315.67 376.59C328.47 376.59 335.59 376.59 337 376.59C337 376.59 337 376.59 337 376.59Z" id="f1tvDpw6Ro"></path><path d="M337 376.59C337 389.38 337 396.49 337 397.91C337 397.91 337 397.91 337 397.91C324.2 397.91 317.09 397.91 315.67 397.91C315.67 397.91 315.67 397.91 315.67 397.91C315.67 385.12 315.67 378.01 315.67 376.59C315.67 376.59 315.67 376.59 315.67 376.59C328.47 376.59 335.59 376.59 337 376.59C337 376.59 337 376.59 337 376.59Z" id="a1ovTM4XeQ"></path><path d="M219.33 134.31C228.39 143.36 233.41 148.39 234.41 149.4C234.41 149.4 234.41 149.4 234.41 149.4C225.37 158.45 220.35 163.48 219.33 164.48C219.33 164.48 219.33 164.48 219.33 164.48C210.28 155.43 205.25 150.4 204.25 149.4C204.25 149.4 204.25 149.4 204.25 149.4C213.31 140.35 218.33 135.32 219.33 134.31C219.33 134.31 219.33 134.31 219.33 134.31Z" id="aHzEfUvak"></path><path d="M219.33 134.31C228.39 143.36 233.41 148.39 234.41 149.4C234.41 149.4 234.41 149.4 234.41 149.4C225.37 158.45 220.35 163.48 219.33 164.48C219.33 164.48 219.33 164.48 219.33 164.48C210.28 155.43 205.25 150.4 204.25 149.4C204.25 149.4 204.25 149.4 204.25 149.4C213.31 140.35 218.33 135.32 219.33 134.31C219.33 134.31 219.33 134.31 219.33 134.31Z" id="a1dcE5A6D5"></path><path d="M585.19 409.5C587.8 406.87 608.76 385.92 611.37 383.3C615.55 379.13 615.55 372.39 611.37 368.23C608.36 365.2 584.21 341.06 581.19 338.05C577.03 333.88 570.28 333.88 566.11 338.05C563.49 340.66 542.55 361.6 539.92 364.23C538.55 363.5 537.11 362.9 535.65 362.23C600.25 243.16 556.07 94.28 436.96 29.72C317.85 -34.86 168.93 9.31 104.33 128.38C84.84 164.32 74.64 204.57 74.67 245.45C74.67 249.01 74.84 252.48 75 255.96C60.95 274.39 53.33 296.93 53.33 320.1C53.33 323.29 53.33 348.89 53.33 352.09C53.33 357.98 58.11 362.75 64 362.75C64 363.82 64 372.35 64 373.41C64.05 409.83 84.71 443.07 117.33 459.25C117.33 460.09 117.33 464.32 117.33 471.9C79.92 482.07 59.13 487.73 54.97 488.86C22.57 497.83 0.11 527.27 0 560.88C0 567.73 0 622.5 0 629.34C0 635.23 4.77 640 10.67 640C40.53 640 279.47 640 309.33 640C315.23 640 320 635.23 320 629.34C320 622.5 320 567.73 320 560.88C319.89 527.26 297.41 497.82 264.99 488.85C260.84 487.71 240.07 482.07 202.67 471.9C202.67 465.23 202.67 461.52 202.67 460.77C246.67 484.83 297.01 494.76 346.87 489.21C348.41 490.15 350.19 490.67 352 490.71C355.69 490.71 385.27 490.71 388.97 490.71C390.84 496.67 393.24 502.44 396.15 507.96C393.53 510.57 372.57 531.53 369.95 534.15C365.79 538.31 365.79 545.06 369.95 549.23C372.97 552.24 397.12 576.38 400.13 579.4C404.31 583.56 411.05 583.56 415.21 579.4C417.84 576.78 438.8 555.84 441.41 553.21C446.93 556.12 452.71 558.52 458.67 560.38C458.67 564.09 458.67 593.65 458.67 597.35C458.67 603.24 463.44 608.01 469.33 608.01C473.6 608.01 507.73 608.01 512 608.01C517.89 608.01 522.67 603.24 522.67 597.35C522.67 593.65 522.67 564.09 522.67 560.38C528.61 558.52 534.39 556.12 539.91 553.21C542.53 555.84 563.49 576.78 566.11 579.4C570.28 583.56 577.03 583.56 581.19 579.4C584.21 576.38 608.36 552.24 611.37 549.23C615.55 545.06 615.55 538.31 611.37 534.15C608.76 531.53 587.8 510.57 585.19 507.96C588.09 502.44 590.49 496.67 592.36 490.71C596.05 490.71 625.64 490.71 629.33 490.71C635.23 490.71 640 485.94 640 480.05C640 475.78 640 441.66 640 437.39C640 431.5 635.23 426.73 629.33 426.73C621.93 426.73 596.05 426.73 592.36 426.73C590.49 420.79 588.09 415.01 585.19 409.5ZM160 234.79C207.12 234.79 245.33 272.99 245.33 320.1C245.33 322.18 245.33 338.82 245.33 340.9C227.99 338.48 212.96 327.64 205.19 311.95C204.81 311.22 201.91 305.39 201.55 304.67C200.01 301.59 197.09 299.46 193.71 298.92C190.32 298.38 186.89 299.49 184.45 301.9C182.69 303.66 168.55 317.8 166.79 319.56C152.81 333.61 133.8 341.48 113.99 341.42C111.37 341.42 98.27 341.42 74.67 341.42C74.67 330.05 74.67 322.95 74.67 320.1C74.67 272.99 112.87 234.79 160 234.79ZM266.67 352.09C266.67 348.89 266.67 323.29 266.67 320.1C266.92 261.46 219.57 213.71 160.92 213.46C154.32 213.43 147.75 214.02 141.25 215.21C157.92 116.44 251.52 49.87 350.33 66.52C449.13 83.18 515.72 176.75 499.07 275.54C482.4 374.31 388.8 440.87 289.99 424.22C275.52 421.79 261.39 417.6 247.92 411.75C253.24 399.67 255.99 386.61 256 373.41C256 371.28 256 363.82 256 362.75C261.89 362.75 266.67 357.98 266.67 352.09ZM113.99 362.75C139.47 362.82 163.91 352.7 181.87 334.64C182.61 333.89 188.59 327.92 189.33 327.17C199.47 343.81 215.76 355.78 234.67 360.48C234.67 361.78 234.67 372.12 234.67 373.41C234.67 414.64 201.24 448.06 160 448.06C118.76 448.06 85.33 414.64 85.33 373.41C85.33 372 85.33 368.44 85.33 362.75C102.53 362.75 112.08 362.75 113.99 362.75ZM110.93 495.74L149.33 527.73L149.33 554.69L170.67 554.69L170.67 527.7L209.07 495.71L224 499.78L224 518.26L160 582.24L96 518.26L96 499.8L110.93 495.74ZM181.33 480.05C181.36 483.1 182.72 485.99 185.05 487.98C183.39 489.37 175.03 496.32 160 508.84C144.96 496.32 136.61 489.38 134.95 487.98C137.28 486.01 138.64 483.11 138.67 480.05C138.67 478.74 138.67 468.22 138.67 466.92C145.67 468.53 152.81 469.37 160 469.38C167.17 469.37 174.33 468.53 181.33 466.92C181.33 468.22 181.33 478.74 181.33 480.05ZM21.33 618.67C21.33 584 21.33 564.73 21.33 560.88C21.41 536.87 37.47 515.84 60.61 509.43C61.56 509.17 66.24 507.92 74.67 505.64C74.67 515.88 74.67 521.57 74.67 522.7C74.67 525.53 75.79 528.25 77.79 530.25C85.25 537.71 144.99 597.43 152.45 604.89C156.63 609.05 163.37 609.05 167.53 604.89C175 597.43 234.73 537.71 242.2 530.25C244.21 528.25 245.33 525.53 245.33 522.7C245.33 521.57 245.33 515.88 245.33 505.64C253.75 507.93 258.41 509.21 259.35 509.47C282.49 515.86 298.56 536.87 298.67 560.88C298.67 568.58 298.67 587.86 298.67 618.67C243.2 618.67 49.07 618.67 21.33 618.67ZM505.09 328.36C550.91 226.26 505.25 106.37 403.13 60.57C301 14.77 181.08 60.41 135.27 162.52C126.84 181.3 121.32 201.26 118.91 221.71C110.95 225.07 103.43 229.4 96.51 234.57C102.69 111.25 207.71 16.28 331.07 22.46C454.43 28.64 549.43 133.62 543.24 256.94C537.07 380.26 432.05 475.24 308.69 469.06C278.53 467.56 249 459.96 221.87 446.72C227.61 441.9 232.77 436.37 237.24 430.29C339.36 476.09 459.29 430.45 505.09 328.36ZM532.76 463.89C530.01 487.21 508.87 503.88 485.55 501.13C464.07 498.6 447.91 480.35 448 458.72C448.05 457.24 448.2 455.78 448.43 454.31C465.64 443.78 481.43 431.12 495.51 416.69C518.84 419.44 535.51 440.57 532.76 463.89ZM584.21 469.38C579.24 469.38 574.92 472.82 573.81 477.66C571.72 486.98 568.01 495.87 562.87 503.92C560.15 508.15 560.75 513.69 564.29 517.24C565.93 518.86 574.09 527.02 588.8 541.68C587.29 543.2 575.17 555.31 573.65 556.82C558.97 542.11 550.83 533.94 549.19 532.3C545.64 528.75 540.11 528.15 535.88 530.87C527.83 536.04 518.93 539.78 509.61 541.9C504.79 543 501.36 547.29 501.33 552.24C501.33 554.55 501.33 566.02 501.33 586.68C499.2 586.68 482.13 586.68 480 586.68C480 566.02 480 554.55 480 552.24C480 547.27 476.57 542.96 471.72 541.84C462.4 539.75 453.51 536.04 445.45 530.9C441.23 528.19 435.68 528.78 432.13 532.34C430.51 533.97 422.36 542.14 407.68 556.82C406.17 555.31 394.05 543.2 392.53 541.68C407.25 527.02 415.43 518.86 417.07 517.24C420.61 513.69 421.21 508.15 418.49 503.92C413.35 495.87 409.65 486.98 407.55 477.66C407.31 476.72 406.92 475.81 406.41 474.97C417.03 470.97 425.07 466.95 427.15 466.05C431.11 501.16 462.8 526.41 497.92 522.45C533.04 518.49 558.31 486.81 554.33 451.7C551.57 427.18 534.95 406.44 511.61 398.39C518.49 389.81 523.29 382.4 524.6 380.62C528.52 382.28 532.29 384.26 535.89 386.53C540.12 389.26 545.67 388.68 549.23 385.12C550.85 383.48 559 375.32 573.65 360.62C575.17 362.13 587.29 374.24 588.8 375.76C574.08 390.43 565.91 398.58 564.27 400.22C560.72 403.76 560.12 409.3 562.84 413.52C568.01 421.57 571.75 430.46 573.87 439.78C574.97 444.61 579.25 448.04 584.21 448.06C586.51 448.06 597.99 448.06 618.67 448.06C618.67 449.48 618.67 456.59 618.67 469.38C597.23 469.38 585.74 469.38 584.21 469.38Z" id="a7cvWPZXU1"></path><path d="M585.19 409.5C587.8 406.87 608.76 385.92 611.37 383.3C615.55 379.13 615.55 372.39 611.37 368.23C608.36 365.2 584.21 341.06 581.19 338.05C577.03 333.88 570.28 333.88 566.11 338.05C563.49 340.66 542.55 361.6 539.92 364.23C538.55 363.5 537.11 362.9 535.65 362.23C600.25 243.16 556.07 94.28 436.96 29.72C317.85 -34.86 168.93 9.31 104.33 128.38C84.84 164.32 74.64 204.57 74.67 245.45C74.67 249.01 74.84 252.48 75 255.96C60.95 274.39 53.33 296.93 53.33 320.1C53.33 323.29 53.33 348.89 53.33 352.09C53.33 357.98 58.11 362.75 64 362.75C64 363.82 64 372.35 64 373.41C64.05 409.83 84.71 443.07 117.33 459.25C117.33 460.09 117.33 464.32 117.33 471.9C79.92 482.07 59.13 487.73 54.97 488.86C22.57 497.83 0.11 527.27 0 560.88C0 567.73 0 622.5 0 629.34C0 635.23 4.77 640 10.67 640C40.53 640 279.47 640 309.33 640C315.23 640 320 635.23 320 629.34C320 622.5 320 567.73 320 560.88C319.89 527.26 297.41 497.82 264.99 488.85C260.84 487.71 240.07 482.07 202.67 471.9C202.67 465.23 202.67 461.52 202.67 460.77C246.67 484.83 297.01 494.76 346.87 489.21C348.41 490.15 350.19 490.67 352 490.71C355.69 490.71 385.27 490.71 388.97 490.71C390.84 496.67 393.24 502.44 396.15 507.96C393.53 510.57 372.57 531.53 369.95 534.15C365.79 538.31 365.79 545.06 369.95 549.23C372.97 552.24 397.12 576.38 400.13 579.4C404.31 583.56 411.05 583.56 415.21 579.4C417.84 576.78 438.8 555.84 441.41 553.21C446.93 556.12 452.71 558.52 458.67 560.38C458.67 564.09 458.67 593.65 458.67 597.35C458.67 603.24 463.44 608.01 469.33 608.01C473.6 608.01 507.73 608.01 512 608.01C517.89 608.01 522.67 603.24 522.67 597.35C522.67 593.65 522.67 564.09 522.67 560.38C528.61 558.52 534.39 556.12 539.91 553.21C542.53 555.84 563.49 576.78 566.11 579.4C570.28 583.56 577.03 583.56 581.19 579.4C584.21 576.38 608.36 552.24 611.37 549.23C615.55 545.06 615.55 538.31 611.37 534.15C608.76 531.53 587.8 510.57 585.19 507.96C588.09 502.44 590.49 496.67 592.36 490.71C596.05 490.71 625.64 490.71 629.33 490.71C635.23 490.71 640 485.94 640 480.05C640 475.78 640 441.66 640 437.39C640 431.5 635.23 426.73 629.33 426.73C621.93 426.73 596.05 426.73 592.36 426.73C590.49 420.79 588.09 415.01 585.19 409.5ZM160 234.79C207.12 234.79 245.33 272.99 245.33 320.1C245.33 322.18 245.33 338.82 245.33 340.9C227.99 338.48 212.96 327.64 205.19 311.95C204.81 311.22 201.91 305.39 201.55 304.67C200.01 301.59 197.09 299.46 193.71 298.92C190.32 298.38 186.89 299.49 184.45 301.9C182.69 303.66 168.55 317.8 166.79 319.56C152.81 333.61 133.8 341.48 113.99 341.42C111.37 341.42 98.27 341.42 74.67 341.42C74.67 330.05 74.67 322.95 74.67 320.1C74.67 272.99 112.87 234.79 160 234.79ZM266.67 352.09C266.67 348.89 266.67 323.29 266.67 320.1C266.92 261.46 219.57 213.71 160.92 213.46C154.32 213.43 147.75 214.02 141.25 215.21C157.92 116.44 251.52 49.87 350.33 66.52C449.13 83.18 515.72 176.75 499.07 275.54C482.4 374.31 388.8 440.87 289.99 424.22C275.52 421.79 261.39 417.6 247.92 411.75C253.24 399.67 255.99 386.61 256 373.41C256 371.28 256 363.82 256 362.75C261.89 362.75 266.67 357.98 266.67 352.09ZM113.99 362.75C139.47 362.82 163.91 352.7 181.87 334.64C182.61 333.89 188.59 327.92 189.33 327.17C199.47 343.81 215.76 355.78 234.67 360.48C234.67 361.78 234.67 372.12 234.67 373.41C234.67 414.64 201.24 448.06 160 448.06C118.76 448.06 85.33 414.64 85.33 373.41C85.33 372 85.33 368.44 85.33 362.75C102.53 362.75 112.08 362.75 113.99 362.75ZM110.93 495.74L149.33 527.73L149.33 554.69L170.67 554.69L170.67 527.7L209.07 495.71L224 499.78L224 518.26L160 582.24L96 518.26L96 499.8L110.93 495.74ZM181.33 480.05C181.36 483.1 182.72 485.99 185.05 487.98C183.39 489.37 175.03 496.32 160 508.84C144.96 496.32 136.61 489.38 134.95 487.98C137.28 486.01 138.64 483.11 138.67 480.05C138.67 478.74 138.67 468.22 138.67 466.92C145.67 468.53 152.81 469.37 160 469.38C167.17 469.37 174.33 468.53 181.33 466.92C181.33 468.22 181.33 478.74 181.33 480.05ZM21.33 618.67C21.33 584 21.33 564.73 21.33 560.88C21.41 536.87 37.47 515.84 60.61 509.43C61.56 509.17 66.24 507.92 74.67 505.64C74.67 515.88 74.67 521.57 74.67 522.7C74.67 525.53 75.79 528.25 77.79 530.25C85.25 537.71 144.99 597.43 152.45 604.89C156.63 609.05 163.37 609.05 167.53 604.89C175 597.43 234.73 537.71 242.2 530.25C244.21 528.25 245.33 525.53 245.33 522.7C245.33 521.57 245.33 515.88 245.33 505.64C253.75 507.93 258.41 509.21 259.35 509.47C282.49 515.86 298.56 536.87 298.67 560.88C298.67 568.58 298.67 587.86 298.67 618.67C243.2 618.67 49.07 618.67 21.33 618.67ZM505.09 328.36C550.91 226.26 505.25 106.37 403.13 60.57C301 14.77 181.08 60.41 135.27 162.52C126.84 181.3 121.32 201.26 118.91 221.71C110.95 225.07 103.43 229.4 96.51 234.57C102.69 111.25 207.71 16.28 331.07 22.46C454.43 28.64 549.43 133.62 543.24 256.94C537.07 380.26 432.05 475.24 308.69 469.06C278.53 467.56 249 459.96 221.87 446.72C227.61 441.9 232.77 436.37 237.24 430.29C339.36 476.09 459.29 430.45 505.09 328.36ZM532.76 463.89C530.01 487.21 508.87 503.88 485.55 501.13C464.07 498.6 447.91 480.35 448 458.72C448.05 457.24 448.2 455.78 448.43 454.31C465.64 443.78 481.43 431.12 495.51 416.69C518.84 419.44 535.51 440.57 532.76 463.89ZM584.21 469.38C579.24 469.38 574.92 472.82 573.81 477.66C571.72 486.98 568.01 495.87 562.87 503.92C560.15 508.15 560.75 513.69 564.29 517.24C565.93 518.86 574.09 527.02 588.8 541.68C587.29 543.2 575.17 555.31 573.65 556.82C558.97 542.11 550.83 533.94 549.19 532.3C545.64 528.75 540.11 528.15 535.88 530.87C527.83 536.04 518.93 539.78 509.61 541.9C504.79 543 501.36 547.29 501.33 552.24C501.33 554.55 501.33 566.02 501.33 586.68C499.2 586.68 482.13 586.68 480 586.68C480 566.02 480 554.55 480 552.24C480 547.27 476.57 542.96 471.72 541.84C462.4 539.75 453.51 536.04 445.45 530.9C441.23 528.19 435.68 528.78 432.13 532.34C430.51 533.97 422.36 542.14 407.68 556.82C406.17 555.31 394.05 543.2 392.53 541.68C407.25 527.02 415.43 518.86 417.07 517.24C420.61 513.69 421.21 508.15 418.49 503.92C413.35 495.87 409.65 486.98 407.55 477.66C407.31 476.72 406.92 475.81 406.41 474.97C417.03 470.97 425.07 466.95 427.15 466.05C431.11 501.16 462.8 526.41 497.92 522.45C533.04 518.49 558.31 486.81 554.33 451.7C551.57 427.18 534.95 406.44 511.61 398.39C518.49 389.81 523.29 382.4 524.6 380.62C528.52 382.28 532.29 384.26 535.89 386.53C540.12 389.26 545.67 388.68 549.23 385.12C550.85 383.48 559 375.32 573.65 360.62C575.17 362.13 587.29 374.24 588.8 375.76C574.08 390.43 565.91 398.58 564.27 400.22C560.72 403.76 560.12 409.3 562.84 413.52C568.01 421.57 571.75 430.46 573.87 439.78C574.97 444.61 579.25 448.04 584.21 448.06C586.51 448.06 597.99 448.06 618.67 448.06C618.67 449.48 618.67 456.59 618.67 469.38C597.23 469.38 585.74 469.38 584.21 469.38Z" id="a1kVb0CbG0"></path></defs><g><g><g><use xlink:href="#a1fyGwkxCr" opacity="1" fill="#ffe831" fill-opacity="1"></use><g><use xlink:href="#a1fyGwkxCr" opacity="1" fill-opacity="0" stroke="#000000" stroke-width="1" stroke-opacity="0"></use></g></g><g><use xlink:href="#ayouo47QY" opacity="1" fill="#000000" fill-opacity="0"></use><g><use xlink:href="#ayouo47QY" opacity="1" fill-opacity="0" stroke="#000000" stroke-width="1" stroke-opacity="0"></use></g></g><g><use xlink:href="#moKDFMo3B" opacity="1" fill="#ffe831" fill-opacity="1"></use><g><use xlink:href="#moKDFMo3B" opacity="1" fill-opacity="0" stroke="#000000" stroke-width="1" stroke-opacity="0"></use></g></g><g><use xlink:href="#a8ZHM3okJ" opacity="1" fill="#000000" fill-opacity="0"></use><g><use xlink:href="#a8ZHM3okJ" opacity="1" fill-opacity="0" stroke="#000000" stroke-width="1" stroke-opacity="0"></use></g></g><g><use xlink:href="#c1ZBsQxoMv" opacity="1" fill="#ffe831" fill-opacity="1"></use><g><use xlink:href="#c1ZBsQxoMv" opacity="1" fill-opacity="0" stroke="#000000" stroke-width="1" stroke-opacity="0"></use></g></g><g><use xlink:href="#hxvZWSJ15" opacity="1" fill="#000000" fill-opacity="0"></use><g><use xlink:href="#hxvZWSJ15" opacity="1" fill-opacity="0" stroke="#000000" stroke-width="1" stroke-opacity="0"></use></g></g><g><use xlink:href="#bgtzEYHt6" opacity="1" fill="#ffe831" fill-opacity="1"></use><g><use xlink:href="#bgtzEYHt6" opacity="1" fill-opacity="0" stroke="#000000" stroke-width="1" stroke-opacity="0"></use></g></g><g><use xlink:href="#a1gI96k6" opacity="1" fill="#000000" fill-opacity="0"></use><g><use xlink:href="#a1gI96k6" opacity="1" fill-opacity="0" stroke="#000000" stroke-width="1" stroke-opacity="0"></use></g></g><g><use xlink:href="#a5LAUD2ZwK" opacity="1" fill="#ffe831" fill-opacity="1"></use><g><use xlink:href="#a5LAUD2ZwK" opacity="1" fill-opacity="0" stroke="#000000" stroke-width="1" stroke-opacity="0"></use></g></g><g><use xlink:href="#bilRpICEx" opacity="1" fill="#000000" fill-opacity="0"></use><g><use xlink:href="#bilRpICEx" opacity="1" fill-opacity="0" stroke="#000000" stroke-width="1" stroke-opacity="0"></use></g></g><g><use xlink:href="#c36i4SoRPW" opacity="1" fill="#ffe831" fill-opacity="1"></use><g><use xlink:href="#c36i4SoRPW" opacity="1" fill-opacity="0" stroke="#000000" stroke-width="1" stroke-opacity="0"></use></g></g><g><use xlink:href="#ibx7UgViV" opacity="1" fill="#000000" fill-opacity="0"></use><g><use xlink:href="#ibx7UgViV" opacity="1" fill-opacity="0" stroke="#000000" stroke-width="1" stroke-opacity="0"></use></g></g><g><use xlink:href="#f1tvDpw6Ro" opacity="1" fill="#ffe831" fill-opacity="1"></use><g><use xlink:href="#f1tvDpw6Ro" opacity="1" fill-opacity="0" stroke="#000000" stroke-width="1" stroke-opacity="0"></use></g></g><g><use xlink:href="#a1ovTM4XeQ" opacity="1" fill="#000000" fill-opacity="0"></use><g><use xlink:href="#a1ovTM4XeQ" opacity="1" fill-opacity="0" stroke="#000000" stroke-width="1" stroke-opacity="0"></use></g></g><g><use xlink:href="#aHzEfUvak" opacity="1" fill="#ffe831" fill-opacity="1"></use><g><use xlink:href="#aHzEfUvak" opacity="1" fill-opacity="0" stroke="#000000" stroke-width="1" stroke-opacity="0"></use></g></g><g><use xlink:href="#a1dcE5A6D5" opacity="1" fill="#000000" fill-opacity="0"></use><g><use xlink:href="#a1dcE5A6D5" opacity="1" fill-opacity="0" stroke="#000000" stroke-width="1" stroke-opacity="0"></use></g></g><g><use xlink:href="#a7cvWPZXU1" opacity="1" fill="#ffe831" fill-opacity="1"></use><g><use xlink:href="#a7cvWPZXU1" opacity="1" fill-opacity="0" stroke="#000000" stroke-width="1" stroke-opacity="0"></use></g></g><g><use xlink:href="#a1kVb0CbG0" opacity="1" fill="#000000" fill-opacity="0"></use><g><use xlink:href="#a1kVb0CbG0" opacity="1" fill-opacity="0" stroke="#000000" stroke-width="1" stroke-opacity="0"></use></g></g></g></g></svg>