<?xml version="1.0" encoding="UTF-8" standalone="no"?>
<!DOCTYPE svg PUBLIC "-//W3C//DTD SVG 1.1//EN" "http://www.w3.org/Graphics/SVG/1.1/DTD/svg11.dtd">
<svg version="1.1" xmlns="http://www.w3.org/2000/svg" xmlns:xlink="http://www.w3.org/1999/xlink" preserveAspectRatio="xMidYMid meet" viewBox="0 0 640 640" width="640" height="640"><defs><path d="M224.52 304C224.52 312.84 217.35 320 208.52 320C199.68 320 192.52 312.84 192.52 304C190.92 304 178.12 304 176.52 304C176.52 321.67 190.84 336 208.52 336C226.19 336 240.52 321.67 240.52 304C237.32 304 226.12 304 224.52 304Z" id="d1MzLkRcyN"></path><path d="M396.08 208.8L396.08 192.8C371.2 192.8 357.38 192.8 354.61 192.8C352.19 186.03 346.86 180.69 340.08 178.27C340.08 174.44 340.08 155.29 340.08 120.8L324.08 120.8C324.08 155.29 324.08 174.44 324.08 178.27C311.61 182.66 305.05 196.33 309.43 208.8C313.82 221.28 327.48 227.84 339.96 223.45C346.81 221.05 352.2 215.66 354.61 208.8C360.14 208.8 373.97 208.8 396.08 208.8ZM332.08 192.8C336.5 192.8 340.08 196.38 340.08 200.8C340.08 205.22 336.5 208.8 332.08 208.8C327.67 208.8 324.08 205.22 324.08 200.8C324.08 196.38 327.67 192.8 332.08 192.8Z" id="c64HBHj47q"></path><path d="M340.08 83.57C340.08 83.57 340.08 83.57 340.08 83.57C340.08 93.17 340.08 98.5 340.08 99.57C340.08 99.57 340.08 99.57 340.08 99.57C330.48 99.57 325.15 99.57 324.08 99.57C324.08 99.57 324.08 99.57 324.08 99.57C324.08 89.97 324.08 84.63 324.08 83.57C324.08 83.57 324.08 83.57 324.08 83.57C333.68 83.57 339.02 83.57 340.08 83.57Z" id="c75nrmyFhT"></path><path d="M413.66 114.24C413.66 114.24 413.66 114.24 413.66 114.24C420.45 121.03 424.22 124.8 424.97 125.56C424.97 125.56 424.97 125.56 424.97 125.56C418.19 132.35 414.41 136.12 413.66 136.87C413.66 136.87 413.66 136.87 413.66 136.87C406.87 130.08 403.1 126.31 402.35 125.56C402.35 125.56 402.35 125.56 402.35 125.56C409.13 118.77 412.91 115 413.66 114.24Z" id="d52W52n0l"></path><path d="M444.95 194.38C444.95 194.38 444.95 194.38 444.95 194.38C444.95 203.98 444.95 209.31 444.95 210.38C444.95 210.38 444.95 210.38 444.95 210.38C435.35 210.38 430.02 210.38 428.95 210.38C428.95 210.38 428.95 210.38 428.95 210.38C428.95 200.78 428.95 195.44 428.95 194.38C428.95 194.38 428.95 194.38 428.95 194.38C438.55 194.38 443.88 194.38 444.95 194.38Z" id="f1DZ8Xy9ka"></path><path d="M406.53 270.26C406.53 270.26 406.53 270.26 406.53 270.26C413.32 277.05 417.09 280.82 417.84 281.57C417.84 281.57 417.84 281.57 417.84 281.57C411.05 288.36 407.28 292.13 406.53 292.89C406.53 292.89 406.53 292.89 406.53 292.89C399.74 286.1 395.97 282.33 395.21 281.57C395.21 281.57 395.21 281.57 395.21 281.57C402 274.78 405.77 271.01 406.53 270.26Z" id="ayIcqRpmO"></path><path d="M340.08 296C340.08 296 340.08 296 340.08 296C340.08 305.6 340.08 310.93 340.08 312C340.08 312 340.08 312 340.08 312C330.48 312 325.15 312 324.08 312C324.08 312 324.08 312 324.08 312C324.08 302.4 324.08 297.07 324.08 296C324.08 296 324.08 296 324.08 296C333.68 296 339.02 296 340.08 296Z" id="gJqHXeMi1"></path><path d="M251.83 114.24C251.83 114.24 251.83 114.24 251.83 114.24C258.62 121.03 262.39 124.8 263.14 125.56C263.14 125.56 263.14 125.56 263.14 125.56C256.36 132.35 252.59 136.12 251.83 136.87C251.83 136.87 251.83 136.87 251.83 136.87C245.04 130.08 241.27 126.31 240.52 125.56C240.52 125.56 240.52 125.56 240.52 125.56C247.31 118.77 251.08 115 251.83 114.24Z" id="l58lA6kPAT"></path><path d="M531.6 333.62C530.2 329.16 528.4 324.83 526.22 320.69C528.18 318.72 543.9 303 545.86 301.04C548.99 297.91 548.99 292.85 545.86 289.73C543.6 287.46 525.49 269.35 523.22 267.09C520.1 263.96 515.04 263.96 511.91 267.09C509.95 269.05 494.24 284.76 492.27 286.73C491.24 286.18 490.16 285.73 489.07 285.23C537.52 195.9 504.38 84.21 415.05 35.77C325.72 -12.68 214.03 20.46 165.58 109.79C150.96 136.75 143.31 166.95 143.33 197.62C143.33 200.29 143.46 202.89 143.58 205.5C133.04 219.33 127.33 236.24 127.33 253.62C127.33 256.02 127.33 275.22 127.33 277.62C127.33 282.04 130.91 285.62 135.33 285.62C135.33 286.42 135.33 292.82 135.33 293.62C135.37 320.94 150.86 345.88 175.33 358.02C175.33 358.65 175.33 361.82 175.33 367.51C147.27 375.14 131.68 379.38 128.56 380.23C104.26 386.96 87.41 409.05 87.33 434.26C87.33 439.4 87.33 480.49 87.33 485.62C87.33 490.04 90.91 493.62 95.33 493.62C117.73 493.62 296.93 493.62 319.33 493.62C323.75 493.62 327.33 490.04 327.33 485.62C327.33 480.49 327.33 439.4 327.33 434.26C327.25 409.04 310.39 386.95 286.07 380.22C282.96 379.37 267.38 375.14 239.33 367.51C239.33 362.5 239.33 359.72 239.33 359.16C272.33 377.21 310.09 384.66 347.48 380.49C348.64 381.2 349.97 381.59 351.33 381.62C354.1 381.62 376.28 381.62 379.06 381.62C380.46 386.09 382.26 390.42 384.44 394.56C382.48 396.52 366.76 412.24 364.79 414.21C361.67 417.33 361.67 422.39 364.79 425.52C367.06 427.78 385.17 445.89 387.43 448.16C390.56 451.28 395.62 451.28 398.74 448.16C400.71 446.19 416.43 430.48 418.39 428.51C422.53 430.69 426.86 432.49 431.33 433.89C431.33 436.67 431.33 458.85 431.33 461.62C431.33 466.04 434.91 469.62 439.33 469.62C442.53 469.62 468.13 469.62 471.33 469.62C475.75 469.62 479.33 466.04 479.33 461.62C479.33 458.85 479.33 436.67 479.33 433.89C483.79 432.49 488.12 430.69 492.26 428.51C494.23 430.48 509.95 446.19 511.91 448.16C515.04 451.28 520.1 451.28 523.22 448.16C525.49 445.89 543.6 427.78 545.86 425.52C548.99 422.39 548.99 417.33 545.86 414.21C543.9 412.24 528.18 396.52 526.22 394.56C528.4 390.42 530.2 386.09 531.6 381.62C534.37 381.62 556.56 381.62 559.33 381.62C563.75 381.62 567.33 378.04 567.33 373.62C567.33 370.42 567.33 344.82 567.33 341.62C567.33 337.2 563.75 333.62 559.33 333.62C553.78 333.62 534.37 333.62 531.6 333.62ZM143.33 253.62C143.33 218.28 171.98 189.62 207.33 189.62C242.67 189.62 271.33 218.28 271.33 253.62C271.33 255.18 271.33 267.67 271.33 269.23C258.32 267.41 247.05 259.28 241.22 247.51C240.94 246.96 238.76 242.59 238.49 242.05C237.34 239.74 235.15 238.14 232.61 237.73C230.07 237.33 227.5 238.16 225.67 239.97C224.35 241.29 213.74 251.9 212.42 253.22C201.94 263.76 187.68 269.66 172.82 269.62C170.86 269.62 161.03 269.62 143.33 269.62C143.33 261.09 143.33 255.76 143.33 253.62ZM279.33 285.62C283.75 285.62 287.33 282.04 287.33 277.62C287.33 275.22 287.33 256.02 287.33 253.62C287.52 209.63 252.01 173.81 208.02 173.62C203.07 173.6 198.14 174.04 193.27 174.93C205.77 100.83 275.97 50.89 350.08 63.38C424.18 75.88 474.12 146.08 461.63 220.19C449.13 294.29 378.93 344.23 304.82 331.74C293.97 329.91 283.37 326.77 273.27 322.38C277.26 313.32 279.32 303.52 279.33 293.62C279.33 292.02 279.33 286.42 279.33 285.62ZM151.33 285.62C164.23 285.62 171.39 285.62 172.82 285.62C191.93 285.67 210.26 278.08 223.73 264.53C224.29 263.97 228.77 259.49 229.33 258.93C236.93 271.41 249.15 280.39 263.33 283.92C263.33 284.89 263.33 292.65 263.33 293.62C263.33 324.55 238.26 349.62 207.33 349.62C176.4 349.62 151.33 324.55 151.33 293.62C151.33 292.56 151.33 289.89 151.33 285.62ZM159.33 388.44L170.53 385.39L199.33 409.39L199.33 429.62L215.33 429.62L215.33 409.37L244.13 385.37L255.33 388.42L255.33 402.29L207.33 450.29L159.33 402.29L159.33 388.44ZM223.33 363.77C223.33 364.75 223.33 372.64 223.33 373.62C223.35 375.91 224.37 378.08 226.12 379.57C224.87 380.61 218.6 385.83 207.33 395.22C196.05 385.83 189.79 380.62 188.54 379.57C190.29 378.09 191.31 375.92 191.33 373.62C191.33 372.64 191.33 364.75 191.33 363.77C196.58 364.98 201.94 365.61 207.33 365.62C212.71 365.61 218.08 364.98 223.33 363.77ZM311.33 477.62L103.33 477.62C103.33 451.61 103.33 437.15 103.33 434.26C103.39 416.25 115.43 400.47 132.79 395.66C133.5 395.47 137.01 394.53 143.33 392.82C143.33 400.5 143.33 404.77 143.33 405.62C143.33 407.74 144.17 409.78 145.67 411.28C151.27 416.88 196.07 461.68 201.67 467.28C204.8 470.4 209.86 470.4 212.98 467.28C218.58 461.68 263.38 416.88 268.98 411.28C270.49 409.78 271.33 407.74 271.33 405.62C271.33 404.77 271.33 400.5 271.33 392.82C277.64 394.54 281.14 395.5 281.84 395.69C299.2 400.49 311.25 416.25 311.33 434.26C311.33 440.04 311.33 454.5 311.33 477.62ZM265.26 336.29C341.85 370.65 431.8 336.41 466.15 259.82C500.51 183.22 466.27 93.28 389.68 58.92C313.08 24.56 223.14 58.8 188.78 135.4C182.46 149.49 178.32 164.47 176.51 179.81C170.54 182.33 164.9 185.58 159.71 189.46C164.35 96.94 243.11 25.69 335.63 30.33C428.15 34.96 499.4 113.72 494.76 206.24C490.13 298.76 411.37 370.01 318.85 365.38C296.23 364.25 274.08 358.55 253.73 348.62C258.04 345 261.91 340.85 265.26 336.29ZM458.96 326.09C476.46 328.15 488.96 344 486.9 361.5C484.84 378.99 468.98 391.5 451.49 389.44C435.38 387.54 423.26 373.85 423.33 357.62C423.37 356.51 423.48 355.41 423.65 354.31C436.56 346.41 448.4 336.91 458.96 326.09ZM551.33 365.62C535.82 365.62 527.21 365.62 525.49 365.62C521.76 365.62 518.52 368.2 517.69 371.83C516.12 378.82 513.34 385.49 509.48 391.53C507.44 394.7 507.89 398.86 510.55 401.52C511.78 402.74 517.9 408.86 528.93 419.86L517.57 431.22C506.56 420.18 500.45 414.05 499.22 412.82C496.56 410.16 492.41 409.71 489.24 411.75C483.2 415.63 476.53 418.43 469.54 420.02C465.92 420.85 463.35 424.07 463.33 427.78C463.33 429.51 463.33 438.12 463.33 453.62L447.33 453.62C447.33 438.12 447.33 429.51 447.33 427.78C447.33 424.05 444.76 420.82 441.12 419.98C434.13 418.41 427.46 415.63 421.42 411.77C418.25 409.74 414.09 410.18 411.43 412.85C410.21 414.07 404.1 420.2 393.09 431.22L381.73 419.86C392.77 408.86 398.9 402.74 400.13 401.52C402.79 398.86 403.24 394.7 401.2 391.53C397.34 385.49 394.57 378.82 392.99 371.83C392.81 371.12 392.52 370.44 392.14 369.81C400.1 366.81 406.13 363.79 407.69 363.12C410.66 389.46 434.43 408.4 460.77 405.43C487.11 402.46 506.06 378.69 503.08 352.35C501.01 333.96 488.54 318.4 471.04 312.36C476.2 305.92 479.8 300.36 480.78 299.03C483.72 300.27 486.55 301.76 489.25 303.46C492.42 305.51 496.58 305.07 499.25 302.4C500.47 301.17 506.58 295.05 517.57 284.02L528.93 295.38C517.89 306.39 511.76 312.5 510.53 313.73C507.87 316.39 507.42 320.54 509.46 323.71C513.34 329.75 516.14 336.42 517.73 343.41C518.56 347.03 521.77 349.61 525.49 349.62C527.21 349.62 535.82 349.62 551.33 349.62L551.33 365.62Z" id="a24MdSdxxc"></path></defs><g><g><g><use xlink:href="#d1MzLkRcyN" opacity="1" fill="#ffe831" fill-opacity="1"></use><g><use xlink:href="#d1MzLkRcyN" opacity="1" fill-opacity="0" stroke="#000000" stroke-width="1" stroke-opacity="0"></use></g></g><g><use xlink:href="#c64HBHj47q" opacity="1" fill="#ffe831" fill-opacity="1"></use><g><use xlink:href="#c64HBHj47q" opacity="1" fill-opacity="0" stroke="#000000" stroke-width="1" stroke-opacity="0"></use></g></g><g><use xlink:href="#c75nrmyFhT" opacity="1" fill="#ffe831" fill-opacity="1"></use><g><use xlink:href="#c75nrmyFhT" opacity="1" fill-opacity="0" stroke="#000000" stroke-width="1" stroke-opacity="0"></use></g></g><g><use xlink:href="#d52W52n0l" opacity="1" fill="#ffe831" fill-opacity="1"></use><g><use xlink:href="#d52W52n0l" opacity="1" fill-opacity="0" stroke="#000000" stroke-width="1" stroke-opacity="0"></use></g></g><g><use xlink:href="#f1DZ8Xy9ka" opacity="1" fill="#ffe831" fill-opacity="1"></use><g><use xlink:href="#f1DZ8Xy9ka" opacity="1" fill-opacity="0" stroke="#000000" stroke-width="1" stroke-opacity="0"></use></g></g><g><use xlink:href="#ayIcqRpmO" opacity="1" fill="#ffe831" fill-opacity="1"></use><g><use xlink:href="#ayIcqRpmO" opacity="1" fill-opacity="0" stroke="#000000" stroke-width="1" stroke-opacity="0"></use></g></g><g><use xlink:href="#gJqHXeMi1" opacity="1" fill="#ffe831" fill-opacity="1"></use><g><use xlink:href="#gJqHXeMi1" opacity="1" fill-opacity="0" stroke="#000000" stroke-width="1" stroke-opacity="0"></use></g></g><g><use xlink:href="#l58lA6kPAT" opacity="1" fill="#ffe831" fill-opacity="1"></use><g><use xlink:href="#l58lA6kPAT" opacity="1" fill-opacity="0" stroke="#000000" stroke-width="1" stroke-opacity="0"></use></g></g><g><use xlink:href="#a24MdSdxxc" opacity="1" fill="#ffe831" fill-opacity="1"></use><g><use xlink:href="#a24MdSdxxc" opacity="1" fill-opacity="0" stroke="#000000" stroke-width="1" stroke-opacity="0"></use></g></g></g></g></svg>